<svg width="851" height="143" viewBox="0 0 851 143" fill="none" xmlns="http://www.w3.org/2000/svg">
<g clip-path="url(#clip0_2019_747)">
<path fill-rule="evenodd" clip-rule="evenodd" d="M507.089 61.5105C506.726 61.5105 506.726 60.8406 506.726 60.8406V45.1486C506.726 42.6974 504.632 40.5852 502.515 40.5852H465.429C462.972 40.5852 461.25 42.6974 461.25 45.1486V115.207C461.25 118.044 462.98 119.77 465.429 119.77H536.814C539.27 119.77 541.024 118.044 541.024 115.207V61.1716L507.089 61.5026V61.5105ZM468.58 56.2772C468.58 55.6073 469.276 55.2762 469.971 55.2762H479.086C479.418 55.2762 480.121 55.6073 480.121 56.2772V61.8415C480.121 62.5666 479.426 62.8976 479.086 62.8976H469.971C469.276 62.8976 468.58 62.5666 468.58 61.8415V56.2772ZM468.58 82.4279V76.8636C468.58 76.5326 469.276 75.8075 469.971 75.8075H479.086C479.418 75.8075 480.121 76.5326 480.121 76.8636V82.4279C480.121 83.153 479.426 83.8229 479.086 83.8229H469.971C469.276 83.8229 468.58 83.153 468.58 82.4279ZM489.94 112.086C489.94 112.811 489.576 113.142 488.881 113.142H478.731C478.368 113.142 477.672 112.811 477.672 112.086V95.0067C477.672 94.2816 478.375 93.9506 478.731 93.9506H488.881C489.576 93.9506 489.94 94.2816 489.94 95.0067V112.086ZM499.032 82.4279C499.032 83.153 498.668 83.8229 497.965 83.8229H488.881C488.178 83.8229 487.847 83.153 487.847 82.4279V76.8636C487.847 76.5326 488.178 75.8075 488.881 75.8075H497.965C498.668 75.8075 499.032 76.5326 499.032 76.8636V82.4279ZM499.032 61.8415C499.032 62.5666 498.668 62.8976 497.965 62.8976H488.881C488.178 62.8976 487.847 62.5666 487.847 61.8415V56.2772C487.847 55.6073 488.178 55.2762 488.881 55.2762H497.965C498.668 55.2762 499.032 55.6073 499.032 56.2772V61.8415ZM518.969 100.571C518.969 101.296 518.266 101.958 517.935 101.958H508.819C508.116 101.958 507.784 101.288 507.784 100.571V95.0067C507.784 94.2816 508.116 93.9506 508.819 93.9506H517.935C518.266 93.9506 518.969 94.2816 518.969 95.0067V100.571ZM518.969 79.9846C518.969 80.7097 518.266 81.0408 517.935 81.0408H508.819C508.116 81.0408 507.784 80.7097 507.784 79.9846V74.4203C507.784 73.6952 508.116 73.0253 508.819 73.0253H517.935C518.266 73.0253 518.969 73.6952 518.969 74.4203V79.9846ZM535.423 100.571C535.423 101.296 535.092 101.958 534.389 101.958H525.273C524.578 101.958 524.238 101.288 524.238 100.571V95.0067C524.238 94.2816 524.57 93.9506 525.273 93.9506H534.389C535.084 93.9506 535.423 94.2816 535.423 95.0067V100.571ZM535.423 79.9846C535.423 80.7097 535.092 81.0408 534.389 81.0408H525.273C524.578 81.0408 524.238 80.7097 524.238 79.9846V74.4203C524.238 73.6952 524.57 73.0253 525.273 73.0253H534.389C535.084 73.0253 535.423 73.6952 535.423 74.4203V79.9846Z" fill="#9A403C"/>
<path d="M81.7558 80.6779V111.523C82.0809 112.859 82.7536 113.557 83.4565 113.879C84.1066 114.255 84.7793 114.255 85.4823 114.255H99.67C100.048 114.255 100.373 114.255 101.046 113.879C101.371 113.557 101.371 112.859 101.371 112.536V97.7551H115.611V112.536C115.611 112.859 115.611 113.557 115.959 113.879C116.284 114.255 116.957 114.255 117.312 114.255H131.522C132.195 114.255 132.875 114.255 133.548 113.879C134.221 113.557 134.901 112.859 134.901 111.523V80.6779L108.491 56.8479L81.7634 80.6779H81.7558ZM82.7536 38L104.44 39.0204L81.4081 59.8492L82.7536 38ZM145.385 72.2744L111.885 42.0742C109.859 40.416 107.138 40.416 105.112 42.0742L71.5894 72.2744C69.5636 74.3078 69.5636 77.309 71.2341 79.3424C72.2621 80.3628 73.6075 81.0006 74.9606 81.0006C75.9885 81.0006 77.334 80.3628 78.362 79.665L108.491 52.4586L138.65 79.665C140.676 81.3307 143.692 81.3307 145.74 79.3424C147.441 77.309 147.441 74.3078 145.393 72.2744H145.385Z" fill="#6B889A"/>
<path d="M177.476 75.6165C177.504 74.9062 177.297 74.358 176.853 73.9716C176.416 73.5852 175.754 73.392 174.868 73.392C174.265 73.392 173.743 73.4773 173.299 73.6477C172.856 73.8125 172.501 74.0426 172.234 74.3381C171.973 74.6278 171.811 74.9631 171.748 75.3438C171.686 75.6562 171.706 75.929 171.808 76.1619C171.916 76.3949 172.083 76.5966 172.311 76.767C172.544 76.9318 172.819 77.0767 173.137 77.2017C173.456 77.321 173.794 77.4233 174.152 77.5085L175.652 77.8835C176.385 78.054 177.044 78.2812 177.629 78.5653C178.22 78.8494 178.714 79.1989 179.112 79.6136C179.515 80.0284 179.799 80.517 179.964 81.0795C180.129 81.642 180.152 82.2869 180.032 83.0142C179.851 84.0824 179.427 85.0085 178.762 85.7926C178.098 86.571 177.226 87.1761 176.146 87.608C175.066 88.0341 173.816 88.2472 172.396 88.2472C170.987 88.2472 169.797 88.0312 168.825 87.5994C167.853 87.1676 167.146 86.5284 166.703 85.6818C166.265 84.8295 166.135 83.7756 166.311 82.5199H169.882C169.819 83.1051 169.904 83.5937 170.137 83.9858C170.376 84.3722 170.731 84.6648 171.203 84.8636C171.674 85.0568 172.228 85.1534 172.865 85.1534C173.495 85.1534 174.055 85.0625 174.544 84.8807C175.038 84.6989 175.439 84.446 175.745 84.1222C176.052 83.7983 176.24 83.4261 176.308 83.0057C176.376 82.6136 176.316 82.2841 176.129 82.017C175.941 81.75 175.64 81.5227 175.226 81.3352C174.816 81.142 174.308 80.9716 173.7 80.8239L171.876 80.3466C170.467 79.9886 169.402 79.429 168.68 78.6676C167.958 77.9062 167.7 76.8807 167.904 75.5909C168.086 74.5341 168.527 73.6108 169.226 72.821C169.93 72.0256 170.816 71.4091 171.885 70.9716C172.958 70.5284 174.132 70.3068 175.404 70.3068C176.7 70.3068 177.794 70.5312 178.686 70.9801C179.578 71.4233 180.228 72.0426 180.637 72.8381C181.047 73.6335 181.172 74.5597 181.012 75.6165H177.476ZM181.14 88L183.322 74.9091H186.952L184.77 88H181.14ZM185.512 73.2045C184.972 73.2045 184.526 73.0256 184.174 72.6676C183.827 72.304 183.685 71.8722 183.748 71.3722C183.81 70.8608 184.054 70.429 184.481 70.0767C184.907 69.7187 185.39 69.5398 185.929 69.5398C186.469 69.5398 186.91 69.7187 187.25 70.0767C187.591 70.429 187.733 70.8608 187.677 71.3722C187.62 71.8722 187.378 72.304 186.952 72.6676C186.532 73.0256 186.052 73.2045 185.512 73.2045ZM192.108 80.4318L190.846 88H187.224L189.406 74.9091H192.858L192.483 77.2188H192.628C193.043 76.4517 193.628 75.8466 194.383 75.4034C195.145 74.9602 196.011 74.7386 196.983 74.7386C197.892 74.7386 198.65 74.9375 199.258 75.3352C199.872 75.733 200.304 76.2983 200.554 77.0312C200.81 77.7642 200.852 78.642 200.682 79.6648L199.284 88H195.653L196.94 80.3125C197.071 79.5114 196.969 78.8864 196.633 78.4375C196.304 77.983 195.773 77.7557 195.04 77.7557C194.551 77.7557 194.102 77.8608 193.693 78.071C193.284 78.2812 192.94 78.5881 192.662 78.9915C192.389 79.3892 192.204 79.8693 192.108 80.4318ZM206.728 93.1818C205.546 93.1818 204.56 93.0199 203.771 92.696C202.987 92.3778 202.39 91.9432 201.981 91.392C201.577 90.8409 201.356 90.2216 201.316 89.5341L204.759 89.0824C204.822 89.3494 204.941 89.5966 205.117 89.8239C205.299 90.0511 205.558 90.233 205.893 90.3693C206.234 90.5057 206.674 90.5739 207.214 90.5739C208.004 90.5739 208.691 90.3807 209.276 89.9943C209.862 89.6136 210.222 88.9744 210.359 88.0767L210.751 85.6818H210.597C210.381 86.0455 210.086 86.3892 209.711 86.7131C209.342 87.0369 208.89 87.3011 208.356 87.5057C207.827 87.7102 207.217 87.8125 206.523 87.8125C205.535 87.8125 204.677 87.5852 203.95 87.1307C203.228 86.6705 202.705 85.9687 202.381 85.0256C202.063 84.0767 202.023 82.8778 202.262 81.429C202.512 79.946 202.961 78.7074 203.609 77.7131C204.256 76.7187 205.023 75.9744 205.91 75.4801C206.796 74.9858 207.719 74.7386 208.68 74.7386C209.413 74.7386 210.004 74.8636 210.452 75.1136C210.907 75.358 211.256 75.6648 211.501 76.0341C211.745 76.3977 211.918 76.7557 212.021 77.108H212.165L212.523 74.9091H216.129L213.93 88.1278C213.754 89.2472 213.33 90.179 212.66 90.9233C211.995 91.6733 211.151 92.2358 210.129 92.6108C209.106 92.9915 207.972 93.1818 206.728 93.1818ZM208.092 85.0852C208.671 85.0852 209.191 84.9403 209.651 84.6506C210.117 84.3551 210.506 83.9347 210.819 83.3892C211.131 82.8381 211.35 82.179 211.475 81.4119C211.6 80.6449 211.597 79.9801 211.467 79.4176C211.342 78.8494 211.097 78.4091 210.734 78.0966C210.376 77.7841 209.904 77.6278 209.319 77.6278C208.717 77.6278 208.188 77.7898 207.734 78.1136C207.279 78.4318 206.901 78.875 206.6 79.4432C206.305 80.0114 206.097 80.6676 205.978 81.4119C205.853 82.1676 205.847 82.821 205.961 83.3722C206.08 83.9176 206.316 84.3409 206.668 84.642C207.021 84.9375 207.495 85.0852 208.092 85.0852ZM222.884 70.5455L219.987 88H216.356L219.254 70.5455H222.884ZM228.347 88.2557C227.006 88.2557 225.895 87.983 225.014 87.4375C224.134 86.8864 223.514 86.108 223.156 85.1023C222.804 84.0909 222.745 82.8949 222.977 81.5142C223.205 80.1676 223.662 78.9858 224.35 77.9688C225.043 76.9517 225.912 76.1591 226.958 75.5909C228.003 75.0227 229.168 74.7386 230.452 74.7386C231.316 74.7386 232.097 74.8778 232.796 75.1562C233.5 75.429 234.085 75.8437 234.551 76.4006C235.017 76.9517 235.335 77.642 235.506 78.4716C235.682 79.3011 235.679 80.2727 235.497 81.3864L235.335 82.3835H224.29L224.639 80.1335H232.276C232.361 79.6108 232.327 79.1477 232.174 78.7443C232.02 78.3409 231.764 78.0256 231.406 77.7983C231.049 77.5653 230.608 77.4489 230.085 77.4489C229.551 77.4489 229.051 77.5795 228.585 77.8409C228.12 78.1023 227.727 78.446 227.409 78.8722C227.097 79.2926 226.895 79.75 226.804 80.2443L226.404 82.4773C226.29 83.1648 226.313 83.7358 226.472 84.1903C226.637 84.6449 226.921 84.9858 227.324 85.2131C227.727 85.4347 228.239 85.5455 228.858 85.5455C229.262 85.5455 229.639 85.4886 229.992 85.375C230.35 85.2614 230.668 85.0938 230.946 84.8722C231.225 84.6449 231.452 84.3636 231.628 84.0284L234.943 84.25C234.637 85.0568 234.171 85.7614 233.546 86.3636C232.921 86.9602 232.168 87.4261 231.287 87.7614C230.412 88.0909 229.432 88.2557 228.347 88.2557ZM245.89 79.392L245.422 82.2727H237.453L237.922 79.392H245.89ZM256.302 74.9091L255.851 77.6364H247.771L248.223 74.9091H256.302ZM247.882 88L250.226 73.9631C250.379 73.0142 250.692 72.2273 251.163 71.6023C251.64 70.9773 252.228 70.5085 252.927 70.196C253.632 69.8835 254.393 69.7273 255.211 69.7273C255.768 69.7273 256.271 69.7699 256.72 69.8551C257.174 69.9403 257.504 70.017 257.709 70.0852L256.626 72.8125C256.49 72.767 256.322 72.7244 256.123 72.6847C255.924 72.6449 255.714 72.625 255.493 72.625C254.964 72.625 254.575 72.75 254.325 73C254.081 73.2443 253.916 73.5881 253.831 74.0312L251.504 88H247.882ZM259.08 88.2472C258.251 88.2472 257.532 88.1023 256.924 87.8125C256.322 87.517 255.878 87.0795 255.594 86.5C255.31 85.9205 255.239 85.2017 255.381 84.3438C255.506 83.6165 255.742 83.0085 256.089 82.5199C256.441 82.0256 256.87 81.6278 257.376 81.3267C257.881 81.0256 258.441 80.7955 259.055 80.6364C259.674 80.4773 260.313 80.3693 260.972 80.3125C261.734 80.233 262.353 80.1562 262.83 80.0824C263.313 80.0085 263.674 79.9034 263.913 79.767C264.151 79.625 264.296 79.4148 264.347 79.1364V79.0852C264.432 78.5511 264.333 78.1364 264.049 77.8409C263.77 77.5398 263.324 77.3892 262.711 77.3892C262.063 77.3892 261.512 77.5312 261.057 77.8153C260.609 78.0994 260.288 78.4602 260.094 78.8977L256.788 78.625C257.083 77.8295 257.529 77.142 258.126 76.5625C258.728 75.9773 259.452 75.5284 260.299 75.2159C261.145 74.8977 262.094 74.7386 263.145 74.7386C263.873 74.7386 264.552 74.8239 265.182 74.9943C265.819 75.1648 266.367 75.429 266.827 75.7869C267.293 76.1449 267.628 76.6051 267.833 77.1676C268.043 77.7244 268.086 78.392 267.961 79.1705L266.486 88H263.043L263.35 86.1847H263.248C262.969 86.5938 262.628 86.9545 262.225 87.267C261.822 87.5739 261.359 87.8153 260.836 87.9915C260.313 88.1619 259.728 88.2472 259.08 88.2472ZM260.538 85.7415C261.066 85.7415 261.552 85.6364 261.995 85.4261C262.444 85.2102 262.813 84.9205 263.103 84.5568C263.398 84.1932 263.586 83.7812 263.665 83.321L263.887 81.9318C263.773 82.0057 263.609 82.071 263.393 82.1278C263.182 82.1847 262.952 82.2386 262.702 82.2898C262.458 82.3352 262.211 82.3778 261.961 82.4176C261.711 82.4517 261.486 82.4858 261.288 82.5199C260.85 82.5824 260.458 82.6818 260.111 82.8182C259.765 82.9545 259.484 83.1392 259.268 83.3722C259.052 83.5994 258.918 83.8835 258.867 84.2244C258.788 84.7188 258.904 85.0966 259.216 85.358C259.535 85.6136 259.975 85.7415 260.538 85.7415ZM268.849 88L271.031 74.9091H274.482L274.107 77.2188H274.252C274.65 76.4517 275.204 75.8466 275.914 75.4034C276.63 74.9602 277.434 74.7386 278.326 74.7386C279.212 74.7386 279.934 74.9631 280.491 75.4119C281.053 75.8551 281.377 76.4574 281.462 77.2188H281.599C281.985 76.4688 282.567 75.8693 283.346 75.4205C284.124 74.9659 284.994 74.7386 285.954 74.7386C287.164 74.7386 288.09 75.1278 288.732 75.9062C289.374 76.6847 289.576 77.7812 289.337 79.196L287.871 88H284.241L285.604 79.9119C285.712 79.179 285.604 78.6335 285.281 78.2756C284.957 77.9119 284.505 77.7301 283.925 77.7301C283.266 77.7301 282.718 77.9403 282.281 78.3608C281.843 78.7756 281.573 79.3239 281.471 80.0057L280.116 88H276.596L277.977 79.8352C278.073 79.1875 277.968 78.6761 277.661 78.3011C277.36 77.9205 276.908 77.7301 276.306 77.7301C275.908 77.7301 275.531 77.8324 275.173 78.0369C274.82 78.2358 274.522 78.517 274.278 78.8807C274.033 79.2386 273.874 79.6591 273.8 80.142L272.471 88H268.849ZM290.234 88L292.416 74.9091H296.046L293.864 88H290.234ZM294.606 73.2045C294.066 73.2045 293.62 73.0256 293.268 72.6676C292.921 72.304 292.779 71.8722 292.842 71.3722C292.904 70.8608 293.149 70.429 293.575 70.0767C294.001 69.7187 294.484 69.5398 295.024 69.5398C295.563 69.5398 296.004 69.7187 296.345 70.0767C296.685 70.429 296.827 70.8608 296.771 71.3722C296.714 71.8722 296.472 72.304 296.046 72.6676C295.626 73.0256 295.146 73.2045 294.606 73.2045ZM302.821 70.5455L299.923 88H296.293L299.191 70.5455H302.821ZM303.792 92.9091C303.326 92.9091 302.9 92.8722 302.514 92.7983C302.127 92.7301 301.809 92.642 301.559 92.5341L302.838 89.8239C303.241 89.9545 303.608 90.0227 303.937 90.0284C304.272 90.0341 304.579 89.9489 304.858 89.7727C305.136 89.5966 305.392 89.3068 305.625 88.9034L305.948 88.3494L303.494 74.9091H307.176L308.284 84.5398H308.42L312.758 74.9091H316.738L309.247 89.4148C308.877 90.125 308.44 90.7415 307.934 91.2642C307.434 91.7869 306.841 92.1903 306.153 92.4744C305.471 92.7642 304.684 92.9091 303.792 92.9091Z" fill="#6B889A"/>
<path d="M321.026 88L321.299 86.4659L330.299 76.9205L330.333 76.7841H323.14L323.447 74.9091H333.231L332.958 76.5114L324.162 85.9886L324.128 86.125H331.594L331.287 88H321.026ZM338.934 88.2727C337.729 88.2727 336.721 87.9858 335.908 87.4119C335.096 86.8381 334.522 86.0341 334.187 85C333.857 83.9659 333.803 82.7614 334.025 81.3864C334.241 80.0455 334.67 78.8778 335.312 77.8835C335.959 76.8835 336.763 76.1108 337.724 75.5653C338.69 75.0142 339.752 74.7386 340.911 74.7386C342.116 74.7386 343.121 75.0284 343.928 75.608C344.741 76.1818 345.315 76.9886 345.65 78.0284C345.985 79.0625 346.042 80.2727 345.82 81.6591C345.604 82.9886 345.17 84.1506 344.516 85.1449C343.869 86.1335 343.065 86.9034 342.104 87.4545C341.15 88 340.093 88.2727 338.934 88.2727ZM338.968 86.4659C339.888 86.4659 340.687 86.2301 341.363 85.7585C342.045 85.2869 342.596 84.6648 343.016 83.892C343.442 83.1193 343.729 82.2841 343.877 81.3864C344.013 80.5341 344.008 79.7415 343.86 79.0085C343.712 78.2699 343.397 77.6761 342.914 77.2273C342.431 76.7727 341.752 76.5455 340.877 76.5455C339.957 76.5455 339.153 76.7841 338.465 77.2614C337.783 77.7386 337.232 78.3665 336.812 79.1449C336.391 79.9233 336.11 80.7614 335.968 81.6591C335.832 82.5114 335.834 83.304 335.977 84.0369C336.124 84.7642 336.44 85.3523 336.923 85.8011C337.411 86.2443 338.093 86.4659 338.968 86.4659ZM350.678 80.125L349.382 88H347.371L349.553 74.9091H351.496L351.155 76.9545H351.325C351.734 76.2898 352.288 75.7557 352.987 75.3523C353.686 74.9432 354.53 74.7386 355.519 74.7386C356.394 74.7386 357.132 74.9205 357.734 75.2841C358.342 75.642 358.771 76.1875 359.021 76.9205C359.277 77.6477 359.314 78.5682 359.132 79.6818L357.734 88H355.723L357.087 79.8182C357.257 78.7955 357.124 77.9943 356.686 77.4148C356.254 76.8352 355.57 76.5455 354.632 76.5455C353.984 76.5455 353.385 76.6847 352.834 76.9631C352.288 77.2415 351.825 77.6477 351.445 78.1818C351.07 78.7159 350.814 79.3636 350.678 80.125ZM366.384 88.2727C365.129 88.2727 364.092 87.9943 363.274 87.4375C362.455 86.875 361.884 86.0909 361.561 85.0852C361.237 84.0739 361.186 82.8977 361.407 81.5568C361.629 80.2159 362.069 79.0341 362.728 78.0114C363.387 76.983 364.208 76.1818 365.191 75.608C366.174 75.0284 367.254 74.7386 368.43 74.7386C369.112 74.7386 369.768 74.8523 370.399 75.0795C371.029 75.3068 371.575 75.6761 372.035 76.1875C372.495 76.6932 372.816 77.3636 372.998 78.1989C373.18 79.0341 373.168 80.0625 372.964 81.2841L372.828 82.1364H362.737L363.009 80.3977H371.055C371.186 79.6591 371.151 79 370.953 78.4205C370.759 77.8409 370.421 77.3835 369.938 77.0483C369.461 76.7131 368.856 76.5455 368.123 76.5455C367.367 76.5455 366.663 76.75 366.009 77.1591C365.356 77.5625 364.811 78.0739 364.373 78.6932C363.936 79.3068 363.663 79.9318 363.555 80.5682L363.316 82.0682C363.146 83.1534 363.171 84.017 363.393 84.6591C363.62 85.3011 364.015 85.7642 364.578 86.0483C365.14 86.3267 365.845 86.4659 366.691 86.4659C367.231 86.4659 367.728 86.392 368.183 86.2443C368.637 86.0909 369.043 85.8636 369.401 85.5625C369.759 85.2557 370.061 84.875 370.305 84.4205L372.146 84.9659C371.833 85.625 371.393 86.2045 370.825 86.7045C370.262 87.1989 369.603 87.5852 368.847 87.8636C368.097 88.1364 367.276 88.2727 366.384 88.2727ZM385.443 77.8409L383.534 78.3523C383.465 78.0455 383.346 77.75 383.176 77.4659C383.011 77.1761 382.755 76.9403 382.409 76.7585C382.068 76.571 381.602 76.4773 381.011 76.4773C380.21 76.4773 379.514 76.6619 378.923 77.0312C378.332 77.3949 377.994 77.858 377.909 78.4205C377.823 78.9148 377.937 79.3097 378.25 79.6051C378.562 79.9006 379.085 80.142 379.818 80.3295L381.693 80.8068C382.818 81.0966 383.619 81.5312 384.096 82.1108C384.579 82.6847 384.744 83.4318 384.59 84.3523C384.465 85.1023 384.139 85.7727 383.61 86.3636C383.082 86.9545 382.406 87.4205 381.582 87.7614C380.758 88.1023 379.84 88.2727 378.829 88.2727C377.483 88.2727 376.42 87.983 375.642 87.4034C374.863 86.8182 374.448 85.9716 374.397 84.8636L376.409 84.3864C376.46 85.0852 376.71 85.6136 377.159 85.9716C377.613 86.3239 378.25 86.5 379.068 86.5C380.005 86.5 380.787 86.3011 381.412 85.9034C382.037 85.5 382.392 85.017 382.477 84.4545C382.562 83.9943 382.471 83.6108 382.204 83.304C381.943 82.9972 381.488 82.767 380.84 82.6136L378.761 82.1023C377.602 81.8125 376.789 81.3693 376.323 80.7727C375.863 80.1761 375.71 79.4261 375.863 78.5227C375.988 77.7841 376.306 77.1307 376.818 76.5625C377.335 75.9943 377.983 75.5483 378.761 75.2244C379.545 74.9006 380.397 74.7386 381.318 74.7386C382.613 74.7386 383.582 75.0227 384.224 75.5909C384.866 76.1534 385.272 76.9034 385.443 77.8409ZM171.114 118L169.307 104.909H171.421L172.58 114.932H172.716L177.182 104.909H179.33L180.421 114.898H180.557L185.057 104.909H187.171L181 118H179.023L177.83 107.943H177.625L173.091 118H171.114ZM187.168 118L189.35 104.909H191.361L189.179 118H187.168ZM190.969 102.693C190.577 102.693 190.239 102.56 189.955 102.293C189.677 102.026 189.537 101.705 189.537 101.33C189.537 100.955 189.677 100.634 189.955 100.366C190.239 100.099 190.577 99.9659 190.969 99.9659C191.361 99.9659 191.696 100.099 191.975 100.366C192.259 100.634 192.401 100.955 192.401 101.33C192.401 101.705 192.259 102.026 191.975 102.293C191.696 102.56 191.361 102.693 190.969 102.693ZM200.258 104.909L199.986 106.614H193.201L193.474 104.909H200.258ZM195.963 101.773H197.974L195.895 114.25C195.804 114.818 195.818 115.244 195.937 115.528C196.062 115.807 196.25 115.994 196.5 116.091C196.755 116.182 197.031 116.227 197.326 116.227C197.548 116.227 197.73 116.216 197.872 116.193C198.014 116.165 198.128 116.142 198.213 116.125L198.349 117.932C198.196 117.983 197.988 118.034 197.727 118.085C197.471 118.142 197.156 118.17 196.781 118.17C196.213 118.17 195.679 118.048 195.179 117.804C194.679 117.56 194.295 117.188 194.028 116.688C193.761 116.188 193.69 115.557 193.815 114.795L195.963 101.773ZM204.21 110.125L202.915 118H200.903L203.801 100.545H205.812L204.756 106.955H204.926C205.335 106.273 205.881 105.733 206.562 105.335C207.25 104.938 208.114 104.739 209.153 104.739C210.04 104.739 210.787 104.918 211.395 105.276C212.008 105.628 212.44 106.17 212.69 106.903C212.946 107.631 212.983 108.557 212.801 109.682L211.403 118H209.392L210.756 109.818C210.926 108.778 210.787 107.974 210.338 107.406C209.895 106.832 209.204 106.545 208.267 106.545C207.608 106.545 206.994 106.685 206.426 106.963C205.864 107.241 205.386 107.648 204.994 108.182C204.608 108.716 204.346 109.364 204.21 110.125ZM221.146 118L224.043 100.545H230.146C231.362 100.545 232.33 100.756 233.052 101.176C233.774 101.591 234.268 102.151 234.535 102.855C234.802 103.554 234.862 104.33 234.714 105.182C234.589 105.932 234.353 106.551 234.007 107.04C233.666 107.528 233.257 107.915 232.779 108.199C232.308 108.483 231.816 108.693 231.305 108.83L231.271 109C231.793 109.034 232.296 109.222 232.779 109.562C233.262 109.903 233.634 110.392 233.896 111.028C234.157 111.665 234.214 112.443 234.066 113.364C233.918 114.239 233.586 115.026 233.069 115.724C232.552 116.423 231.83 116.977 230.904 117.386C229.978 117.795 228.828 118 227.453 118H221.146ZM223.566 116.125H227.759C229.14 116.125 230.166 115.858 230.836 115.324C231.512 114.784 231.918 114.131 232.055 113.364C232.146 112.773 232.08 112.227 231.859 111.727C231.643 111.222 231.282 110.818 230.776 110.517C230.276 110.21 229.646 110.057 228.884 110.057H224.589L223.566 116.125ZM224.896 108.216H228.816C229.453 108.216 230.049 108.091 230.606 107.841C231.163 107.591 231.629 107.239 232.004 106.784C232.379 106.33 232.612 105.795 232.703 105.182C232.839 104.415 232.685 103.764 232.242 103.23C231.799 102.69 230.998 102.42 229.839 102.42H225.85L224.896 108.216ZM240.911 100.545L238.014 118H236.002L238.9 100.545H240.911ZM245.036 118.307C244.206 118.307 243.479 118.151 242.854 117.838C242.229 117.52 241.766 117.062 241.465 116.466C241.164 115.864 241.081 115.136 241.218 114.284C241.348 113.534 241.601 112.926 241.976 112.46C242.351 111.989 242.806 111.619 243.34 111.352C243.88 111.08 244.459 110.878 245.078 110.747C245.703 110.611 246.326 110.506 246.945 110.432C247.752 110.33 248.408 110.25 248.914 110.193C249.419 110.136 249.8 110.043 250.056 109.912C250.311 109.781 250.468 109.557 250.525 109.239V109.17C250.661 108.335 250.55 107.685 250.192 107.219C249.834 106.747 249.195 106.511 248.275 106.511C247.32 106.511 246.522 106.722 245.88 107.142C245.238 107.562 244.763 108.011 244.456 108.489L242.684 107.807C243.15 107.011 243.706 106.392 244.354 105.949C245.002 105.5 245.681 105.187 246.391 105.011C247.101 104.83 247.786 104.739 248.445 104.739C248.865 104.739 249.34 104.79 249.868 104.892C250.397 104.989 250.891 105.19 251.351 105.497C251.817 105.804 252.167 106.267 252.4 106.886C252.638 107.506 252.672 108.335 252.502 109.375L251.07 118H249.059L249.365 116.227H249.263C249.081 116.511 248.803 116.815 248.428 117.139C248.059 117.463 247.59 117.739 247.022 117.966C246.459 118.193 245.797 118.307 245.036 118.307ZM245.615 116.5C246.411 116.5 247.107 116.344 247.703 116.031C248.306 115.719 248.789 115.315 249.152 114.821C249.522 114.327 249.752 113.807 249.843 113.261L250.15 111.42C250.047 111.523 249.846 111.616 249.544 111.702C249.243 111.781 248.902 111.852 248.522 111.915C248.147 111.972 247.78 112.023 247.422 112.068C247.07 112.108 246.786 112.142 246.57 112.17C246.036 112.239 245.527 112.349 245.044 112.503C244.567 112.651 244.164 112.875 243.834 113.176C243.51 113.472 243.309 113.875 243.229 114.386C243.11 115.085 243.277 115.614 243.732 115.972C244.186 116.324 244.814 116.5 245.615 116.5ZM259.545 118.273C258.312 118.273 257.301 117.983 256.511 117.403C255.727 116.824 255.182 116.026 254.875 115.009C254.568 113.991 254.522 112.83 254.738 111.523C254.954 110.193 255.392 109.02 256.051 108.003C256.71 106.98 257.531 106.182 258.514 105.608C259.497 105.028 260.579 104.739 261.761 104.739C262.682 104.739 263.483 104.909 264.165 105.25C264.846 105.591 265.372 106.068 265.741 106.682C266.111 107.295 266.284 108.011 266.261 108.83H264.25C264.193 108.233 263.937 107.705 263.483 107.244C263.034 106.778 262.369 106.545 261.488 106.545C260.704 106.545 259.983 106.75 259.324 107.159C258.665 107.562 258.111 108.134 257.662 108.872C257.213 109.605 256.909 110.466 256.75 111.455C256.579 112.466 256.594 113.347 256.792 114.097C256.991 114.847 257.352 115.429 257.875 115.844C258.397 116.259 259.057 116.466 259.852 116.466C260.375 116.466 260.863 116.375 261.318 116.193C261.772 116.011 262.176 115.75 262.528 115.409C262.88 115.068 263.159 114.659 263.363 114.182H265.375C265.125 114.955 264.724 115.651 264.173 116.27C263.622 116.884 262.954 117.372 262.17 117.736C261.386 118.094 260.511 118.273 259.545 118.273ZM269.846 113.227L270.221 110.739H270.631L277.346 104.909H279.835L272.71 111.08H272.54L269.846 113.227ZM267.187 118L270.085 100.545H272.096L269.199 118H267.187ZM275.506 118L271.483 111.523L273.119 110.125L278.062 118H275.506ZM286.032 118L288.214 104.909H290.157L289.816 106.886H289.953C290.293 106.239 290.813 105.713 291.512 105.31C292.211 104.906 292.953 104.705 293.737 104.705C293.89 104.705 294.075 104.707 294.291 104.713C294.506 104.713 294.674 104.722 294.793 104.739L294.453 106.784C294.384 106.767 294.231 106.741 293.992 106.707C293.754 106.668 293.498 106.648 293.225 106.648C292.589 106.648 292.001 106.781 291.461 107.048C290.921 107.31 290.47 107.673 290.106 108.139C289.742 108.599 289.509 109.125 289.407 109.716L288.043 118H286.032ZM299.585 118.273C298.329 118.273 297.292 117.994 296.474 117.438C295.656 116.875 295.085 116.091 294.761 115.085C294.437 114.074 294.386 112.898 294.607 111.557C294.829 110.216 295.269 109.034 295.928 108.011C296.588 106.983 297.409 106.182 298.392 105.608C299.375 105.028 300.454 104.739 301.63 104.739C302.312 104.739 302.968 104.852 303.599 105.08C304.23 105.307 304.775 105.676 305.235 106.188C305.696 106.693 306.017 107.364 306.198 108.199C306.38 109.034 306.369 110.062 306.164 111.284L306.028 112.136H295.937L296.21 110.398H304.255C304.386 109.659 304.352 109 304.153 108.42C303.96 107.841 303.622 107.384 303.139 107.048C302.661 106.713 302.056 106.545 301.323 106.545C300.568 106.545 299.863 106.75 299.21 107.159C298.556 107.562 298.011 108.074 297.573 108.693C297.136 109.307 296.863 109.932 296.755 110.568L296.517 112.068C296.346 113.153 296.372 114.017 296.593 114.659C296.821 115.301 297.215 115.764 297.778 116.048C298.34 116.327 299.045 116.466 299.892 116.466C300.431 116.466 300.928 116.392 301.383 116.244C301.838 116.091 302.244 115.864 302.602 115.562C302.96 115.256 303.261 114.875 303.505 114.42L305.346 114.966C305.034 115.625 304.593 116.205 304.025 116.705C303.463 117.199 302.803 117.585 302.048 117.864C301.298 118.136 300.477 118.273 299.585 118.273ZM318.643 107.841L316.734 108.352C316.666 108.045 316.546 107.75 316.376 107.466C316.211 107.176 315.956 106.94 315.609 106.759C315.268 106.571 314.802 106.477 314.211 106.477C313.41 106.477 312.714 106.662 312.123 107.031C311.532 107.395 311.194 107.858 311.109 108.42C311.024 108.915 311.137 109.31 311.45 109.605C311.762 109.901 312.285 110.142 313.018 110.33L314.893 110.807C316.018 111.097 316.819 111.531 317.296 112.111C317.779 112.685 317.944 113.432 317.791 114.352C317.666 115.102 317.339 115.773 316.811 116.364C316.282 116.955 315.606 117.42 314.782 117.761C313.958 118.102 313.041 118.273 312.029 118.273C310.683 118.273 309.62 117.983 308.842 117.403C308.064 116.818 307.649 115.972 307.598 114.864L309.609 114.386C309.66 115.085 309.91 115.614 310.359 115.972C310.814 116.324 311.45 116.5 312.268 116.5C313.206 116.5 313.987 116.301 314.612 115.903C315.237 115.5 315.592 115.017 315.677 114.455C315.762 113.994 315.671 113.611 315.404 113.304C315.143 112.997 314.689 112.767 314.041 112.614L311.961 112.102C310.802 111.812 309.99 111.369 309.524 110.773C309.064 110.176 308.91 109.426 309.064 108.523C309.189 107.784 309.507 107.131 310.018 106.562C310.535 105.994 311.183 105.548 311.961 105.224C312.745 104.901 313.598 104.739 314.518 104.739C315.814 104.739 316.782 105.023 317.424 105.591C318.066 106.153 318.473 106.903 318.643 107.841ZM319.725 118L321.907 104.909H323.918L321.736 118H319.725ZM323.526 102.693C323.134 102.693 322.796 102.56 322.512 102.293C322.233 102.026 322.094 101.705 322.094 101.33C322.094 100.955 322.233 100.634 322.512 100.366C322.796 100.099 323.134 99.9659 323.526 99.9659C323.918 99.9659 324.253 100.099 324.532 100.366C324.816 100.634 324.958 100.955 324.958 101.33C324.958 101.705 324.816 102.026 324.532 102.293C324.253 102.56 323.918 102.693 323.526 102.693ZM329.866 118.273C328.77 118.273 327.849 117.997 327.105 117.446C326.361 116.889 325.835 116.105 325.528 115.094C325.227 114.077 325.19 112.875 325.417 111.489C325.65 110.114 326.085 108.92 326.721 107.909C327.363 106.898 328.15 106.116 329.082 105.565C330.014 105.014 331.031 104.739 332.133 104.739C332.986 104.739 333.636 104.881 334.085 105.165C334.54 105.443 334.869 105.761 335.074 106.119C335.278 106.472 335.435 106.761 335.542 106.989H335.713L336.787 100.545H338.798L335.9 118H333.957L334.298 115.989H334.06C333.872 116.227 333.611 116.528 333.275 116.892C332.94 117.25 332.497 117.571 331.946 117.855C331.4 118.134 330.707 118.273 329.866 118.273ZM330.361 116.466C331.167 116.466 331.889 116.256 332.525 115.835C333.167 115.409 333.702 114.821 334.128 114.071C334.554 113.315 334.849 112.443 335.014 111.455C335.179 110.477 335.173 109.622 334.997 108.889C334.821 108.151 334.483 107.577 333.983 107.168C333.483 106.753 332.821 106.545 331.997 106.545C331.15 106.545 330.415 106.764 329.79 107.202C329.165 107.634 328.656 108.222 328.264 108.966C327.872 109.705 327.599 110.534 327.446 111.455C327.292 112.386 327.29 113.233 327.437 113.994C327.585 114.75 327.898 115.352 328.375 115.801C328.858 116.244 329.52 116.466 330.361 116.466ZM344.821 118.273C343.565 118.273 342.528 117.994 341.71 117.438C340.892 116.875 340.321 116.091 339.997 115.085C339.673 114.074 339.622 112.898 339.844 111.557C340.065 110.216 340.506 109.034 341.165 108.011C341.824 106.983 342.645 106.182 343.628 105.608C344.611 105.028 345.69 104.739 346.866 104.739C347.548 104.739 348.205 104.852 348.835 105.08C349.466 105.307 350.011 105.676 350.472 106.188C350.932 106.693 351.253 107.364 351.435 108.199C351.616 109.034 351.605 110.062 351.401 111.284L351.264 112.136H341.173L341.446 110.398H349.491C349.622 109.659 349.588 109 349.389 108.42C349.196 107.841 348.858 107.384 348.375 107.048C347.898 106.713 347.293 106.545 346.56 106.545C345.804 106.545 345.099 106.75 344.446 107.159C343.793 107.562 343.247 108.074 342.81 108.693C342.372 109.307 342.099 109.932 341.991 110.568L341.753 112.068C341.582 113.153 341.608 114.017 341.83 114.659C342.057 115.301 342.452 115.764 343.014 116.048C343.577 116.327 344.281 116.466 345.128 116.466C345.668 116.466 346.165 116.392 346.619 116.244C347.074 116.091 347.48 115.864 347.838 115.562C348.196 115.256 348.497 114.875 348.741 114.42L350.582 114.966C350.27 115.625 349.83 116.205 349.261 116.705C348.699 117.199 348.04 117.585 347.284 117.864C346.534 118.136 345.713 118.273 344.821 118.273ZM356.209 110.125L354.913 118H352.902L355.084 104.909H357.027L356.686 106.955H356.857C357.266 106.29 357.82 105.756 358.519 105.352C359.217 104.943 360.061 104.739 361.05 104.739C361.925 104.739 362.663 104.92 363.266 105.284C363.874 105.642 364.303 106.188 364.553 106.92C364.808 107.648 364.845 108.568 364.663 109.682L363.266 118H361.254L362.618 109.818C362.788 108.795 362.655 107.994 362.217 107.415C361.786 106.835 361.101 106.545 360.163 106.545C359.516 106.545 358.916 106.685 358.365 106.963C357.82 107.241 357.357 107.648 356.976 108.182C356.601 108.716 356.345 109.364 356.209 110.125ZM374.336 104.909L374.063 106.614H367.279L367.552 104.909H374.336ZM370.041 101.773H372.052L369.972 114.25C369.882 114.818 369.896 115.244 370.015 115.528C370.14 115.807 370.328 115.994 370.578 116.091C370.833 116.182 371.109 116.227 371.404 116.227C371.626 116.227 371.808 116.216 371.95 116.193C372.092 116.165 372.205 116.142 372.291 116.125L372.427 117.932C372.274 117.983 372.066 118.034 371.805 118.085C371.549 118.142 371.234 118.17 370.859 118.17C370.291 118.17 369.757 118.048 369.257 117.804C368.757 117.56 368.373 117.188 368.106 116.688C367.839 116.188 367.768 115.557 367.893 114.795L370.041 101.773ZM385.443 107.841L383.534 108.352C383.466 108.045 383.346 107.75 383.176 107.466C383.011 107.176 382.755 106.94 382.409 106.759C382.068 106.571 381.602 106.477 381.011 106.477C380.21 106.477 379.514 106.662 378.923 107.031C378.332 107.395 377.994 107.858 377.909 108.42C377.823 108.915 377.937 109.31 378.25 109.605C378.562 109.901 379.085 110.142 379.818 110.33L381.693 110.807C382.818 111.097 383.619 111.531 384.096 112.111C384.579 112.685 384.744 113.432 384.59 114.352C384.465 115.102 384.139 115.773 383.61 116.364C383.082 116.955 382.406 117.42 381.582 117.761C380.758 118.102 379.84 118.273 378.829 118.273C377.483 118.273 376.42 117.983 375.642 117.403C374.863 116.818 374.448 115.972 374.397 114.864L376.409 114.386C376.46 115.085 376.71 115.614 377.159 115.972C377.613 116.324 378.25 116.5 379.068 116.5C380.005 116.5 380.787 116.301 381.412 115.903C382.037 115.5 382.392 115.017 382.477 114.455C382.562 113.994 382.471 113.611 382.204 113.304C381.943 112.997 381.488 112.767 380.84 112.614L378.761 112.102C377.602 111.812 376.789 111.369 376.323 110.773C375.863 110.176 375.71 109.426 375.863 108.523C375.988 107.784 376.306 107.131 376.818 106.562C377.335 105.994 377.983 105.548 378.761 105.224C379.545 104.901 380.397 104.739 381.318 104.739C382.613 104.739 383.582 105.023 384.224 105.591C384.866 106.153 385.272 106.903 385.443 107.841Z" fill="black"/>
<path d="M560.472 87L563.37 69.5455H569.472C570.688 69.5455 571.657 69.7557 572.378 70.1761C573.1 70.5909 573.594 71.1506 573.861 71.8551C574.128 72.554 574.188 73.3295 574.04 74.1818C573.915 74.9318 573.68 75.5511 573.333 76.0398C572.992 76.5284 572.583 76.9148 572.106 77.1989C571.634 77.483 571.143 77.6932 570.631 77.8295L570.597 78C571.12 78.0341 571.623 78.2216 572.106 78.5625C572.589 78.9034 572.961 79.392 573.222 80.0284C573.484 80.6648 573.54 81.4432 573.393 82.3636C573.245 83.2386 572.913 84.0256 572.395 84.7244C571.878 85.4233 571.157 85.9773 570.231 86.3864C569.305 86.7955 568.154 87 566.779 87H560.472ZM562.893 85.125H567.086C568.467 85.125 569.492 84.858 570.163 84.3239C570.839 83.7841 571.245 83.1307 571.381 82.3636C571.472 81.7727 571.407 81.2273 571.185 80.7273C570.969 80.2216 570.609 79.8182 570.103 79.517C569.603 79.2102 568.972 79.0568 568.211 79.0568H563.915L562.893 85.125ZM564.222 77.2159H568.143C568.779 77.2159 569.376 77.0909 569.932 76.8409C570.489 76.5909 570.955 76.2386 571.33 75.7841C571.705 75.3295 571.938 74.7955 572.029 74.1818C572.165 73.4148 572.012 72.7642 571.569 72.2301C571.126 71.6903 570.324 71.4205 569.165 71.4205H565.177L564.222 77.2159ZM580.238 69.5455L577.34 87H575.329L578.227 69.5455H580.238ZM584.362 87.3068C583.533 87.3068 582.806 87.1506 582.181 86.8381C581.556 86.5199 581.092 86.0625 580.791 85.4659C580.49 84.8636 580.408 84.1364 580.544 83.2841C580.675 82.5341 580.928 81.9261 581.303 81.4602C581.678 80.9886 582.132 80.6193 582.666 80.3523C583.206 80.0795 583.786 79.8778 584.405 79.7472C585.03 79.6108 585.652 79.5057 586.271 79.4318C587.078 79.3295 587.734 79.25 588.24 79.1932C588.746 79.1364 589.127 79.0426 589.382 78.9119C589.638 78.7812 589.794 78.5568 589.851 78.2386V78.1705C589.987 77.3352 589.877 76.6847 589.519 76.2188C589.161 75.7472 588.521 75.5114 587.601 75.5114C586.646 75.5114 585.848 75.7216 585.206 76.142C584.564 76.5625 584.09 77.0114 583.783 77.4886L582.01 76.8068C582.476 76.0114 583.033 75.392 583.681 74.9489C584.328 74.5 585.007 74.1875 585.717 74.0114C586.428 73.8295 587.112 73.7386 587.771 73.7386C588.192 73.7386 588.666 73.7898 589.195 73.892C589.723 73.9886 590.217 74.1903 590.678 74.4972C591.144 74.804 591.493 75.267 591.726 75.8864C591.965 76.5057 591.999 77.3352 591.828 78.375L590.396 87H588.385L588.692 85.2273H588.59C588.408 85.5114 588.129 85.8153 587.754 86.1392C587.385 86.4631 586.916 86.7386 586.348 86.9659C585.786 87.1932 585.124 87.3068 584.362 87.3068ZM584.942 85.5C585.737 85.5 586.433 85.3438 587.03 85.0312C587.632 84.7188 588.115 84.3153 588.479 83.821C588.848 83.3267 589.078 82.8068 589.169 82.2614L589.476 80.4205C589.374 80.5227 589.172 80.6165 588.871 80.7017C588.57 80.7812 588.229 80.8523 587.848 80.9148C587.473 80.9716 587.107 81.0227 586.749 81.0682C586.396 81.108 586.112 81.142 585.896 81.1705C585.362 81.2386 584.854 81.3494 584.371 81.5028C583.894 81.6506 583.49 81.875 583.161 82.1761C582.837 82.4716 582.635 82.875 582.556 83.3864C582.436 84.0852 582.604 84.6136 583.058 84.9716C583.513 85.3239 584.141 85.5 584.942 85.5ZM598.872 87.2727C597.639 87.2727 596.627 86.983 595.838 86.4034C595.053 85.8239 594.508 85.0256 594.201 84.0085C593.894 82.9915 593.849 81.8295 594.065 80.5227C594.281 79.1932 594.718 78.0199 595.377 77.0028C596.036 75.9801 596.857 75.1818 597.84 74.608C598.823 74.0284 599.906 73.7386 601.088 73.7386C602.008 73.7386 602.809 73.9091 603.491 74.25C604.173 74.5909 604.698 75.0682 605.068 75.6818C605.437 76.2955 605.61 77.0114 605.588 77.8295H603.576C603.519 77.233 603.264 76.7045 602.809 76.2443C602.36 75.7784 601.696 75.5455 600.815 75.5455C600.031 75.5455 599.309 75.75 598.65 76.1591C597.991 76.5625 597.437 77.1335 596.988 77.8722C596.539 78.6051 596.235 79.4659 596.076 80.4545C595.906 81.4659 595.92 82.3466 596.119 83.0966C596.318 83.8466 596.678 84.429 597.201 84.8438C597.724 85.2585 598.383 85.4659 599.178 85.4659C599.701 85.4659 600.19 85.375 600.644 85.1932C601.099 85.0114 601.502 84.75 601.855 84.4091C602.207 84.0682 602.485 83.6591 602.69 83.1818H604.701C604.451 83.9545 604.051 84.6506 603.5 85.2699C602.948 85.8835 602.281 86.3722 601.497 86.7358C600.713 87.0938 599.838 87.2727 598.872 87.2727ZM609.173 82.2273L609.548 79.7386H609.957L616.673 73.9091H619.162L612.037 80.0795H611.866L609.173 82.2273ZM606.514 87L609.412 69.5455H611.423L608.525 87H606.514ZM614.832 87L610.809 80.5227L612.446 79.125L617.389 87H614.832ZM625.359 87L627.54 73.9091H629.484L629.143 75.8864H629.279C629.62 75.2386 630.14 74.7131 630.839 74.3097C631.537 73.9062 632.279 73.7045 633.063 73.7045C633.216 73.7045 633.401 73.7074 633.617 73.7131C633.833 73.7131 634.001 73.7216 634.12 73.7386L633.779 75.7841C633.711 75.767 633.557 75.7415 633.319 75.7074C633.08 75.6676 632.824 75.6477 632.552 75.6477C631.915 75.6477 631.327 75.7812 630.787 76.0483C630.248 76.3097 629.796 76.6733 629.432 77.1392C629.069 77.5994 628.836 78.125 628.734 78.7159L627.37 87H625.359ZM638.911 87.2727C637.656 87.2727 636.619 86.9943 635.8 86.4375C634.982 85.875 634.411 85.0909 634.087 84.0852C633.763 83.0739 633.712 81.8977 633.934 80.5568C634.156 79.2159 634.596 78.0341 635.255 77.0114C635.914 75.983 636.735 75.1818 637.718 74.608C638.701 74.0284 639.781 73.7386 640.957 73.7386C641.638 73.7386 642.295 73.8523 642.925 74.0795C643.556 74.3068 644.102 74.6761 644.562 75.1875C645.022 75.6932 645.343 76.3636 645.525 77.1989C645.707 78.0341 645.695 79.0625 645.491 80.2841L645.354 81.1364H635.263L635.536 79.3977H643.582C643.712 78.6591 643.678 78 643.479 77.4205C643.286 76.8409 642.948 76.3835 642.465 76.0483C641.988 75.7131 641.383 75.5455 640.65 75.5455C639.894 75.5455 639.19 75.75 638.536 76.1591C637.883 76.5625 637.337 77.0739 636.9 77.6932C636.462 78.3068 636.19 78.9318 636.082 79.5682L635.843 81.0682C635.673 82.1534 635.698 83.017 635.92 83.6591C636.147 84.3011 636.542 84.7642 637.104 85.0483C637.667 85.3267 638.371 85.4659 639.218 85.4659C639.758 85.4659 640.255 85.392 640.709 85.2443C641.164 85.0909 641.57 84.8636 641.928 84.5625C642.286 84.2557 642.587 83.875 642.832 83.4205L644.673 83.9659C644.36 84.625 643.92 85.2045 643.352 85.7045C642.789 86.1989 642.13 86.5852 641.374 86.8636C640.624 87.1364 639.803 87.2727 638.911 87.2727ZM657.97 76.8409L656.06 77.3523C655.992 77.0455 655.873 76.75 655.702 76.4659C655.538 76.1761 655.282 75.9403 654.935 75.7585C654.595 75.571 654.129 75.4773 653.538 75.4773C652.737 75.4773 652.041 75.6619 651.45 76.0312C650.859 76.3949 650.521 76.858 650.435 77.4205C650.35 77.9148 650.464 78.3097 650.776 78.6051C651.089 78.9006 651.612 79.142 652.345 79.3295L654.22 79.8068C655.345 80.0966 656.146 80.5312 656.623 81.1108C657.106 81.6847 657.271 82.4318 657.117 83.3523C656.992 84.1023 656.666 84.7727 656.137 85.3636C655.609 85.9545 654.933 86.4205 654.109 86.7614C653.285 87.1023 652.367 87.2727 651.356 87.2727C650.009 87.2727 648.947 86.983 648.168 86.4034C647.39 85.8182 646.975 84.9716 646.924 83.8636L648.935 83.3864C648.987 84.0852 649.237 84.6136 649.685 84.9716C650.14 85.3239 650.776 85.5 651.595 85.5C652.532 85.5 653.313 85.3011 653.938 84.9034C654.563 84.5 654.918 84.017 655.004 83.4545C655.089 82.9943 654.998 82.6108 654.731 82.304C654.47 81.9972 654.015 81.767 653.367 81.6136L651.288 81.1023C650.129 80.8125 649.316 80.3693 648.85 79.7727C648.39 79.1761 648.237 78.4261 648.39 77.5227C648.515 76.7841 648.833 76.1307 649.345 75.5625C649.862 74.9943 650.509 74.5483 651.288 74.2244C652.072 73.9006 652.924 73.7386 653.845 73.7386C655.14 73.7386 656.109 74.0227 656.751 74.5909C657.393 75.1534 657.799 75.9034 657.97 76.8409ZM659.051 87L661.233 73.9091H663.245L661.063 87H659.051ZM662.852 71.6932C662.46 71.6932 662.122 71.5597 661.838 71.2926C661.56 71.0256 661.421 70.7045 661.421 70.3295C661.421 69.9545 661.56 69.6335 661.838 69.3665C662.122 69.0994 662.46 68.9659 662.852 68.9659C663.245 68.9659 663.58 69.0994 663.858 69.3665C664.142 69.6335 664.284 69.9545 664.284 70.3295C664.284 70.7045 664.142 71.0256 663.858 71.2926C663.58 71.5597 663.245 71.6932 662.852 71.6932ZM669.193 87.2727C668.096 87.2727 667.176 86.9972 666.431 86.446C665.687 85.8892 665.162 85.1051 664.855 84.0938C664.554 83.0767 664.517 81.875 664.744 80.4886C664.977 79.1136 665.412 77.9205 666.048 76.9091C666.69 75.8977 667.477 75.1165 668.409 74.5653C669.34 74.0142 670.358 73.7386 671.46 73.7386C672.312 73.7386 672.963 73.8807 673.412 74.1648C673.866 74.4432 674.196 74.7614 674.4 75.1193C674.605 75.4716 674.761 75.7614 674.869 75.9886H675.039L676.113 69.5455H678.125L675.227 87H673.284L673.625 84.9886H673.386C673.198 85.2273 672.937 85.5284 672.602 85.892C672.267 86.25 671.823 86.571 671.272 86.8551C670.727 87.1335 670.034 87.2727 669.193 87.2727ZM669.687 85.4659C670.494 85.4659 671.215 85.2557 671.852 84.8352C672.494 84.4091 673.028 83.821 673.454 83.071C673.88 82.3153 674.176 81.4432 674.34 80.4545C674.505 79.4773 674.5 78.6222 674.323 77.8892C674.147 77.1506 673.809 76.5767 673.309 76.1676C672.809 75.7528 672.147 75.5455 671.323 75.5455C670.477 75.5455 669.741 75.7642 669.116 76.2017C668.491 76.6335 667.983 77.2216 667.59 77.9659C667.198 78.7045 666.926 79.5341 666.772 80.4545C666.619 81.3864 666.616 82.233 666.764 82.9943C666.912 83.75 667.224 84.3523 667.701 84.8011C668.184 85.2443 668.846 85.4659 669.687 85.4659ZM684.147 87.2727C682.892 87.2727 681.855 86.9943 681.037 86.4375C680.218 85.875 679.647 85.0909 679.324 84.0852C679 83.0739 678.949 81.8977 679.17 80.5568C679.392 79.2159 679.832 78.0341 680.491 77.0114C681.15 75.983 681.971 75.1818 682.954 74.608C683.937 74.0284 685.017 73.7386 686.193 73.7386C686.875 73.7386 687.531 73.8523 688.162 74.0795C688.792 74.3068 689.338 74.6761 689.798 75.1875C690.258 75.6932 690.579 76.3636 690.761 77.1989C690.943 78.0341 690.932 79.0625 690.727 80.2841L690.591 81.1364H680.5L680.772 79.3977H688.818C688.949 78.6591 688.914 78 688.716 77.4205C688.522 76.8409 688.184 76.3835 687.701 76.0483C687.224 75.7131 686.619 75.5455 685.886 75.5455C685.13 75.5455 684.426 75.75 683.772 76.1591C683.119 76.5625 682.574 77.0739 682.136 77.6932C681.699 78.3068 681.426 78.9318 681.318 79.5682L681.079 81.0682C680.909 82.1534 680.934 83.017 681.156 83.6591C681.383 84.3011 681.778 84.7642 682.341 85.0483C682.903 85.3267 683.608 85.4659 684.454 85.4659C684.994 85.4659 685.491 85.392 685.946 85.2443C686.4 85.0909 686.807 84.8636 687.164 84.5625C687.522 84.2557 687.824 83.875 688.068 83.4205L689.909 83.9659C689.596 84.625 689.156 85.2045 688.588 85.7045C688.025 86.1989 687.366 86.5852 686.611 86.8636C685.861 87.1364 685.039 87.2727 684.147 87.2727ZM695.535 79.125L694.24 87H692.229L694.41 73.9091H696.354L696.013 75.9545H696.183C696.592 75.2898 697.146 74.7557 697.845 74.3523C698.544 73.9432 699.388 73.7386 700.376 73.7386C701.251 73.7386 701.99 73.9205 702.592 74.2841C703.2 74.642 703.629 75.1875 703.879 75.9205C704.135 76.6477 704.172 77.5682 703.99 78.6818L702.592 87H700.581L701.944 78.8182C702.115 77.7955 701.981 76.9943 701.544 76.4148C701.112 75.8352 700.427 75.5455 699.49 75.5455C698.842 75.5455 698.243 75.6847 697.692 75.9631C697.146 76.2415 696.683 76.6477 696.302 77.1818C695.927 77.7159 695.672 78.3636 695.535 79.125ZM713.663 73.9091L713.39 75.6136H706.606L706.878 73.9091H713.663ZM709.367 70.7727H711.378L709.299 83.25C709.208 83.8182 709.222 84.2443 709.342 84.5284C709.467 84.8068 709.654 84.9943 709.904 85.0909C710.16 85.1818 710.435 85.2273 710.731 85.2273C710.952 85.2273 711.134 85.2159 711.276 85.1932C711.418 85.1648 711.532 85.142 711.617 85.125L711.753 86.9318C711.6 86.983 711.393 87.0341 711.131 87.0852C710.876 87.142 710.56 87.1705 710.185 87.1705C709.617 87.1705 709.083 87.0483 708.583 86.804C708.083 86.5597 707.7 86.1875 707.432 85.6875C707.165 85.1875 707.094 84.5568 707.219 83.7955L709.367 70.7727ZM724.769 76.8409L722.86 77.3523C722.792 77.0455 722.673 76.75 722.502 76.4659C722.337 76.1761 722.082 75.9403 721.735 75.7585C721.394 75.571 720.928 75.4773 720.337 75.4773C719.536 75.4773 718.84 75.6619 718.249 76.0312C717.658 76.3949 717.32 76.858 717.235 77.4205C717.15 77.9148 717.264 78.3097 717.576 78.6051C717.889 78.9006 718.411 79.142 719.144 79.3295L721.019 79.8068C722.144 80.0966 722.945 80.5312 723.423 81.1108C723.906 81.6847 724.07 82.4318 723.917 83.3523C723.792 84.1023 723.465 84.7727 722.937 85.3636C722.408 85.9545 721.732 86.4205 720.908 86.7614C720.085 87.1023 719.167 87.2727 718.156 87.2727C716.809 87.2727 715.747 86.983 714.968 86.4034C714.19 85.8182 713.775 84.9716 713.724 83.8636L715.735 83.3864C715.786 84.0852 716.036 84.6136 716.485 84.9716C716.94 85.3239 717.576 85.5 718.394 85.5C719.332 85.5 720.113 85.3011 720.738 84.9034C721.363 84.5 721.718 84.017 721.803 83.4545C721.889 82.9943 721.798 82.6108 721.531 82.304C721.269 81.9972 720.815 81.767 720.167 81.6136L718.087 81.1023C716.928 80.8125 716.116 80.3693 715.65 79.7727C715.19 79.1761 715.036 78.4261 715.19 77.5227C715.315 76.7841 715.633 76.1307 716.144 75.5625C716.661 74.9943 717.309 74.5483 718.087 74.2244C718.872 73.9006 719.724 73.7386 720.644 73.7386C721.94 73.7386 722.908 74.0227 723.55 74.5909C724.193 75.1534 724.599 75.9034 724.769 76.8409ZM737.03 69.5455L734.132 87H732.121L735.019 69.5455H737.03ZM737.336 87L739.518 73.9091H741.53L739.348 87H737.336ZM741.137 71.6932C740.745 71.6932 740.407 71.5597 740.123 71.2926C739.845 71.0256 739.706 70.7045 739.706 70.3295C739.706 69.9545 739.845 69.6335 740.123 69.3665C740.407 69.0994 740.745 68.9659 741.137 68.9659C741.53 68.9659 741.865 69.0994 742.143 69.3665C742.427 69.6335 742.569 69.9545 742.569 70.3295C742.569 70.7045 742.427 71.0256 742.143 71.2926C741.865 71.5597 741.53 71.6932 741.137 71.6932ZM755.438 73.9091L748.415 87H746.37L743.711 73.9091H745.807L747.682 84.3409H747.819L753.171 73.9091H755.438ZM760.417 87.2727C759.161 87.2727 758.124 86.9943 757.306 86.4375C756.488 85.875 755.917 85.0909 755.593 84.0852C755.269 83.0739 755.218 81.8977 755.44 80.5568C755.661 79.2159 756.101 78.0341 756.761 77.0114C757.42 75.983 758.241 75.1818 759.224 74.608C760.207 74.0284 761.286 73.7386 762.462 73.7386C763.144 73.7386 763.8 73.8523 764.431 74.0795C765.062 74.3068 765.607 74.6761 766.067 75.1875C766.528 75.6932 766.849 76.3636 767.03 77.1989C767.212 78.0341 767.201 79.0625 766.996 80.2841L766.86 81.1364H756.769L757.042 79.3977H765.087C765.218 78.6591 765.184 78 764.985 77.4205C764.792 76.8409 764.454 76.3835 763.971 76.0483C763.494 75.7131 762.888 75.5455 762.155 75.5455C761.4 75.5455 760.695 75.75 760.042 76.1591C759.388 76.5625 758.843 77.0739 758.405 77.6932C757.968 78.3068 757.695 78.9318 757.587 79.5682L757.349 81.0682C757.178 82.1534 757.204 83.017 757.425 83.6591C757.653 84.3011 758.047 84.7642 758.61 85.0483C759.172 85.3267 759.877 85.4659 760.724 85.4659C761.263 85.4659 761.761 85.392 762.215 85.2443C762.67 85.0909 763.076 84.8636 763.434 84.5625C763.792 84.2557 764.093 83.875 764.337 83.4205L766.178 83.9659C765.866 84.625 765.425 85.2045 764.857 85.7045C764.295 86.1989 763.636 86.5852 762.88 86.8636C762.13 87.1364 761.309 87.2727 760.417 87.2727ZM774.768 87L776.95 73.9091H778.961L776.779 87H774.768ZM778.569 71.6932C778.177 71.6932 777.839 71.5597 777.555 71.2926C777.276 71.0256 777.137 70.7045 777.137 70.3295C777.137 69.9545 777.276 69.6335 777.555 69.3665C777.839 69.0994 778.177 68.9659 778.569 68.9659C778.961 68.9659 779.296 69.0994 779.575 69.3665C779.859 69.6335 780.001 69.9545 780.001 70.3295C780.001 70.7045 779.859 71.0256 779.575 71.2926C779.296 71.5597 778.961 71.6932 778.569 71.6932ZM783.29 79.125L781.995 87H779.983L782.165 73.9091H784.108L783.767 75.9545H783.938C784.347 75.2898 784.901 74.7557 785.6 74.3523C786.299 73.9432 787.142 73.7386 788.131 73.7386C789.006 73.7386 789.745 73.9205 790.347 74.2841C790.955 74.642 791.384 75.1875 791.634 75.9205C791.889 76.6477 791.926 77.5682 791.745 78.6818L790.347 87H788.335L789.699 78.8182C789.87 77.7955 789.736 76.9943 789.299 76.4148C788.867 75.8352 788.182 75.5455 787.245 75.5455C786.597 75.5455 785.997 75.6847 785.446 75.9631C784.901 76.2415 784.438 76.6477 784.057 77.1818C783.682 77.7159 783.426 78.3636 783.29 79.125ZM708.466 117L708.739 115.466L717.739 105.92L717.773 105.784H710.58L710.886 103.909H720.671L720.398 105.511L711.602 114.989L711.568 115.125H719.034L718.727 117H708.466ZM726.374 117.273C725.169 117.273 724.161 116.986 723.348 116.412C722.536 115.838 721.962 115.034 721.627 114C721.297 112.966 721.243 111.761 721.465 110.386C721.681 109.045 722.11 107.878 722.752 106.884C723.399 105.884 724.203 105.111 725.164 104.565C726.129 104.014 727.192 103.739 728.351 103.739C729.556 103.739 730.561 104.028 731.368 104.608C732.181 105.182 732.754 105.989 733.09 107.028C733.425 108.062 733.482 109.273 733.26 110.659C733.044 111.989 732.61 113.151 731.956 114.145C731.308 115.134 730.504 115.903 729.544 116.455C728.59 117 727.533 117.273 726.374 117.273ZM726.408 115.466C727.328 115.466 728.127 115.23 728.803 114.759C729.485 114.287 730.036 113.665 730.456 112.892C730.882 112.119 731.169 111.284 731.317 110.386C731.453 109.534 731.448 108.741 731.3 108.009C731.152 107.27 730.837 106.676 730.354 106.227C729.871 105.773 729.192 105.545 728.317 105.545C727.397 105.545 726.593 105.784 725.905 106.261C725.223 106.739 724.672 107.366 724.252 108.145C723.831 108.923 723.55 109.761 723.408 110.659C723.272 111.511 723.274 112.304 723.416 113.037C723.564 113.764 723.879 114.352 724.362 114.801C724.851 115.244 725.533 115.466 726.408 115.466ZM738.118 109.125L736.822 117H734.811L736.993 103.909H738.936L738.595 105.955H738.765C739.174 105.29 739.728 104.756 740.427 104.352C741.126 103.943 741.97 103.739 742.958 103.739C743.833 103.739 744.572 103.92 745.174 104.284C745.782 104.642 746.211 105.188 746.461 105.92C746.717 106.648 746.754 107.568 746.572 108.682L745.174 117H743.163L744.527 108.818C744.697 107.795 744.564 106.994 744.126 106.415C743.694 105.835 743.01 105.545 742.072 105.545C741.424 105.545 740.825 105.685 740.274 105.963C739.728 106.241 739.265 106.648 738.885 107.182C738.51 107.716 738.254 108.364 738.118 109.125ZM753.824 117.273C752.569 117.273 751.532 116.994 750.714 116.438C749.895 115.875 749.324 115.091 749 114.085C748.677 113.074 748.625 111.898 748.847 110.557C749.069 109.216 749.509 108.034 750.168 107.011C750.827 105.983 751.648 105.182 752.631 104.608C753.614 104.028 754.694 103.739 755.87 103.739C756.552 103.739 757.208 103.852 757.839 104.08C758.469 104.307 759.015 104.676 759.475 105.188C759.935 105.693 760.256 106.364 760.438 107.199C760.62 108.034 760.608 109.062 760.404 110.284L760.268 111.136H750.177L750.449 109.398H758.495C758.625 108.659 758.591 108 758.393 107.42C758.199 106.841 757.861 106.384 757.378 106.048C756.901 105.713 756.296 105.545 755.563 105.545C754.807 105.545 754.103 105.75 753.449 106.159C752.796 106.562 752.25 107.074 751.813 107.693C751.375 108.307 751.103 108.932 750.995 109.568L750.756 111.068C750.586 112.153 750.611 113.017 750.833 113.659C751.06 114.301 751.455 114.764 752.018 115.048C752.58 115.327 753.285 115.466 754.131 115.466C754.671 115.466 755.168 115.392 755.623 115.244C756.077 115.091 756.483 114.864 756.841 114.562C757.199 114.256 757.5 113.875 757.745 113.42L759.586 113.966C759.273 114.625 758.833 115.205 758.265 115.705C757.702 116.199 757.043 116.585 756.287 116.864C755.537 117.136 754.716 117.273 753.824 117.273ZM772.883 106.841L770.974 107.352C770.905 107.045 770.786 106.75 770.616 106.466C770.451 106.176 770.195 105.94 769.849 105.759C769.508 105.571 769.042 105.477 768.451 105.477C767.65 105.477 766.954 105.662 766.363 106.031C765.772 106.395 765.434 106.858 765.349 107.42C765.263 107.915 765.377 108.31 765.689 108.605C766.002 108.901 766.525 109.142 767.258 109.33L769.133 109.807C770.258 110.097 771.059 110.531 771.536 111.111C772.019 111.685 772.184 112.432 772.03 113.352C771.905 114.102 771.579 114.773 771.05 115.364C770.522 115.955 769.846 116.42 769.022 116.761C768.198 117.102 767.28 117.273 766.269 117.273C764.922 117.273 763.86 116.983 763.082 116.403C762.303 115.818 761.888 114.972 761.837 113.864L763.849 113.386C763.9 114.085 764.15 114.614 764.599 114.972C765.053 115.324 765.689 115.5 766.508 115.5C767.445 115.5 768.226 115.301 768.851 114.903C769.476 114.5 769.832 114.017 769.917 113.455C770.002 112.994 769.911 112.611 769.644 112.304C769.383 111.997 768.928 111.767 768.28 111.614L766.201 111.102C765.042 110.812 764.229 110.369 763.763 109.773C763.303 109.176 763.15 108.426 763.303 107.523C763.428 106.784 763.746 106.131 764.258 105.562C764.775 104.994 765.422 104.548 766.201 104.224C766.985 103.901 767.837 103.739 768.758 103.739C770.053 103.739 771.022 104.023 771.664 104.591C772.306 105.153 772.712 105.903 772.883 106.841Z" fill="black"/>
<path d="M569.811 99.5455H574.362L577.234 111.273H577.439L584.18 99.5455H588.732L585.834 117H582.254L584.146 105.639H583.993L577.618 116.915H575.172L572.547 105.597H572.402L570.493 117H566.913L569.811 99.5455ZM597.65 111.426L598.903 103.909H602.534L600.352 117H596.866L597.258 114.622H597.122C596.718 115.389 596.13 116.006 595.357 116.472C594.585 116.937 593.707 117.17 592.724 117.17C591.849 117.17 591.11 116.972 590.508 116.574C589.911 116.176 589.488 115.611 589.238 114.878C588.988 114.145 588.945 113.267 589.11 112.244L590.508 103.909H594.139L592.86 111.597C592.741 112.369 592.849 112.98 593.184 113.429C593.519 113.878 594.031 114.102 594.718 114.102C595.156 114.102 595.579 114.003 595.988 113.804C596.403 113.599 596.761 113.298 597.062 112.901C597.363 112.503 597.559 112.011 597.65 111.426ZM609.304 99.5455L606.407 117H602.776L605.674 99.5455H609.304ZM617.98 103.909L617.528 106.636H609.636L610.096 103.909H617.98ZM612.397 100.773H616.028L614 112.977C613.943 113.312 613.951 113.574 614.025 113.761C614.099 113.943 614.221 114.071 614.392 114.145C614.568 114.219 614.778 114.256 615.022 114.256C615.193 114.256 615.366 114.241 615.542 114.213C615.718 114.179 615.852 114.153 615.943 114.136L616.079 116.838C615.875 116.901 615.599 116.969 615.253 117.043C614.912 117.116 614.508 117.162 614.042 117.179C613.156 117.213 612.406 117.097 611.792 116.83C611.179 116.557 610.738 116.139 610.471 115.577C610.204 115.014 610.147 114.307 610.301 113.455L612.397 100.773ZM617.683 117L619.865 103.909H623.496L621.314 117H617.683ZM622.055 102.205C621.515 102.205 621.069 102.026 620.717 101.668C620.371 101.304 620.228 100.872 620.291 100.372C620.353 99.8608 620.598 99.429 621.024 99.0767C621.45 98.7187 621.933 98.5398 622.473 98.5398C623.013 98.5398 623.453 98.7187 623.794 99.0767C624.135 99.429 624.277 99.8608 624.22 100.372C624.163 100.872 623.922 101.304 623.496 101.668C623.075 102.026 622.595 102.205 622.055 102.205ZM633.33 108.392L632.861 111.273H624.893L625.361 108.392H633.33ZM643.742 103.909L643.291 106.636H635.211L635.663 103.909H643.742ZM635.322 117L637.666 102.963C637.819 102.014 638.131 101.227 638.603 100.602C639.08 99.9773 639.668 99.5085 640.367 99.196C641.072 98.8835 641.833 98.7273 642.651 98.7273C643.208 98.7273 643.711 98.7699 644.16 98.8551C644.614 98.9403 644.944 99.017 645.148 99.0852L644.066 101.812C643.93 101.767 643.762 101.724 643.563 101.685C643.364 101.645 643.154 101.625 642.933 101.625C642.404 101.625 642.015 101.75 641.765 102C641.521 102.244 641.356 102.588 641.271 103.031L638.944 117H635.322ZM646.52 117.247C645.69 117.247 644.972 117.102 644.364 116.812C643.761 116.517 643.318 116.08 643.034 115.5C642.75 114.92 642.679 114.202 642.821 113.344C642.946 112.616 643.182 112.009 643.529 111.52C643.881 111.026 644.31 110.628 644.815 110.327C645.321 110.026 645.881 109.795 646.494 109.636C647.114 109.477 647.753 109.369 648.412 109.312C649.173 109.233 649.793 109.156 650.27 109.082C650.753 109.009 651.114 108.903 651.352 108.767C651.591 108.625 651.736 108.415 651.787 108.136V108.085C651.872 107.551 651.773 107.136 651.489 106.841C651.21 106.54 650.764 106.389 650.151 106.389C649.503 106.389 648.952 106.531 648.497 106.815C648.048 107.099 647.727 107.46 647.534 107.898L644.227 107.625C644.523 106.83 644.969 106.142 645.565 105.562C646.168 104.977 646.892 104.528 647.739 104.216C648.585 103.898 649.534 103.739 650.585 103.739C651.313 103.739 651.992 103.824 652.622 103.994C653.259 104.165 653.807 104.429 654.267 104.787C654.733 105.145 655.068 105.605 655.273 106.168C655.483 106.724 655.526 107.392 655.401 108.17L653.926 117H650.483L650.79 115.185H650.688C650.409 115.594 650.068 115.955 649.665 116.267C649.261 116.574 648.798 116.815 648.276 116.991C647.753 117.162 647.168 117.247 646.52 117.247ZM647.977 114.741C648.506 114.741 648.992 114.636 649.435 114.426C649.884 114.21 650.253 113.92 650.543 113.557C650.838 113.193 651.026 112.781 651.105 112.321L651.327 110.932C651.213 111.006 651.048 111.071 650.833 111.128C650.622 111.185 650.392 111.239 650.142 111.29C649.898 111.335 649.651 111.378 649.401 111.418C649.151 111.452 648.926 111.486 648.727 111.52C648.29 111.582 647.898 111.682 647.551 111.818C647.205 111.955 646.923 112.139 646.708 112.372C646.492 112.599 646.358 112.884 646.307 113.224C646.227 113.719 646.344 114.097 646.656 114.358C646.975 114.614 647.415 114.741 647.977 114.741ZM656.289 117L658.47 103.909H661.922L661.547 106.219H661.692C662.09 105.452 662.644 104.847 663.354 104.403C664.07 103.96 664.874 103.739 665.766 103.739C666.652 103.739 667.374 103.963 667.931 104.412C668.493 104.855 668.817 105.457 668.902 106.219H669.039C669.425 105.469 670.007 104.869 670.786 104.42C671.564 103.966 672.433 103.739 673.394 103.739C674.604 103.739 675.53 104.128 676.172 104.906C676.814 105.685 677.016 106.781 676.777 108.196L675.311 117H671.681L673.044 108.912C673.152 108.179 673.044 107.634 672.72 107.276C672.397 106.912 671.945 106.73 671.365 106.73C670.706 106.73 670.158 106.94 669.72 107.361C669.283 107.776 669.013 108.324 668.911 109.006L667.556 117H664.036L665.416 108.835C665.513 108.187 665.408 107.676 665.101 107.301C664.8 106.92 664.348 106.73 663.746 106.73C663.348 106.73 662.97 106.832 662.612 107.037C662.26 107.236 661.962 107.517 661.718 107.881C661.473 108.239 661.314 108.659 661.24 109.142L659.911 117H656.289ZM677.674 117L679.855 103.909H683.486L681.304 117H677.674ZM682.046 102.205C681.506 102.205 681.06 102.026 680.708 101.668C680.361 101.304 680.219 100.872 680.282 100.372C680.344 99.8608 680.588 99.429 681.015 99.0767C681.441 98.7187 681.924 98.5398 682.463 98.5398C683.003 98.5398 683.444 98.7187 683.784 99.0767C684.125 99.429 684.267 99.8608 684.211 100.372C684.154 100.872 683.912 101.304 683.486 101.668C683.066 102.026 682.586 102.205 682.046 102.205ZM690.261 99.5455L687.363 117H683.733L686.63 99.5455H690.261ZM691.232 121.909C690.766 121.909 690.34 121.872 689.954 121.798C689.567 121.73 689.249 121.642 688.999 121.534L690.278 118.824C690.681 118.955 691.047 119.023 691.377 119.028C691.712 119.034 692.019 118.949 692.297 118.773C692.576 118.597 692.832 118.307 693.065 117.903L693.388 117.349L690.934 103.909H694.616L695.724 113.54H695.86L700.198 103.909H704.178L696.687 118.415C696.317 119.125 695.88 119.741 695.374 120.264C694.874 120.787 694.28 121.19 693.593 121.474C692.911 121.764 692.124 121.909 691.232 121.909Z" fill="#9A403C"/>
<path d="M249.106 26.9091V56H242.955V32.7472H242.785L236.123 36.9233V31.4688L243.324 26.9091H249.106ZM266.384 56.3977C264.888 56.3883 263.444 56.1373 262.052 55.6449C260.67 55.1525 259.429 54.3523 258.33 53.2443C257.232 52.1364 256.361 50.6686 255.717 48.8409C255.082 47.0133 254.765 44.7689 254.765 42.108C254.775 39.6648 255.054 37.482 255.603 35.5597C256.162 33.6278 256.957 31.9896 257.99 30.6449C259.031 29.3002 260.277 28.2775 261.725 27.5767C263.174 26.8665 264.798 26.5114 266.598 26.5114C268.539 26.5114 270.253 26.8902 271.74 27.6477C273.226 28.3958 274.42 29.4138 275.319 30.7017C276.228 31.9896 276.777 33.4337 276.967 35.0341H270.902C270.665 34.0208 270.168 33.2254 269.41 32.6477C268.652 32.0701 267.715 31.7812 266.598 31.7812C264.704 31.7812 263.264 32.6051 262.279 34.2528C261.304 35.9006 260.807 38.1402 260.788 40.9716H260.987C261.422 40.1098 262.009 39.3759 262.748 38.7699C263.496 38.1544 264.344 37.6856 265.291 37.3636C266.247 37.0322 267.256 36.8665 268.316 36.8665C270.04 36.8665 271.574 37.2737 272.919 38.0881C274.263 38.893 275.324 40.0009 276.1 41.4119C276.877 42.8229 277.265 44.4375 277.265 46.2557C277.265 48.2254 276.806 49.9773 275.887 51.5114C274.978 53.0455 273.705 54.2481 272.066 55.1193C270.437 55.9811 268.544 56.4072 266.384 56.3977ZM266.356 51.5682C267.303 51.5682 268.151 51.3409 268.899 50.8864C269.647 50.4318 270.234 49.8163 270.66 49.0398C271.086 48.2633 271.299 47.392 271.299 46.4261C271.299 45.4602 271.086 44.5937 270.66 43.8267C270.243 43.0597 269.666 42.4489 268.927 41.9943C268.188 41.5398 267.346 41.3125 266.399 41.3125C265.688 41.3125 265.03 41.4451 264.424 41.7102C263.828 41.9754 263.302 42.3447 262.848 42.8182C262.402 43.2917 262.052 43.8409 261.796 44.4659C261.541 45.0814 261.413 45.7396 261.413 46.4403C261.413 47.3778 261.626 48.2348 262.052 49.0114C262.488 49.7879 263.075 50.4081 263.813 50.8722C264.562 51.3362 265.409 51.5682 266.356 51.5682ZM293.093 51.6364V50.4091C293.093 49.4773 293.29 48.6212 293.684 47.8409C294.085 47.053 294.665 46.4242 295.423 45.9545C296.188 45.4773 297.12 45.2386 298.218 45.2386C299.332 45.2386 300.267 45.4735 301.025 45.9432C301.79 46.4129 302.366 47.0417 302.752 47.8295C303.146 48.6098 303.343 49.4697 303.343 50.4091V51.6364C303.343 52.5682 303.146 53.428 302.752 54.2159C302.358 54.9962 301.779 55.6212 301.013 56.0909C300.248 56.5682 299.316 56.8068 298.218 56.8068C297.104 56.8068 296.169 56.5682 295.411 56.0909C294.654 55.6212 294.078 54.9962 293.684 54.2159C293.29 53.428 293.093 52.5682 293.093 51.6364ZM296.4 50.4091V51.6364C296.4 52.1742 296.529 52.6818 296.786 53.1591C297.051 53.6364 297.529 53.875 298.218 53.875C298.907 53.875 299.377 53.6402 299.627 53.1705C299.885 52.7008 300.013 52.1894 300.013 51.6364V50.4091C300.013 49.8561 299.892 49.3409 299.65 48.8636C299.407 48.3864 298.93 48.1477 298.218 48.1477C297.536 48.1477 297.063 48.3864 296.798 48.8636C296.532 49.3409 296.4 49.8561 296.4 50.4091ZM281.15 38.3182V37.0909C281.15 36.1515 281.351 35.2917 281.752 34.5114C282.154 33.7235 282.733 33.0947 283.491 32.625C284.256 32.1553 285.18 31.9205 286.263 31.9205C287.385 31.9205 288.324 32.1553 289.082 32.625C289.839 33.0947 290.415 33.7235 290.809 34.5114C291.203 35.2917 291.4 36.1515 291.4 37.0909V38.3182C291.4 39.2576 291.199 40.1174 290.798 40.8977C290.404 41.678 289.824 42.303 289.059 42.7727C288.301 43.2348 287.37 43.4659 286.263 43.4659C285.157 43.4659 284.222 43.2311 283.457 42.7614C282.699 42.2841 282.123 41.6591 281.729 40.8864C281.343 40.1061 281.15 39.25 281.15 38.3182ZM284.479 37.0909V38.3182C284.479 38.8712 284.608 39.3826 284.866 39.8523C285.131 40.322 285.597 40.5568 286.263 40.5568C286.96 40.5568 287.434 40.322 287.684 39.8523C287.941 39.3826 288.07 38.8712 288.07 38.3182V37.0909C288.07 36.5379 287.949 36.0227 287.707 35.5455C287.464 35.0682 286.983 34.8295 286.263 34.8295C285.589 34.8295 285.123 35.072 284.866 35.5568C284.608 36.0417 284.479 36.553 284.479 37.0909ZM282.65 56L298.65 32.7273H301.627L285.627 56H282.65Z" fill="#6B889A"/>
<path d="M592.265 56V51.5682L602.62 41.9801C603.501 41.1278 604.24 40.3608 604.836 39.679C605.442 38.9972 605.902 38.3295 606.214 37.6761C606.527 37.0133 606.683 36.2983 606.683 35.5312C606.683 34.679 606.489 33.9451 606.1 33.3295C605.712 32.7045 605.182 32.2263 604.51 31.8949C603.837 31.554 603.075 31.3835 602.223 31.3835C601.332 31.3835 600.556 31.5634 599.893 31.9233C599.23 32.2831 598.719 32.7992 598.359 33.4716C597.999 34.1439 597.819 34.9441 597.819 35.8722H591.981C591.981 33.9687 592.412 32.3163 593.274 30.9148C594.135 29.5133 595.343 28.429 596.896 27.6619C598.449 26.8949 600.239 26.5114 602.265 26.5114C604.349 26.5114 606.162 26.8807 607.706 27.6193C609.259 28.3485 610.466 29.3617 611.328 30.6591C612.189 31.9564 612.62 33.4432 612.62 35.1193C612.62 36.2178 612.402 37.3021 611.967 38.3722C611.541 39.4422 610.778 40.6307 609.68 41.9375C608.581 43.2348 607.033 44.7926 605.035 46.6108L600.788 50.7727V50.9716H613.004V56H592.265ZM627.285 56.3977C625.278 56.3977 623.488 56.0284 621.916 55.2898C620.354 54.5511 619.113 53.5331 618.195 52.2358C617.276 50.9384 616.798 49.4517 616.76 47.7756H622.726C622.792 48.9025 623.266 49.8163 624.146 50.517C625.027 51.2178 626.073 51.5682 627.285 51.5682C628.251 51.5682 629.104 51.3551 629.842 50.929C630.59 50.4934 631.173 49.892 631.589 49.125C632.016 48.3485 632.229 47.4583 632.229 46.4545C632.229 45.4318 632.011 44.5322 631.575 43.7557C631.149 42.9792 630.557 42.3731 629.8 41.9375C629.042 41.5019 628.176 41.2794 627.2 41.2699C626.348 41.2699 625.519 41.4451 624.714 41.7955C623.919 42.1458 623.299 42.6241 622.854 43.2301L617.385 42.25L618.763 26.9091H636.547V31.9375H623.834L623.081 39.2244H623.251C623.763 38.5047 624.535 37.9081 625.567 37.4347C626.599 36.9612 627.754 36.7244 629.033 36.7244C630.785 36.7244 632.347 37.1364 633.72 37.9602C635.093 38.7841 636.178 39.9157 636.973 41.3551C637.768 42.785 638.161 44.4328 638.152 46.2983C638.161 48.2585 637.707 50.0009 636.788 51.5256C635.879 53.0407 634.606 54.2339 632.967 55.1051C631.339 55.9669 629.445 56.3977 627.285 56.3977ZM653.909 51.6364V50.4091C653.909 49.4773 654.106 48.6212 654.5 47.8409C654.901 47.053 655.481 46.4242 656.238 45.9545C657.003 45.4773 657.935 45.2386 659.034 45.2386C660.147 45.2386 661.083 45.4735 661.841 45.9432C662.606 46.4129 663.182 47.0417 663.568 47.8295C663.962 48.6098 664.159 49.4697 664.159 50.4091V51.6364C664.159 52.5682 663.962 53.428 663.568 54.2159C663.174 54.9962 662.594 55.6212 661.829 56.0909C661.064 56.5682 660.132 56.8068 659.034 56.8068C657.92 56.8068 656.985 56.5682 656.227 56.0909C655.469 55.6212 654.894 54.9962 654.5 54.2159C654.106 53.428 653.909 52.5682 653.909 51.6364ZM657.216 50.4091V51.6364C657.216 52.1742 657.344 52.6818 657.602 53.1591C657.867 53.6364 658.344 53.875 659.034 53.875C659.723 53.875 660.193 53.6402 660.443 53.1705C660.7 52.7008 660.829 52.1894 660.829 51.6364V50.4091C660.829 49.8561 660.708 49.3409 660.466 48.8636C660.223 48.3864 659.746 48.1477 659.034 48.1477C658.352 48.1477 657.878 48.3864 657.613 48.8636C657.348 49.3409 657.216 49.8561 657.216 50.4091ZM641.966 38.3182V37.0909C641.966 36.1515 642.166 35.2917 642.568 34.5114C642.969 33.7235 643.549 33.0947 644.307 32.625C645.072 32.1553 645.996 31.9205 647.079 31.9205C648.2 31.9205 649.14 32.1553 649.897 32.625C650.655 33.0947 651.231 33.7235 651.625 34.5114C652.019 35.2917 652.216 36.1515 652.216 37.0909V38.3182C652.216 39.2576 652.015 40.1174 651.613 40.8977C651.219 41.678 650.64 42.303 649.875 42.7727C649.117 43.2348 648.185 43.4659 647.079 43.4659C645.973 43.4659 645.038 43.2311 644.272 42.7614C643.515 42.2841 642.939 41.6591 642.545 40.8864C642.159 40.1061 641.966 39.25 641.966 38.3182ZM645.295 37.0909V38.3182C645.295 38.8712 645.424 39.3826 645.682 39.8523C645.947 40.322 646.413 40.5568 647.079 40.5568C647.776 40.5568 648.25 40.322 648.5 39.8523C648.757 39.3826 648.886 38.8712 648.886 38.3182V37.0909C648.886 36.5379 648.765 36.0227 648.522 35.5455C648.28 35.0682 647.799 34.8295 647.079 34.8295C646.405 34.8295 645.939 35.072 645.682 35.5568C645.424 36.0417 645.295 36.553 645.295 37.0909ZM643.466 56L659.466 32.7273H662.443L646.443 56H643.466ZM673.164 56L675.346 42.9091H677.289L676.948 44.9545H677.118C677.51 44.2557 678.042 43.7131 678.712 43.3267C679.388 42.9347 680.152 42.7386 681.005 42.7386C681.857 42.7386 682.542 42.9347 683.059 43.3267C683.576 43.7131 683.937 44.2557 684.141 44.9545H684.277C684.721 44.2727 685.312 43.733 686.05 43.3352C686.794 42.9375 687.635 42.7386 688.573 42.7386C689.732 42.7386 690.624 43.1051 691.249 43.8381C691.88 44.571 692.067 45.7045 691.812 47.2386L690.346 56H688.334L689.8 47.2386C689.954 46.267 689.8 45.5767 689.34 45.1676C688.885 44.7528 688.3 44.5455 687.584 44.5455C686.664 44.5455 685.905 44.821 685.309 45.3722C684.712 45.9233 684.346 46.625 684.209 47.4773L682.777 56H680.732L682.232 47.0341C682.351 46.2841 682.209 45.6818 681.806 45.2273C681.402 44.7727 680.817 44.5455 680.05 44.5455C679.527 44.5455 679.016 44.6875 678.516 44.9716C678.016 45.25 677.587 45.6364 677.229 46.1307C676.871 46.6193 676.641 47.1818 676.539 47.8182L675.175 56H673.164ZM698.947 56.2727C697.742 56.2727 696.734 55.9858 695.921 55.4119C695.109 54.8381 694.535 54.0341 694.199 53C693.87 51.9659 693.816 50.7614 694.037 49.3864C694.253 48.0455 694.682 46.8778 695.324 45.8835C695.972 44.8835 696.776 44.1108 697.736 43.5653C698.702 43.0142 699.765 42.7386 700.924 42.7386C702.128 42.7386 703.134 43.0284 703.941 43.608C704.753 44.1818 705.327 44.9886 705.662 46.0284C705.998 47.0625 706.055 48.2727 705.833 49.6591C705.617 50.9886 705.182 52.1506 704.529 53.1449C703.881 54.1335 703.077 54.9034 702.117 55.4545C701.162 56 700.106 56.2727 698.947 56.2727ZM698.981 54.4659C699.901 54.4659 700.699 54.2301 701.376 53.7585C702.057 53.2869 702.609 52.6648 703.029 51.892C703.455 51.1193 703.742 50.2841 703.89 49.3864C704.026 48.5341 704.02 47.7415 703.873 47.0085C703.725 46.2699 703.41 45.6761 702.927 45.2273C702.444 44.7727 701.765 44.5455 700.89 44.5455C699.969 44.5455 699.165 44.7841 698.478 45.2614C697.796 45.7386 697.245 46.3665 696.824 47.1449C696.404 47.9233 696.123 48.7614 695.981 49.6591C695.844 50.5114 695.847 51.304 695.989 52.0369C696.137 52.7642 696.452 53.3523 696.935 53.8011C697.424 54.2443 698.106 54.4659 698.981 54.4659ZM707.383 56L709.565 42.9091H711.508L711.168 44.8864H711.304C711.645 44.2386 712.165 43.7131 712.864 43.3097C713.562 42.9062 714.304 42.7045 715.088 42.7045C715.241 42.7045 715.426 42.7074 715.642 42.7131C715.858 42.7131 716.026 42.7216 716.145 42.7386L715.804 44.7841C715.736 44.767 715.582 44.7415 715.344 44.7074C715.105 44.6676 714.849 44.6477 714.577 44.6477C713.94 44.6477 713.352 44.7812 712.812 45.0483C712.273 45.3097 711.821 45.6733 711.457 46.1392C711.094 46.5994 710.861 47.125 710.758 47.7159L709.395 56H707.383ZM720.936 56.2727C719.68 56.2727 718.644 55.9943 717.825 55.4375C717.007 54.875 716.436 54.0909 716.112 53.0852C715.788 52.0739 715.737 50.8977 715.959 49.5568C716.18 48.2159 716.621 47.0341 717.28 46.0114C717.939 44.983 718.76 44.1818 719.743 43.608C720.726 43.0284 721.805 42.7386 722.982 42.7386C723.663 42.7386 724.32 42.8523 724.95 43.0795C725.581 43.3068 726.126 43.6761 726.587 44.1875C727.047 44.6932 727.368 45.3636 727.55 46.1989C727.732 47.0341 727.72 48.0625 727.516 49.2841L727.379 50.1364H717.288L717.561 48.3977H725.607C725.737 47.6591 725.703 47 725.504 46.4205C725.311 45.8409 724.973 45.3835 724.49 45.0483C724.013 44.7131 723.408 44.5455 722.675 44.5455C721.919 44.5455 721.215 44.75 720.561 45.1591C719.908 45.5625 719.362 46.0739 718.925 46.6932C718.487 47.3068 718.215 47.9318 718.107 48.5682L717.868 50.0682C717.698 51.1534 717.723 52.017 717.945 52.6591C718.172 53.3011 718.567 53.7642 719.129 54.0483C719.692 54.3267 720.396 54.4659 721.243 54.4659C721.783 54.4659 722.28 54.392 722.734 54.2443C723.189 54.0909 723.595 53.8636 723.953 53.5625C724.311 53.2557 724.612 52.875 724.857 52.4205L726.698 52.9659C726.385 53.625 725.945 54.2045 725.376 54.7045C724.814 55.1989 724.155 55.5852 723.399 55.8636C722.649 56.1364 721.828 56.2727 720.936 56.2727Z" fill="#9A403C"/>
</g>
<defs>
<clipPath id="clip0_2019_747">
<rect width="851" height="143" fill="white"/>
</clipPath>
</defs>
</svg>
