<svg width="810" height="152" viewBox="0 0 810 152" fill="none" xmlns="http://www.w3.org/2000/svg">
<path d="M0 0H809.492V152H0V0Z" fill="#D9D9D9"/>
<path fill-rule="evenodd" clip-rule="evenodd" d="M477.291 56.5105C476.927 56.5105 476.927 55.8406 476.927 55.8406V40.1486C476.927 37.6974 474.834 35.5852 472.717 35.5852H435.63C433.174 35.5852 431.452 37.6974 431.452 40.1486V110.207C431.452 113.044 433.182 114.77 435.63 114.77H507.015C509.472 114.77 511.226 113.044 511.226 110.207V56.1716L477.291 56.5026V56.5105ZM438.782 51.2772C438.782 50.6073 439.477 50.2762 440.172 50.2762H449.288C449.62 50.2762 450.323 50.6073 450.323 51.2772V56.8415C450.323 57.5666 449.628 57.8976 449.288 57.8976H440.172C439.477 57.8976 438.782 57.5666 438.782 56.8415V51.2772ZM438.782 77.4279V71.8636C438.782 71.5326 439.477 70.8075 440.172 70.8075H449.288C449.62 70.8075 450.323 71.5326 450.323 71.8636V77.4279C450.323 78.153 449.628 78.8229 449.288 78.8229H440.172C439.477 78.8229 438.782 78.153 438.782 77.4279ZM460.142 107.086C460.142 107.811 459.778 108.142 459.083 108.142H448.933C448.569 108.142 447.874 107.811 447.874 107.086V90.0067C447.874 89.2816 448.577 88.9506 448.933 88.9506H459.083C459.778 88.9506 460.142 89.2816 460.142 90.0067V107.086ZM469.233 77.4279C469.233 78.153 468.87 78.8229 468.167 78.8229H459.083C458.38 78.8229 458.048 78.153 458.048 77.4279V71.8636C458.048 71.5326 458.38 70.8075 459.083 70.8075H468.167C468.87 70.8075 469.233 71.5326 469.233 71.8636V77.4279ZM469.233 56.8415C469.233 57.5666 468.87 57.8976 468.167 57.8976H459.083C458.38 57.8976 458.048 57.5666 458.048 56.8415V51.2772C458.048 50.6073 458.38 50.2762 459.083 50.2762H468.167C468.87 50.2762 469.233 50.6073 469.233 51.2772V56.8415ZM489.171 95.571C489.171 96.2961 488.468 96.9582 488.136 96.9582H479.021C478.318 96.9582 477.986 96.2882 477.986 95.571V90.0067C477.986 89.2816 478.318 88.9506 479.021 88.9506H488.136C488.468 88.9506 489.171 89.2816 489.171 90.0067V95.571ZM489.171 74.9846C489.171 75.7097 488.468 76.0408 488.136 76.0408H479.021C478.318 76.0408 477.986 75.7097 477.986 74.9846V69.4203C477.986 68.6952 478.318 68.0253 479.021 68.0253H488.136C488.468 68.0253 489.171 68.6952 489.171 69.4203V74.9846ZM505.625 95.571C505.625 96.2961 505.293 96.9582 504.59 96.9582H495.475C494.779 96.9582 494.44 96.2882 494.44 95.571V90.0067C494.44 89.2816 494.772 88.9506 495.475 88.9506H504.59C505.285 88.9506 505.625 89.2816 505.625 90.0067V95.571ZM505.625 74.9846C505.625 75.7097 505.293 76.0408 504.59 76.0408H495.475C494.779 76.0408 494.44 75.7097 494.44 74.9846V69.4203C494.44 68.6952 494.772 68.0253 495.475 68.0253H504.59C505.285 68.0253 505.625 68.6952 505.625 69.4203V74.9846Z" fill="#9A403C"/>
<path d="M51.9565 75.6779V106.523C52.2815 107.859 52.9543 108.557 53.6572 108.879C54.3073 109.255 54.98 109.255 55.683 109.255H69.8707C70.2486 109.255 70.5736 109.255 71.2463 108.879C71.5714 108.557 71.5714 107.859 71.5714 107.536V92.7551H85.812V107.536C85.812 107.859 85.812 108.557 86.1597 108.879C86.4847 109.255 87.1574 109.255 87.5127 109.255H101.723C102.396 109.255 103.076 109.255 103.749 108.879C104.422 108.557 105.102 107.859 105.102 106.523V75.6779L78.6917 51.8479L51.9641 75.6779H51.9565ZM52.9543 33L74.6402 34.0204L51.6088 54.8492L52.9543 33ZM115.586 67.2744L82.0855 37.0742C80.0598 35.416 77.3387 35.416 75.3129 37.0742L41.7901 67.2744C39.7643 69.3078 39.7643 72.309 41.4348 74.3424C42.4628 75.3628 43.8082 76.0006 45.1612 76.0006C46.1892 76.0006 47.5347 75.3628 48.5627 74.665L78.6917 47.4586L108.851 74.665C110.877 76.3307 113.893 76.3307 115.941 74.3424C117.642 72.309 117.642 69.3078 115.593 67.2744H115.586Z" fill="#6B889A"/>
<path d="M147.676 70.6165C147.705 69.9062 147.497 69.358 147.054 68.9716C146.617 68.5852 145.955 68.392 145.068 68.392C144.466 68.392 143.943 68.4773 143.5 68.6477C143.057 68.8125 142.702 69.0426 142.435 69.3381C142.173 69.6278 142.011 69.9631 141.949 70.3438C141.886 70.6562 141.906 70.929 142.009 71.1619C142.117 71.3949 142.284 71.5966 142.511 71.767C142.744 71.9318 143.02 72.0767 143.338 72.2017C143.656 72.321 143.994 72.4233 144.352 72.5085L145.852 72.8835C146.585 73.054 147.244 73.2812 147.83 73.5653C148.421 73.8494 148.915 74.1989 149.313 74.6136C149.716 75.0284 150 75.517 150.165 76.0795C150.33 76.642 150.352 77.2869 150.233 78.0142C150.051 79.0824 149.628 80.0085 148.963 80.7926C148.298 81.571 147.426 82.1761 146.347 82.608C145.267 83.0341 144.017 83.2472 142.597 83.2472C141.188 83.2472 139.997 83.0312 139.026 82.5994C138.054 82.1676 137.347 81.5284 136.903 80.6818C136.466 79.8295 136.335 78.7756 136.511 77.5199H140.082C140.02 78.1051 140.105 78.5937 140.338 78.9858C140.577 79.3722 140.932 79.6648 141.403 79.8636C141.875 80.0568 142.429 80.1534 143.065 80.1534C143.696 80.1534 144.256 80.0625 144.744 79.8807C145.239 79.6989 145.639 79.446 145.946 79.1222C146.253 78.7983 146.44 78.4261 146.509 78.0057C146.577 77.6136 146.517 77.2841 146.33 77.017C146.142 76.75 145.841 76.5227 145.426 76.3352C145.017 76.142 144.509 75.9716 143.901 75.8239L142.077 75.3466C140.668 74.9886 139.602 74.429 138.881 73.6676C138.159 72.9062 137.901 71.8807 138.105 70.5909C138.287 69.5341 138.727 68.6108 139.426 67.821C140.131 67.0256 141.017 66.4091 142.085 65.9716C143.159 65.5284 144.332 65.3068 145.605 65.3068C146.901 65.3068 147.994 65.5312 148.886 65.9801C149.778 66.4233 150.429 67.0426 150.838 67.8381C151.247 68.6335 151.372 69.5597 151.213 70.6165H147.676ZM151.34 83L153.522 69.9091H157.153L154.971 83H151.34ZM155.713 68.2045C155.173 68.2045 154.727 68.0256 154.374 67.6676C154.028 67.304 153.886 66.8722 153.948 66.3722C154.011 65.8608 154.255 65.429 154.681 65.0767C155.107 64.7187 155.59 64.5398 156.13 64.5398C156.67 64.5398 157.11 64.7187 157.451 65.0767C157.792 65.429 157.934 65.8608 157.877 66.3722C157.82 66.8722 157.579 67.304 157.153 67.6676C156.732 68.0256 156.252 68.2045 155.713 68.2045ZM162.309 75.4318L161.047 83H157.425L159.607 69.9091H163.059L162.684 72.2188H162.828C163.243 71.4517 163.828 70.8466 164.584 70.4034C165.345 69.9602 166.212 69.7386 167.184 69.7386C168.093 69.7386 168.851 69.9375 169.459 70.3352C170.073 70.733 170.505 71.2983 170.755 72.0312C171.01 72.7642 171.053 73.642 170.882 74.6648L169.485 83H165.854L167.141 75.3125C167.272 74.5114 167.169 73.8864 166.834 73.4375C166.505 72.983 165.973 72.7557 165.24 72.7557C164.752 72.7557 164.303 72.8608 163.894 73.071C163.485 73.2812 163.141 73.5881 162.863 73.9915C162.59 74.3892 162.405 74.8693 162.309 75.4318ZM176.929 88.1818C175.747 88.1818 174.761 88.0199 173.971 87.696C173.187 87.3778 172.591 86.9432 172.182 86.392C171.778 85.8409 171.557 85.2216 171.517 84.5341L174.96 84.0824C175.022 84.3494 175.142 84.5966 175.318 84.8239C175.5 85.0511 175.758 85.233 176.093 85.3693C176.434 85.5057 176.875 85.5739 177.414 85.5739C178.204 85.5739 178.892 85.3807 179.477 84.9943C180.062 84.6136 180.423 83.9744 180.559 83.0767L180.951 80.6818H180.798C180.582 81.0455 180.287 81.3892 179.912 81.7131C179.542 82.0369 179.091 82.3011 178.557 82.5057C178.028 82.7102 177.417 82.8125 176.724 82.8125C175.735 82.8125 174.878 82.5852 174.15 82.1307C173.429 81.6705 172.906 80.9687 172.582 80.0256C172.264 79.0767 172.224 77.8778 172.463 76.429C172.713 74.946 173.162 73.7074 173.809 72.7131C174.457 71.7187 175.224 70.9744 176.11 70.4801C176.997 69.9858 177.92 69.7386 178.88 69.7386C179.613 69.7386 180.204 69.8636 180.653 70.1136C181.108 70.358 181.457 70.6648 181.701 71.0341C181.946 71.3977 182.119 71.7557 182.221 72.108H182.366L182.724 69.9091H186.329L184.13 83.1278C183.954 84.2472 183.531 85.179 182.86 85.9233C182.196 86.6733 181.352 87.2358 180.329 87.6108C179.307 87.9915 178.173 88.1818 176.929 88.1818ZM178.292 80.0852C178.872 80.0852 179.392 79.9403 179.852 79.6506C180.318 79.3551 180.707 78.9347 181.02 78.3892C181.332 77.8381 181.551 77.179 181.676 76.4119C181.801 75.6449 181.798 74.9801 181.667 74.4176C181.542 73.8494 181.298 73.4091 180.934 73.0966C180.576 72.7841 180.105 72.6278 179.52 72.6278C178.917 72.6278 178.389 72.7898 177.934 73.1136C177.48 73.4318 177.102 73.875 176.801 74.4432C176.505 75.0114 176.298 75.6676 176.179 76.4119C176.054 77.1676 176.048 77.821 176.162 78.3722C176.281 78.9176 176.517 79.3409 176.869 79.642C177.221 79.9375 177.696 80.0852 178.292 80.0852ZM193.085 65.5455L190.187 83H186.557L189.454 65.5455H193.085ZM198.548 83.2557C197.207 83.2557 196.096 82.983 195.215 82.4375C194.334 81.8864 193.715 81.108 193.357 80.1023C193.005 79.0909 192.945 77.8949 193.178 76.5142C193.405 75.1676 193.863 73.9858 194.55 72.9688C195.244 71.9517 196.113 71.1591 197.158 70.5909C198.204 70.0227 199.369 69.7386 200.653 69.7386C201.516 69.7386 202.298 69.8778 202.996 70.1562C203.701 70.429 204.286 70.8437 204.752 71.4006C205.218 71.9517 205.536 72.642 205.707 73.4716C205.883 74.3011 205.88 75.2727 205.698 76.3864L205.536 77.3835H194.491L194.84 75.1335H202.476C202.562 74.6108 202.528 74.1477 202.374 73.7443C202.221 73.3409 201.965 73.0256 201.607 72.7983C201.249 72.5653 200.809 72.4489 200.286 72.4489C199.752 72.4489 199.252 72.5795 198.786 72.8409C198.32 73.1023 197.928 73.446 197.61 73.8722C197.298 74.2926 197.096 74.75 197.005 75.2443L196.604 77.4773C196.491 78.1648 196.513 78.7358 196.673 79.1903C196.837 79.6449 197.121 79.9858 197.525 80.2131C197.928 80.4347 198.44 80.5455 199.059 80.5455C199.462 80.5455 199.84 80.4886 200.192 80.375C200.55 80.2614 200.869 80.0938 201.147 79.8722C201.425 79.6449 201.653 79.3636 201.829 79.0284L205.144 79.25C204.837 80.0568 204.371 80.7614 203.746 81.3636C203.121 81.9602 202.369 82.4261 201.488 82.7614C200.613 83.0909 199.633 83.2557 198.548 83.2557ZM216.091 74.392L215.622 77.2727H207.653L208.122 74.392H216.091ZM226.503 69.9091L226.051 72.6364H217.972L218.423 69.9091H226.503ZM218.083 83L220.426 68.9631C220.58 68.0142 220.892 67.2273 221.364 66.6023C221.841 65.9773 222.429 65.5085 223.128 65.196C223.833 64.8835 224.594 64.7273 225.412 64.7273C225.969 64.7273 226.472 64.7699 226.921 64.8551C227.375 64.9403 227.705 65.017 227.909 65.0852L226.827 67.8125C226.69 67.767 226.523 67.7244 226.324 67.6847C226.125 67.6449 225.915 67.625 225.693 67.625C225.165 67.625 224.776 67.75 224.526 68C224.281 68.2443 224.117 68.5881 224.031 69.0312L221.705 83H218.083ZM229.281 83.2472C228.451 83.2472 227.733 83.1023 227.125 82.8125C226.522 82.517 226.079 82.0795 225.795 81.5C225.511 80.9205 225.44 80.2017 225.582 79.3438C225.707 78.6165 225.943 78.0085 226.289 77.5199C226.642 77.0256 227.071 76.6278 227.576 76.3267C228.082 76.0256 228.642 75.7955 229.255 75.6364C229.875 75.4773 230.514 75.3693 231.173 75.3125C231.934 75.233 232.554 75.1562 233.031 75.0824C233.514 75.0085 233.875 74.9034 234.113 74.767C234.352 74.625 234.497 74.4148 234.548 74.1364V74.0852C234.633 73.5511 234.534 73.1364 234.25 72.8409C233.971 72.5398 233.525 72.3892 232.911 72.3892C232.264 72.3892 231.713 72.5312 231.258 72.8153C230.809 73.0994 230.488 73.4602 230.295 73.8977L226.988 73.625C227.284 72.8295 227.73 72.142 228.326 71.5625C228.929 70.9773 229.653 70.5284 230.5 70.2159C231.346 69.8977 232.295 69.7386 233.346 69.7386C234.073 69.7386 234.752 69.8239 235.383 69.9943C236.019 70.1648 236.568 70.429 237.028 70.7869C237.494 71.1449 237.829 71.6051 238.034 72.1676C238.244 72.7244 238.286 73.392 238.161 74.1705L236.687 83H233.244L233.551 81.1847H233.448C233.17 81.5938 232.829 81.9545 232.426 82.267C232.022 82.5739 231.559 82.8153 231.036 82.9915C230.514 83.1619 229.929 83.2472 229.281 83.2472ZM230.738 80.7415C231.267 80.7415 231.752 80.6364 232.196 80.4261C232.644 80.2102 233.014 79.9205 233.304 79.5568C233.599 79.1932 233.786 78.7812 233.866 78.321L234.088 76.9318C233.974 77.0057 233.809 77.071 233.593 77.1278C233.383 77.1847 233.153 77.2386 232.903 77.2898C232.659 77.3352 232.411 77.3778 232.161 77.4176C231.911 77.4517 231.687 77.4858 231.488 77.5199C231.051 77.5824 230.659 77.6818 230.312 77.8182C229.965 77.9545 229.684 78.1392 229.468 78.3722C229.252 78.5994 229.119 78.8835 229.068 79.2244C228.988 79.7188 229.105 80.0966 229.417 80.358C229.735 80.6136 230.176 80.7415 230.738 80.7415ZM239.049 83L241.231 69.9091H244.683L244.308 72.2188H244.453C244.851 71.4517 245.404 70.8466 246.115 70.4034C246.831 69.9602 247.635 69.7386 248.527 69.7386C249.413 69.7386 250.135 69.9631 250.691 70.4119C251.254 70.8551 251.578 71.4574 251.663 72.2188H251.799C252.186 71.4688 252.768 70.8693 253.547 70.4205C254.325 69.9659 255.194 69.7386 256.154 69.7386C257.365 69.7386 258.291 70.1278 258.933 70.9062C259.575 71.6847 259.777 72.7812 259.538 74.196L258.072 83H254.441L255.805 74.9119C255.913 74.179 255.805 73.6335 255.481 73.2756C255.157 72.9119 254.706 72.7301 254.126 72.7301C253.467 72.7301 252.919 72.9403 252.481 73.3608C252.044 73.7756 251.774 74.3239 251.672 75.0057L250.316 83H246.797L248.177 74.8352C248.274 74.1875 248.169 73.6761 247.862 73.3011C247.561 72.9205 247.109 72.7301 246.507 72.7301C246.109 72.7301 245.731 72.8324 245.373 73.0369C245.021 73.2358 244.723 73.517 244.478 73.8807C244.234 74.2386 244.075 74.6591 244.001 75.142L242.672 83H239.049ZM260.434 83L262.616 69.9091H266.247L264.065 83H260.434ZM264.807 68.2045C264.267 68.2045 263.821 68.0256 263.469 67.6676C263.122 67.304 262.98 66.8722 263.042 66.3722C263.105 65.8608 263.349 65.429 263.775 65.0767C264.201 64.7187 264.684 64.5398 265.224 64.5398C265.764 64.5398 266.204 64.7187 266.545 65.0767C266.886 65.429 267.028 65.8608 266.971 66.3722C266.915 66.8722 266.673 67.304 266.247 67.6676C265.826 68.0256 265.346 68.2045 264.807 68.2045ZM273.022 65.5455L270.124 83H266.493L269.391 65.5455H273.022ZM273.993 87.9091C273.527 87.9091 273.101 87.8722 272.714 87.7983C272.328 87.7301 272.01 87.642 271.76 87.5341L273.038 84.8239C273.442 84.9545 273.808 85.0227 274.138 85.0284C274.473 85.0341 274.78 84.9489 275.058 84.7727C275.337 84.5966 275.592 84.3068 275.825 83.9034L276.149 83.3494L273.695 69.9091H277.376L278.484 79.5398H278.621L282.959 69.9091H286.939L279.447 84.4148C279.078 85.125 278.641 85.7415 278.135 86.2642C277.635 86.7869 277.041 87.1903 276.354 87.4744C275.672 87.7642 274.885 87.9091 273.993 87.9091Z" fill="#6B889A"/>
<path d="M291.227 83L291.5 81.4659L300.5 71.9205L300.534 71.7841H293.34L293.647 69.9091H303.431L303.159 71.5114L294.363 80.9886L294.329 81.125H301.795L301.488 83H291.227ZM309.135 83.2727C307.93 83.2727 306.922 82.9858 306.109 82.4119C305.297 81.8381 304.723 81.0341 304.387 80C304.058 78.9659 304.004 77.7614 304.225 76.3864C304.441 75.0455 304.87 73.8778 305.512 72.8835C306.16 71.8835 306.964 71.1108 307.924 70.5653C308.89 70.0142 309.953 69.7386 311.112 69.7386C312.316 69.7386 313.322 70.0284 314.129 70.608C314.941 71.1818 315.515 71.9886 315.85 73.0284C316.186 74.0625 316.243 75.2727 316.021 76.6591C315.805 77.9886 315.37 79.1506 314.717 80.1449C314.069 81.1335 313.265 81.9034 312.305 82.4545C311.35 83 310.294 83.2727 309.135 83.2727ZM309.169 81.4659C310.089 81.4659 310.887 81.2301 311.564 80.7585C312.245 80.2869 312.797 79.6648 313.217 78.892C313.643 78.1193 313.93 77.2841 314.078 76.3864C314.214 75.5341 314.208 74.7415 314.061 74.0085C313.913 73.2699 313.598 72.6761 313.115 72.2273C312.632 71.7727 311.953 71.5455 311.078 71.5455C310.157 71.5455 309.353 71.7841 308.666 72.2614C307.984 72.7386 307.433 73.3665 307.012 74.1449C306.592 74.9233 306.311 75.7614 306.169 76.6591C306.032 77.5114 306.035 78.304 306.177 79.0369C306.325 79.7642 306.64 80.3523 307.123 80.8011C307.612 81.2443 308.294 81.4659 309.169 81.4659ZM320.878 75.125L319.583 83H317.571L319.753 69.9091H321.696L321.356 71.9545H321.526C321.935 71.2898 322.489 70.7557 323.188 70.3523C323.887 69.9432 324.731 69.7386 325.719 69.7386C326.594 69.7386 327.333 69.9205 327.935 70.2841C328.543 70.642 328.972 71.1875 329.222 71.9205C329.478 72.6477 329.515 73.5682 329.333 74.6818L327.935 83H325.924L327.287 74.8182C327.458 73.7955 327.324 72.9943 326.887 72.4148C326.455 71.8352 325.77 71.5455 324.833 71.5455C324.185 71.5455 323.586 71.6847 323.035 71.9631C322.489 72.2415 322.026 72.6477 321.645 73.1818C321.27 73.7159 321.015 74.3636 320.878 75.125ZM336.585 83.2727C335.329 83.2727 334.292 82.9943 333.474 82.4375C332.656 81.875 332.085 81.0909 331.761 80.0852C331.437 79.0739 331.386 77.8977 331.608 76.5568C331.829 75.2159 332.27 74.0341 332.929 73.0114C333.588 71.983 334.409 71.1818 335.392 70.608C336.375 70.0284 337.454 69.7386 338.631 69.7386C339.312 69.7386 339.969 69.8523 340.599 70.0795C341.23 70.3068 341.775 70.6761 342.236 71.1875C342.696 71.6932 343.017 72.3636 343.199 73.1989C343.381 74.0341 343.369 75.0625 343.165 76.2841L343.028 77.1364H332.937L333.21 75.3977H341.256C341.386 74.6591 341.352 74 341.153 73.4205C340.96 72.8409 340.622 72.3835 340.139 72.0483C339.662 71.7131 339.057 71.5455 338.324 71.5455C337.568 71.5455 336.863 71.75 336.21 72.1591C335.557 72.5625 335.011 73.0739 334.574 73.6932C334.136 74.3068 333.863 74.9318 333.756 75.5682L333.517 77.0682C333.346 78.1534 333.372 79.017 333.594 79.6591C333.821 80.3011 334.216 80.7642 334.778 81.0483C335.341 81.3267 336.045 81.4659 336.892 81.4659C337.432 81.4659 337.929 81.392 338.383 81.2443C338.838 81.0909 339.244 80.8636 339.602 80.5625C339.96 80.2557 340.261 79.875 340.506 79.4205L342.346 79.9659C342.034 80.625 341.594 81.2045 341.025 81.7045C340.463 82.1989 339.804 82.5852 339.048 82.8636C338.298 83.1364 337.477 83.2727 336.585 83.2727ZM355.643 72.8409L353.734 73.3523C353.666 73.0455 353.547 72.75 353.376 72.4659C353.212 72.1761 352.956 71.9403 352.609 71.7585C352.268 71.571 351.803 71.4773 351.212 71.4773C350.41 71.4773 349.714 71.6619 349.124 72.0312C348.533 72.3949 348.195 72.858 348.109 73.4205C348.024 73.9148 348.138 74.3097 348.45 74.6051C348.763 74.9006 349.285 75.142 350.018 75.3295L351.893 75.8068C353.018 76.0966 353.82 76.5312 354.297 77.1108C354.78 77.6847 354.945 78.4318 354.791 79.3523C354.666 80.1023 354.339 80.7727 353.811 81.3636C353.283 81.9545 352.607 82.4205 351.783 82.7614C350.959 83.1023 350.041 83.2727 349.03 83.2727C347.683 83.2727 346.621 82.983 345.842 82.4034C345.064 81.8182 344.649 80.9716 344.598 79.8636L346.609 79.3864C346.66 80.0852 346.91 80.6136 347.359 80.9716C347.814 81.3239 348.45 81.5 349.268 81.5C350.206 81.5 350.987 81.3011 351.612 80.9034C352.237 80.5 352.592 80.017 352.678 79.4545C352.763 78.9943 352.672 78.6108 352.405 78.304C352.143 77.9972 351.689 77.767 351.041 77.6136L348.962 77.1023C347.803 76.8125 346.99 76.3693 346.524 75.7727C346.064 75.1761 345.91 74.4261 346.064 73.5227C346.189 72.7841 346.507 72.1307 347.018 71.5625C347.535 70.9943 348.183 70.5483 348.962 70.2244C349.746 69.9006 350.598 69.7386 351.518 69.7386C352.814 69.7386 353.783 70.0227 354.425 70.5909C355.067 71.1534 355.473 71.9034 355.643 72.8409ZM141.315 113L139.508 99.9091H141.621L142.78 109.932H142.917L147.383 99.9091H149.53L150.621 109.898H150.758L155.258 99.9091H157.371L151.201 113H149.224L148.03 102.943H147.826L143.292 113H141.315ZM157.369 113L159.55 99.9091H161.562L159.38 113H157.369ZM161.17 97.6932C160.778 97.6932 160.44 97.5597 160.156 97.2926C159.877 97.0256 159.738 96.7045 159.738 96.3295C159.738 95.9545 159.877 95.6335 160.156 95.3665C160.44 95.0994 160.778 94.9659 161.17 94.9659C161.562 94.9659 161.897 95.0994 162.175 95.3665C162.46 95.6335 162.602 95.9545 162.602 96.3295C162.602 96.7045 162.46 97.0256 162.175 97.2926C161.897 97.5597 161.562 97.6932 161.17 97.6932ZM170.459 99.9091L170.186 101.614H163.402L163.675 99.9091H170.459ZM166.164 96.7727H168.175L166.095 109.25C166.004 109.818 166.019 110.244 166.138 110.528C166.263 110.807 166.45 110.994 166.7 111.091C166.956 111.182 167.232 111.227 167.527 111.227C167.749 111.227 167.931 111.216 168.073 111.193C168.215 111.165 168.328 111.142 168.414 111.125L168.55 112.932C168.396 112.983 168.189 113.034 167.928 113.085C167.672 113.142 167.357 113.17 166.982 113.17C166.414 113.17 165.879 113.048 165.379 112.804C164.879 112.56 164.496 112.188 164.229 111.688C163.962 111.188 163.891 110.557 164.016 109.795L166.164 96.7727ZM174.411 105.125L173.115 113H171.104L174.002 95.5455H176.013L174.956 101.955H175.127C175.536 101.273 176.081 100.733 176.763 100.335C177.451 99.9375 178.314 99.7386 179.354 99.7386C180.24 99.7386 180.988 99.9176 181.595 100.276C182.209 100.628 182.641 101.17 182.891 101.903C183.147 102.631 183.184 103.557 183.002 104.682L181.604 113H179.593L180.956 104.818C181.127 103.778 180.988 102.974 180.539 102.406C180.095 101.832 179.405 101.545 178.468 101.545C177.809 101.545 177.195 101.685 176.627 101.963C176.064 102.241 175.587 102.648 175.195 103.182C174.809 103.716 174.547 104.364 174.411 105.125ZM191.346 113L194.244 95.5455H200.346C201.562 95.5455 202.531 95.7557 203.253 96.1761C203.974 96.5909 204.469 97.1506 204.736 97.8551C205.003 98.554 205.062 99.3295 204.915 100.182C204.79 100.932 204.554 101.551 204.207 102.04C203.866 102.528 203.457 102.915 202.98 103.199C202.508 103.483 202.017 103.693 201.505 103.83L201.471 104C201.994 104.034 202.497 104.222 202.98 104.562C203.463 104.903 203.835 105.392 204.096 106.028C204.358 106.665 204.415 107.443 204.267 108.364C204.119 109.239 203.787 110.026 203.27 110.724C202.753 111.423 202.031 111.977 201.105 112.386C200.179 112.795 199.028 113 197.653 113H191.346ZM193.767 111.125H197.96C199.341 111.125 200.366 110.858 201.037 110.324C201.713 109.784 202.119 109.131 202.255 108.364C202.346 107.773 202.281 107.227 202.059 106.727C201.844 106.222 201.483 105.818 200.977 105.517C200.477 105.21 199.846 105.057 199.085 105.057H194.79L193.767 111.125ZM195.096 103.216H199.017C199.653 103.216 200.25 103.091 200.807 102.841C201.363 102.591 201.829 102.239 202.204 101.784C202.579 101.33 202.812 100.795 202.903 100.182C203.04 99.4148 202.886 98.7642 202.443 98.2301C202 97.6903 201.199 97.4205 200.04 97.4205H196.051L195.096 103.216ZM211.112 95.5455L208.214 113H206.203L209.101 95.5455H211.112ZM215.237 113.307C214.407 113.307 213.68 113.151 213.055 112.838C212.43 112.52 211.967 112.062 211.666 111.466C211.364 110.864 211.282 110.136 211.418 109.284C211.549 108.534 211.802 107.926 212.177 107.46C212.552 106.989 213.006 106.619 213.541 106.352C214.08 106.08 214.66 105.878 215.279 105.747C215.904 105.611 216.526 105.506 217.146 105.432C217.952 105.33 218.609 105.25 219.114 105.193C219.62 105.136 220.001 105.043 220.256 104.912C220.512 104.781 220.668 104.557 220.725 104.239V104.17C220.862 103.335 220.751 102.685 220.393 102.219C220.035 101.747 219.396 101.511 218.475 101.511C217.521 101.511 216.722 101.722 216.08 102.142C215.438 102.562 214.964 103.011 214.657 103.489L212.884 102.807C213.35 102.011 213.907 101.392 214.555 100.949C215.202 100.5 215.881 100.187 216.592 100.011C217.302 99.8295 217.987 99.7386 218.646 99.7386C219.066 99.7386 219.541 99.7898 220.069 99.892C220.597 99.9886 221.092 100.19 221.552 100.497C222.018 100.804 222.367 101.267 222.6 101.886C222.839 102.506 222.873 103.335 222.702 104.375L221.271 113H219.259L219.566 111.227H219.464C219.282 111.511 219.004 111.815 218.629 112.139C218.259 112.463 217.791 112.739 217.222 112.966C216.66 113.193 215.998 113.307 215.237 113.307ZM215.816 111.5C216.612 111.5 217.308 111.344 217.904 111.031C218.506 110.719 218.989 110.315 219.353 109.821C219.722 109.327 219.952 108.807 220.043 108.261L220.35 106.42C220.248 106.523 220.046 106.616 219.745 106.702C219.444 106.781 219.103 106.852 218.722 106.915C218.347 106.972 217.981 107.023 217.623 107.068C217.271 107.108 216.987 107.142 216.771 107.17C216.237 107.239 215.728 107.349 215.245 107.503C214.768 107.651 214.364 107.875 214.035 108.176C213.711 108.472 213.509 108.875 213.43 109.386C213.31 110.085 213.478 110.614 213.933 110.972C214.387 111.324 215.015 111.5 215.816 111.5ZM229.746 113.273C228.513 113.273 227.502 112.983 226.712 112.403C225.928 111.824 225.382 111.026 225.075 110.009C224.769 108.991 224.723 107.83 224.939 106.523C225.155 105.193 225.592 104.02 226.252 103.003C226.911 101.98 227.732 101.182 228.715 100.608C229.698 100.028 230.78 99.7386 231.962 99.7386C232.882 99.7386 233.683 99.9091 234.365 100.25C235.047 100.591 235.573 101.068 235.942 101.682C236.311 102.295 236.485 103.011 236.462 103.83H234.45C234.394 103.233 234.138 102.705 233.683 102.244C233.235 101.778 232.57 101.545 231.689 101.545C230.905 101.545 230.183 101.75 229.524 102.159C228.865 102.562 228.311 103.134 227.862 103.872C227.414 104.605 227.11 105.466 226.95 106.455C226.78 107.466 226.794 108.347 226.993 109.097C227.192 109.847 227.553 110.429 228.075 110.844C228.598 111.259 229.257 111.466 230.053 111.466C230.575 111.466 231.064 111.375 231.519 111.193C231.973 111.011 232.377 110.75 232.729 110.409C233.081 110.068 233.36 109.659 233.564 109.182H235.575C235.325 109.955 234.925 110.651 234.374 111.27C233.823 111.884 233.155 112.372 232.371 112.736C231.587 113.094 230.712 113.273 229.746 113.273ZM240.047 108.227L240.422 105.739H240.831L247.547 99.9091H250.036L242.911 106.08H242.74L240.047 108.227ZM237.388 113L240.286 95.5455H242.297L239.399 113H237.388ZM245.706 113L241.684 106.523L243.32 105.125L248.263 113H245.706ZM256.233 113L258.415 99.9091H260.358L260.017 101.886H260.153C260.494 101.239 261.014 100.713 261.713 100.31C262.412 99.9062 263.153 99.7045 263.937 99.7045C264.091 99.7045 264.275 99.7074 264.491 99.7131C264.707 99.7131 264.875 99.7216 264.994 99.7386L264.653 101.784C264.585 101.767 264.432 101.741 264.193 101.707C263.954 101.668 263.699 101.648 263.426 101.648C262.79 101.648 262.201 101.781 261.662 102.048C261.122 102.31 260.67 102.673 260.307 103.139C259.943 103.599 259.71 104.125 259.608 104.716L258.244 113H256.233ZM269.785 113.273C268.53 113.273 267.493 112.994 266.675 112.438C265.856 111.875 265.285 111.091 264.962 110.085C264.638 109.074 264.587 107.898 264.808 106.557C265.03 105.216 265.47 104.034 266.129 103.011C266.788 101.983 267.609 101.182 268.592 100.608C269.575 100.028 270.655 99.7386 271.831 99.7386C272.513 99.7386 273.169 99.8523 273.8 100.08C274.43 100.307 274.976 100.676 275.436 101.188C275.896 101.693 276.217 102.364 276.399 103.199C276.581 104.034 276.57 105.062 276.365 106.284L276.229 107.136H266.138L266.41 105.398H274.456C274.587 104.659 274.552 104 274.354 103.42C274.16 102.841 273.822 102.384 273.339 102.048C272.862 101.713 272.257 101.545 271.524 101.545C270.768 101.545 270.064 101.75 269.41 102.159C268.757 102.562 268.212 103.074 267.774 103.693C267.337 104.307 267.064 104.932 266.956 105.568L266.717 107.068C266.547 108.153 266.572 109.017 266.794 109.659C267.021 110.301 267.416 110.764 267.979 111.048C268.541 111.327 269.246 111.466 270.092 111.466C270.632 111.466 271.129 111.392 271.584 111.244C272.038 111.091 272.445 110.864 272.802 110.562C273.16 110.256 273.462 109.875 273.706 109.42L275.547 109.966C275.234 110.625 274.794 111.205 274.226 111.705C273.663 112.199 273.004 112.585 272.248 112.864C271.498 113.136 270.677 113.273 269.785 113.273ZM288.844 102.841L286.935 103.352C286.866 103.045 286.747 102.75 286.577 102.466C286.412 102.176 286.156 101.94 285.81 101.759C285.469 101.571 285.003 101.477 284.412 101.477C283.611 101.477 282.915 101.662 282.324 102.031C281.733 102.395 281.395 102.858 281.31 103.42C281.224 103.915 281.338 104.31 281.651 104.605C281.963 104.901 282.486 105.142 283.219 105.33L285.094 105.807C286.219 106.097 287.02 106.531 287.497 107.111C287.98 107.685 288.145 108.432 287.991 109.352C287.866 110.102 287.54 110.773 287.011 111.364C286.483 111.955 285.807 112.42 284.983 112.761C284.159 113.102 283.241 113.273 282.23 113.273C280.884 113.273 279.821 112.983 279.043 112.403C278.264 111.818 277.849 110.972 277.798 109.864L279.81 109.386C279.861 110.085 280.111 110.614 280.56 110.972C281.014 111.324 281.651 111.5 282.469 111.5C283.406 111.5 284.188 111.301 284.813 110.903C285.438 110.5 285.793 110.017 285.878 109.455C285.963 108.994 285.872 108.611 285.605 108.304C285.344 107.997 284.889 107.767 284.241 107.614L282.162 107.102C281.003 106.812 280.19 106.369 279.724 105.773C279.264 105.176 279.111 104.426 279.264 103.523C279.389 102.784 279.707 102.131 280.219 101.562C280.736 100.994 281.384 100.548 282.162 100.224C282.946 99.9006 283.798 99.7386 284.719 99.7386C286.014 99.7386 286.983 100.023 287.625 100.591C288.267 101.153 288.673 101.903 288.844 102.841ZM289.926 113L292.107 99.9091H294.119L291.937 113H289.926ZM293.727 97.6932C293.335 97.6932 292.997 97.5597 292.712 97.2926C292.434 97.0256 292.295 96.7045 292.295 96.3295C292.295 95.9545 292.434 95.6335 292.712 95.3665C292.997 95.0994 293.335 94.9659 293.727 94.9659C294.119 94.9659 294.454 95.0994 294.732 95.3665C295.016 95.6335 295.159 95.9545 295.159 96.3295C295.159 96.7045 295.016 97.0256 294.732 97.2926C294.454 97.5597 294.119 97.6932 293.727 97.6932ZM300.067 113.273C298.97 113.273 298.05 112.997 297.306 112.446C296.561 111.889 296.036 111.105 295.729 110.094C295.428 109.077 295.391 107.875 295.618 106.489C295.851 105.114 296.286 103.92 296.922 102.909C297.564 101.898 298.351 101.116 299.283 100.565C300.215 100.014 301.232 99.7386 302.334 99.7386C303.186 99.7386 303.837 99.8807 304.286 100.165C304.74 100.443 305.07 100.761 305.274 101.119C305.479 101.472 305.635 101.761 305.743 101.989H305.914L306.987 95.5455H308.999L306.101 113H304.158L304.499 110.989H304.26C304.073 111.227 303.811 111.528 303.476 111.892C303.141 112.25 302.698 112.571 302.147 112.855C301.601 113.134 300.908 113.273 300.067 113.273ZM300.561 111.466C301.368 111.466 302.09 111.256 302.726 110.835C303.368 110.409 303.902 109.821 304.328 109.071C304.755 108.315 305.05 107.443 305.215 106.455C305.38 105.477 305.374 104.622 305.198 103.889C305.022 103.151 304.683 102.577 304.183 102.168C303.683 101.753 303.022 101.545 302.198 101.545C301.351 101.545 300.615 101.764 299.99 102.202C299.365 102.634 298.857 103.222 298.465 103.966C298.073 104.705 297.8 105.534 297.647 106.455C297.493 107.386 297.49 108.233 297.638 108.994C297.786 109.75 298.098 110.352 298.576 110.801C299.058 111.244 299.72 111.466 300.561 111.466ZM315.022 113.273C313.766 113.273 312.729 112.994 311.911 112.438C311.093 111.875 310.522 111.091 310.198 110.085C309.874 109.074 309.823 107.898 310.044 106.557C310.266 105.216 310.706 104.034 311.365 103.011C312.025 101.983 312.846 101.182 313.828 100.608C314.811 100.028 315.891 99.7386 317.067 99.7386C317.749 99.7386 318.405 99.8523 319.036 100.08C319.667 100.307 320.212 100.676 320.672 101.188C321.132 101.693 321.453 102.364 321.635 103.199C321.817 104.034 321.806 105.062 321.601 106.284L321.465 107.136H311.374L311.647 105.398H319.692C319.823 104.659 319.789 104 319.59 103.42C319.397 102.841 319.059 102.384 318.576 102.048C318.098 101.713 317.493 101.545 316.76 101.545C316.005 101.545 315.3 101.75 314.647 102.159C313.993 102.562 313.448 103.074 313.01 103.693C312.573 104.307 312.3 104.932 312.192 105.568L311.953 107.068C311.783 108.153 311.809 109.017 312.03 109.659C312.257 110.301 312.652 110.764 313.215 111.048C313.777 111.327 314.482 111.466 315.328 111.466C315.868 111.466 316.365 111.392 316.82 111.244C317.275 111.091 317.681 110.864 318.039 110.562C318.397 110.256 318.698 109.875 318.942 109.42L320.783 109.966C320.471 110.625 320.03 111.205 319.462 111.705C318.9 112.199 318.24 112.585 317.485 112.864C316.735 113.136 315.914 113.273 315.022 113.273ZM326.41 105.125L325.114 113H323.103L325.285 99.9091H327.228L326.887 101.955H327.057C327.466 101.29 328.02 100.756 328.719 100.352C329.418 99.9432 330.262 99.7386 331.25 99.7386C332.125 99.7386 332.864 99.9205 333.466 100.284C334.074 100.642 334.503 101.188 334.753 101.92C335.009 102.648 335.046 103.568 334.864 104.682L333.466 113H331.455L332.819 104.818C332.989 103.795 332.856 102.994 332.418 102.415C331.986 101.835 331.302 101.545 330.364 101.545C329.716 101.545 329.117 101.685 328.566 101.963C328.02 102.241 327.557 102.648 327.177 103.182C326.802 103.716 326.546 104.364 326.41 105.125ZM344.537 99.9091L344.264 101.614H337.48L337.753 99.9091H344.537ZM340.241 96.7727H342.253L340.173 109.25C340.082 109.818 340.096 110.244 340.216 110.528C340.341 110.807 340.528 110.994 340.778 111.091C341.034 111.182 341.31 111.227 341.605 111.227C341.827 111.227 342.008 111.216 342.15 111.193C342.292 111.165 342.406 111.142 342.491 111.125L342.628 112.932C342.474 112.983 342.267 113.034 342.006 113.085C341.75 113.142 341.435 113.17 341.06 113.17C340.491 113.17 339.957 113.048 339.457 112.804C338.957 112.56 338.574 112.188 338.307 111.688C338.04 111.188 337.969 110.557 338.094 109.795L340.241 96.7727ZM355.643 102.841L353.734 103.352C353.666 103.045 353.547 102.75 353.376 102.466C353.212 102.176 352.956 101.94 352.609 101.759C352.268 101.571 351.803 101.477 351.212 101.477C350.411 101.477 349.714 101.662 349.124 102.031C348.533 102.395 348.195 102.858 348.109 103.42C348.024 103.915 348.138 104.31 348.45 104.605C348.763 104.901 349.286 105.142 350.018 105.33L351.893 105.807C353.018 106.097 353.82 106.531 354.297 107.111C354.78 107.685 354.945 108.432 354.791 109.352C354.666 110.102 354.339 110.773 353.811 111.364C353.283 111.955 352.607 112.42 351.783 112.761C350.959 113.102 350.041 113.273 349.03 113.273C347.683 113.273 346.621 112.983 345.842 112.403C345.064 111.818 344.649 110.972 344.598 109.864L346.609 109.386C346.661 110.085 346.911 110.614 347.359 110.972C347.814 111.324 348.45 111.5 349.268 111.5C350.206 111.5 350.987 111.301 351.612 110.903C352.237 110.5 352.592 110.017 352.678 109.455C352.763 108.994 352.672 108.611 352.405 108.304C352.143 107.997 351.689 107.767 351.041 107.614L348.962 107.102C347.803 106.812 346.99 106.369 346.524 105.773C346.064 105.176 345.911 104.426 346.064 103.523C346.189 102.784 346.507 102.131 347.018 101.562C347.536 100.994 348.183 100.548 348.962 100.224C349.746 99.9006 350.598 99.7386 351.518 99.7386C352.814 99.7386 353.783 100.023 354.425 100.591C355.067 101.153 355.473 101.903 355.643 102.841Z" fill="black"/>
<path d="M530.673 82L533.571 64.5455H539.673C540.889 64.5455 541.858 64.7557 542.58 65.1761C543.301 65.5909 543.796 66.1506 544.063 66.8551C544.33 67.554 544.389 68.3295 544.242 69.1818C544.117 69.9318 543.881 70.5511 543.534 71.0398C543.193 71.5284 542.784 71.9148 542.307 72.1989C541.835 72.483 541.344 72.6932 540.832 72.8295L540.798 73C541.321 73.0341 541.824 73.2216 542.307 73.5625C542.79 73.9034 543.162 74.392 543.423 75.0284C543.685 75.6648 543.742 76.4432 543.594 77.3636C543.446 78.2386 543.114 79.0256 542.597 79.7244C542.08 80.4233 541.358 80.9773 540.432 81.3864C539.506 81.7955 538.355 82 536.98 82H530.673ZM533.094 80.125H537.287C538.668 80.125 539.693 79.858 540.364 79.3239C541.04 78.7841 541.446 78.1307 541.582 77.3636C541.673 76.7727 541.608 76.2273 541.386 75.7273C541.171 75.2216 540.81 74.8182 540.304 74.517C539.804 74.2102 539.173 74.0568 538.412 74.0568H534.117L533.094 80.125ZM534.423 72.2159H538.344C538.98 72.2159 539.577 72.0909 540.134 71.8409C540.69 71.5909 541.156 71.2386 541.531 70.7841C541.906 70.3295 542.139 69.7955 542.23 69.1818C542.367 68.4148 542.213 67.7642 541.77 67.2301C541.327 66.6903 540.526 66.4205 539.367 66.4205H535.378L534.423 72.2159ZM550.439 64.5455L547.541 82H545.53L548.428 64.5455H550.439ZM554.563 82.3068C553.734 82.3068 553.007 82.1506 552.382 81.8381C551.757 81.5199 551.294 81.0625 550.992 80.4659C550.691 79.8636 550.609 79.1364 550.745 78.2841C550.876 77.5341 551.129 76.9261 551.504 76.4602C551.879 75.9886 552.333 75.6193 552.867 75.3523C553.407 75.0795 553.987 74.8778 554.606 74.7472C555.231 74.6108 555.853 74.5057 556.473 74.4318C557.279 74.3295 557.936 74.25 558.441 74.1932C558.947 74.1364 559.328 74.0426 559.583 73.9119C559.839 73.7812 559.995 73.5568 560.052 73.2386V73.1705C560.188 72.3352 560.078 71.6847 559.72 71.2188C559.362 70.7472 558.723 70.5114 557.802 70.5114C556.848 70.5114 556.049 70.7216 555.407 71.142C554.765 71.5625 554.291 72.0114 553.984 72.4886L552.211 71.8068C552.677 71.0114 553.234 70.392 553.882 69.9489C554.529 69.5 555.208 69.1875 555.919 69.0114C556.629 68.8295 557.313 68.7386 557.973 68.7386C558.393 68.7386 558.867 68.7898 559.396 68.892C559.924 68.9886 560.419 69.1903 560.879 69.4972C561.345 69.804 561.694 70.267 561.927 70.8864C562.166 71.5057 562.2 72.3352 562.029 73.375L560.598 82H558.586L558.893 80.2273H558.791C558.609 80.5114 558.331 80.8153 557.956 81.1392C557.586 81.4631 557.117 81.7386 556.549 81.9659C555.987 82.1932 555.325 82.3068 554.563 82.3068ZM555.143 80.5C555.938 80.5 556.635 80.3438 557.231 80.0312C557.833 79.7188 558.316 79.3153 558.68 78.821C559.049 78.3267 559.279 77.8068 559.37 77.2614L559.677 75.4205C559.575 75.5227 559.373 75.6165 559.072 75.7017C558.771 75.7812 558.43 75.8523 558.049 75.9148C557.674 75.9716 557.308 76.0227 556.95 76.0682C556.598 76.108 556.313 76.142 556.098 76.1705C555.563 76.2386 555.055 76.3494 554.572 76.5028C554.095 76.6506 553.691 76.875 553.362 77.1761C553.038 77.4716 552.836 77.875 552.757 78.3864C552.637 79.0852 552.805 79.6136 553.26 79.9716C553.714 80.3239 554.342 80.5 555.143 80.5ZM569.073 82.2727C567.84 82.2727 566.829 81.983 566.039 81.4034C565.255 80.8239 564.709 80.0256 564.402 79.0085C564.096 77.9915 564.05 76.8295 564.266 75.5227C564.482 74.1932 564.919 73.0199 565.579 72.0028C566.238 70.9801 567.059 70.1818 568.042 69.608C569.025 69.0284 570.107 68.7386 571.289 68.7386C572.209 68.7386 573.01 68.9091 573.692 69.25C574.374 69.5909 574.9 70.0682 575.269 70.6818C575.638 71.2955 575.811 72.0114 575.789 72.8295H573.777C573.721 72.233 573.465 71.7045 573.01 71.2443C572.561 70.7784 571.897 70.5455 571.016 70.5455C570.232 70.5455 569.51 70.75 568.851 71.1591C568.192 71.5625 567.638 72.1335 567.189 72.8722C566.74 73.6051 566.436 74.4659 566.277 75.4545C566.107 76.4659 566.121 77.3466 566.32 78.0966C566.519 78.8466 566.88 79.429 567.402 79.8438C567.925 80.2585 568.584 80.4659 569.38 80.4659C569.902 80.4659 570.391 80.375 570.846 80.1932C571.3 80.0114 571.704 79.75 572.056 79.4091C572.408 79.0682 572.686 78.6591 572.891 78.1818H574.902C574.652 78.9545 574.252 79.6506 573.701 80.2699C573.15 80.8835 572.482 81.3722 571.698 81.7358C570.914 82.0938 570.039 82.2727 569.073 82.2727ZM579.374 77.2273L579.749 74.7386H580.158L586.874 68.9091H589.363L582.238 75.0795H582.067L579.374 77.2273ZM576.715 82L579.613 64.5455H581.624L578.726 82H576.715ZM585.033 82L581.01 75.5227L582.647 74.125L587.59 82H585.033ZM595.56 82L597.742 68.9091H599.685L599.344 70.8864H599.48C599.821 70.2386 600.341 69.7131 601.04 69.3097C601.739 68.9062 602.48 68.7045 603.264 68.7045C603.418 68.7045 603.602 68.7074 603.818 68.7131C604.034 68.7131 604.202 68.7216 604.321 68.7386L603.98 70.7841C603.912 70.767 603.759 70.7415 603.52 70.7074C603.281 70.6676 603.026 70.6477 602.753 70.6477C602.117 70.6477 601.528 70.7812 600.989 71.0483C600.449 71.3097 599.997 71.6733 599.634 72.1392C599.27 72.5994 599.037 73.125 598.935 73.7159L597.571 82H595.56ZM609.112 82.2727C607.857 82.2727 606.82 81.9943 606.002 81.4375C605.183 80.875 604.612 80.0909 604.288 79.0852C603.965 78.0739 603.913 76.8977 604.135 75.5568C604.357 74.2159 604.797 73.0341 605.456 72.0114C606.115 70.983 606.936 70.1818 607.919 69.608C608.902 69.0284 609.982 68.7386 611.158 68.7386C611.84 68.7386 612.496 68.8523 613.127 69.0795C613.757 69.3068 614.303 69.6761 614.763 70.1875C615.223 70.6932 615.544 71.3636 615.726 72.1989C615.908 73.0341 615.896 74.0625 615.692 75.2841L615.556 76.1364H605.465L605.737 74.3977H613.783C613.913 73.6591 613.879 73 613.681 72.4205C613.487 71.8409 613.149 71.3835 612.666 71.0483C612.189 70.7131 611.584 70.5455 610.851 70.5455C610.095 70.5455 609.391 70.75 608.737 71.1591C608.084 71.5625 607.538 72.0739 607.101 72.6932C606.663 73.3068 606.391 73.9318 606.283 74.5682L606.044 76.0682C605.874 77.1534 605.899 78.017 606.121 78.6591C606.348 79.3011 606.743 79.7642 607.306 80.0483C607.868 80.3267 608.573 80.4659 609.419 80.4659C609.959 80.4659 610.456 80.392 610.911 80.2443C611.365 80.0909 611.771 79.8636 612.129 79.5625C612.487 79.2557 612.788 78.875 613.033 78.4205L614.874 78.9659C614.561 79.625 614.121 80.2045 613.553 80.7045C612.99 81.1989 612.331 81.5852 611.575 81.8636C610.825 82.1364 610.004 82.2727 609.112 82.2727ZM628.171 71.8409L626.262 72.3523C626.193 72.0455 626.074 71.75 625.904 71.4659C625.739 71.1761 625.483 70.9403 625.137 70.7585C624.796 70.571 624.33 70.4773 623.739 70.4773C622.938 70.4773 622.242 70.6619 621.651 71.0312C621.06 71.3949 620.722 71.858 620.637 72.4205C620.551 72.9148 620.665 73.3097 620.978 73.6051C621.29 73.9006 621.813 74.142 622.546 74.3295L624.421 74.8068C625.546 75.0966 626.347 75.5312 626.824 76.1108C627.307 76.6847 627.472 77.4318 627.318 78.3523C627.193 79.1023 626.867 79.7727 626.338 80.3636C625.81 80.9545 625.134 81.4205 624.31 81.7614C623.486 82.1023 622.568 82.2727 621.557 82.2727C620.21 82.2727 619.148 81.983 618.37 81.4034C617.591 80.8182 617.176 79.9716 617.125 78.8636L619.137 78.3864C619.188 79.0852 619.438 79.6136 619.887 79.9716C620.341 80.3239 620.978 80.5 621.796 80.5C622.733 80.5 623.514 80.3011 624.139 79.9034C624.764 79.5 625.12 79.017 625.205 78.4545C625.29 77.9943 625.199 77.6108 624.932 77.304C624.671 76.9972 624.216 76.767 623.568 76.6136L621.489 76.1023C620.33 75.8125 619.517 75.3693 619.051 74.7727C618.591 74.1761 618.438 73.4261 618.591 72.5227C618.716 71.7841 619.034 71.1307 619.546 70.5625C620.063 69.9943 620.71 69.5483 621.489 69.2244C622.273 68.9006 623.125 68.7386 624.046 68.7386C625.341 68.7386 626.31 69.0227 626.952 69.5909C627.594 70.1534 628 70.9034 628.171 71.8409ZM629.253 82L631.434 68.9091H633.446L631.264 82H629.253ZM633.054 66.6932C632.662 66.6932 632.324 66.5597 632.039 66.2926C631.761 66.0256 631.622 65.7045 631.622 65.3295C631.622 64.9545 631.761 64.6335 632.039 64.3665C632.324 64.0994 632.662 63.9659 633.054 63.9659C633.446 63.9659 633.781 64.0994 634.059 64.3665C634.343 64.6335 634.485 64.9545 634.485 65.3295C634.485 65.7045 634.343 66.0256 634.059 66.2926C633.781 66.5597 633.446 66.6932 633.054 66.6932ZM639.394 82.2727C638.297 82.2727 637.377 81.9972 636.633 81.446C635.888 80.8892 635.363 80.1051 635.056 79.0938C634.755 78.0767 634.718 76.875 634.945 75.4886C635.178 74.1136 635.613 72.9205 636.249 71.9091C636.891 70.8977 637.678 70.1165 638.61 69.5653C639.542 69.0142 640.559 68.7386 641.661 68.7386C642.513 68.7386 643.164 68.8807 643.613 69.1648C644.067 69.4432 644.397 69.7614 644.601 70.1193C644.806 70.4716 644.962 70.7614 645.07 70.9886H645.241L646.314 64.5455H648.326L645.428 82H643.485L643.826 79.9886H643.587C643.4 80.2273 643.138 80.5284 642.803 80.892C642.468 81.25 642.025 81.571 641.473 81.8551C640.928 82.1335 640.235 82.2727 639.394 82.2727ZM639.888 80.4659C640.695 80.4659 641.417 80.2557 642.053 79.8352C642.695 79.4091 643.229 78.821 643.655 78.071C644.081 77.3153 644.377 76.4432 644.542 75.4545C644.706 74.4773 644.701 73.6222 644.525 72.8892C644.348 72.1506 644.01 71.5767 643.51 71.1676C643.01 70.7528 642.348 70.5455 641.525 70.5455C640.678 70.5455 639.942 70.7642 639.317 71.2017C638.692 71.6335 638.184 72.2216 637.792 72.9659C637.4 73.7045 637.127 74.5341 636.973 75.4545C636.82 76.3864 636.817 77.233 636.965 77.9943C637.113 78.75 637.425 79.3523 637.902 79.8011C638.385 80.2443 639.047 80.4659 639.888 80.4659ZM654.349 82.2727C653.093 82.2727 652.056 81.9943 651.238 81.4375C650.42 80.875 649.849 80.0909 649.525 79.0852C649.201 78.0739 649.15 76.8977 649.371 75.5568C649.593 74.2159 650.033 73.0341 650.692 72.0114C651.351 70.983 652.172 70.1818 653.155 69.608C654.138 69.0284 655.218 68.7386 656.394 68.7386C657.076 68.7386 657.732 68.8523 658.363 69.0795C658.993 69.3068 659.539 69.6761 659.999 70.1875C660.459 70.6932 660.78 71.3636 660.962 72.1989C661.144 73.0341 661.133 74.0625 660.928 75.2841L660.792 76.1364H650.701L650.974 74.3977H659.019C659.15 73.6591 659.116 73 658.917 72.4205C658.724 71.8409 658.386 71.3835 657.903 71.0483C657.425 70.7131 656.82 70.5455 656.087 70.5455C655.332 70.5455 654.627 70.75 653.974 71.1591C653.32 71.5625 652.775 72.0739 652.337 72.6932C651.9 73.3068 651.627 73.9318 651.519 74.5682L651.28 76.0682C651.11 77.1534 651.136 78.017 651.357 78.6591C651.584 79.3011 651.979 79.7642 652.542 80.0483C653.104 80.3267 653.809 80.4659 654.655 80.4659C655.195 80.4659 655.692 80.392 656.147 80.2443C656.601 80.0909 657.008 79.8636 657.366 79.5625C657.724 79.2557 658.025 78.875 658.269 78.4205L660.11 78.9659C659.797 79.625 659.357 80.2045 658.789 80.7045C658.226 81.1989 657.567 81.5852 656.812 81.8636C656.062 82.1364 655.241 82.2727 654.349 82.2727ZM665.737 74.125L664.441 82H662.43L664.612 68.9091H666.555L666.214 70.9545H666.384C666.793 70.2898 667.347 69.7557 668.046 69.3523C668.745 68.9432 669.589 68.7386 670.577 68.7386C671.452 68.7386 672.191 68.9205 672.793 69.2841C673.401 69.642 673.83 70.1875 674.08 70.9205C674.336 71.6477 674.373 72.5682 674.191 73.6818L672.793 82H670.782L672.146 73.8182C672.316 72.7955 672.183 71.9943 671.745 71.4148C671.313 70.8352 670.629 70.5455 669.691 70.5455C669.043 70.5455 668.444 70.6847 667.893 70.9631C667.347 71.2415 666.884 71.6477 666.504 72.1818C666.129 72.7159 665.873 73.3636 665.737 74.125ZM683.864 68.9091L683.591 70.6136H676.807L677.08 68.9091H683.864ZM679.568 65.7727H681.58L679.5 78.25C679.409 78.8182 679.423 79.2443 679.543 79.5284C679.668 79.8068 679.855 79.9943 680.105 80.0909C680.361 80.1818 680.636 80.2273 680.932 80.2273C681.154 80.2273 681.335 80.2159 681.477 80.1932C681.619 80.1648 681.733 80.142 681.818 80.125L681.955 81.9318C681.801 81.983 681.594 82.0341 681.333 82.0852C681.077 82.142 680.761 82.1705 680.386 82.1705C679.818 82.1705 679.284 82.0483 678.784 81.804C678.284 81.5597 677.901 81.1875 677.634 80.6875C677.367 80.1875 677.296 79.5568 677.421 78.7955L679.568 65.7727ZM694.97 71.8409L693.061 72.3523C692.993 72.0455 692.874 71.75 692.703 71.4659C692.539 71.1761 692.283 70.9403 691.936 70.7585C691.595 70.571 691.129 70.4773 690.539 70.4773C689.737 70.4773 689.041 70.6619 688.451 71.0312C687.86 71.3949 687.522 71.858 687.436 72.4205C687.351 72.9148 687.465 73.3097 687.777 73.6051C688.09 73.9006 688.612 74.142 689.345 74.3295L691.22 74.8068C692.345 75.0966 693.147 75.5312 693.624 76.1108C694.107 76.6847 694.272 77.4318 694.118 78.3523C693.993 79.1023 693.666 79.7727 693.138 80.3636C692.61 80.9545 691.933 81.4205 691.11 81.7614C690.286 82.1023 689.368 82.2727 688.357 82.2727C687.01 82.2727 685.948 81.983 685.169 81.4034C684.391 80.8182 683.976 79.9716 683.925 78.8636L685.936 78.3864C685.987 79.0852 686.237 79.6136 686.686 79.9716C687.141 80.3239 687.777 80.5 688.595 80.5C689.533 80.5 690.314 80.3011 690.939 79.9034C691.564 79.5 691.919 79.017 692.004 78.4545C692.09 77.9943 691.999 77.6108 691.732 77.304C691.47 76.9972 691.016 76.767 690.368 76.6136L688.289 76.1023C687.129 75.8125 686.317 75.3693 685.851 74.7727C685.391 74.1761 685.237 73.4261 685.391 72.5227C685.516 71.7841 685.834 71.1307 686.345 70.5625C686.862 69.9943 687.51 69.5483 688.289 69.2244C689.073 68.9006 689.925 68.7386 690.845 68.7386C692.141 68.7386 693.11 69.0227 693.752 69.5909C694.394 70.1534 694.8 70.9034 694.97 71.8409ZM707.231 64.5455L704.334 82H702.322L705.22 64.5455H707.231ZM707.538 82L709.719 68.9091H711.731L709.549 82H707.538ZM711.339 66.6932C710.947 66.6932 710.609 66.5597 710.324 66.2926C710.046 66.0256 709.907 65.7045 709.907 65.3295C709.907 64.9545 710.046 64.6335 710.324 64.3665C710.609 64.0994 710.947 63.9659 711.339 63.9659C711.731 63.9659 712.066 64.0994 712.344 64.3665C712.628 64.6335 712.77 64.9545 712.77 65.3295C712.77 65.7045 712.628 66.0256 712.344 66.2926C712.066 66.5597 711.731 66.6932 711.339 66.6932ZM725.639 68.9091L718.616 82H716.571L713.912 68.9091H716.008L717.883 79.3409H718.02L723.372 68.9091H725.639ZM730.618 82.2727C729.362 82.2727 728.325 81.9943 727.507 81.4375C726.689 80.875 726.118 80.0909 725.794 79.0852C725.47 78.0739 725.419 76.8977 725.641 75.5568C725.862 74.2159 726.303 73.0341 726.962 72.0114C727.621 70.983 728.442 70.1818 729.425 69.608C730.408 69.0284 731.487 68.7386 732.663 68.7386C733.345 68.7386 734.002 68.8523 734.632 69.0795C735.263 69.3068 735.808 69.6761 736.269 70.1875C736.729 70.6932 737.05 71.3636 737.232 72.1989C737.413 73.0341 737.402 74.0625 737.198 75.2841L737.061 76.1364H726.97L727.243 74.3977H735.288C735.419 73.6591 735.385 73 735.186 72.4205C734.993 71.8409 734.655 71.3835 734.172 71.0483C733.695 70.7131 733.09 70.5455 732.357 70.5455C731.601 70.5455 730.896 70.75 730.243 71.1591C729.59 71.5625 729.044 72.0739 728.607 72.6932C728.169 73.3068 727.896 73.9318 727.788 74.5682L727.55 76.0682C727.379 77.1534 727.405 78.017 727.627 78.6591C727.854 79.3011 728.249 79.7642 728.811 80.0483C729.374 80.3267 730.078 80.4659 730.925 80.4659C731.465 80.4659 731.962 80.392 732.416 80.2443C732.871 80.0909 733.277 79.8636 733.635 79.5625C733.993 79.2557 734.294 78.875 734.538 78.4205L736.379 78.9659C736.067 79.625 735.627 80.2045 735.058 80.7045C734.496 81.1989 733.837 81.5852 733.081 81.8636C732.331 82.1364 731.51 82.2727 730.618 82.2727ZM744.969 82L747.151 68.9091H749.162L746.98 82H744.969ZM748.77 66.6932C748.378 66.6932 748.04 66.5597 747.756 66.2926C747.478 66.0256 747.338 65.7045 747.338 65.3295C747.338 64.9545 747.478 64.6335 747.756 64.3665C748.04 64.0994 748.378 63.9659 748.77 63.9659C749.162 63.9659 749.497 64.0994 749.776 64.3665C750.06 64.6335 750.202 64.9545 750.202 65.3295C750.202 65.7045 750.06 66.0256 749.776 66.2926C749.497 66.5597 749.162 66.6932 748.77 66.6932ZM753.491 74.125L752.196 82H750.184L752.366 68.9091H754.309L753.968 70.9545H754.139C754.548 70.2898 755.102 69.7557 755.801 69.3523C756.5 68.9432 757.343 68.7386 758.332 68.7386C759.207 68.7386 759.946 68.9205 760.548 69.2841C761.156 69.642 761.585 70.1875 761.835 70.9205C762.091 71.6477 762.128 72.5682 761.946 73.6818L760.548 82H758.537L759.9 73.8182C760.071 72.7955 759.937 71.9943 759.5 71.4148C759.068 70.8352 758.383 70.5455 757.446 70.5455C756.798 70.5455 756.199 70.6847 755.647 70.9631C755.102 71.2415 754.639 71.6477 754.258 72.1818C753.883 72.7159 753.628 73.3636 753.491 74.125ZM678.667 112L678.94 110.466L687.94 100.92L687.974 100.784H680.781L681.088 98.9091H690.872L690.599 100.511L681.804 109.989L681.769 110.125H689.235L688.929 112H678.667ZM696.575 112.273C695.37 112.273 694.362 111.986 693.549 111.412C692.737 110.838 692.163 110.034 691.828 109C691.498 107.966 691.444 106.761 691.666 105.386C691.882 104.045 692.311 102.878 692.953 101.884C693.601 100.884 694.405 100.111 695.365 99.5653C696.331 99.0142 697.393 98.7386 698.552 98.7386C699.757 98.7386 700.762 99.0284 701.569 99.608C702.382 100.182 702.956 100.989 703.291 102.028C703.626 103.062 703.683 104.273 703.461 105.659C703.245 106.989 702.811 108.151 702.157 109.145C701.51 110.134 700.706 110.903 699.745 111.455C698.791 112 697.734 112.273 696.575 112.273ZM696.609 110.466C697.53 110.466 698.328 110.23 699.004 109.759C699.686 109.287 700.237 108.665 700.657 107.892C701.084 107.119 701.37 106.284 701.518 105.386C701.655 104.534 701.649 103.741 701.501 103.009C701.353 102.27 701.038 101.676 700.555 101.227C700.072 100.773 699.393 100.545 698.518 100.545C697.598 100.545 696.794 100.784 696.106 101.261C695.424 101.739 694.873 102.366 694.453 103.145C694.032 103.923 693.751 104.761 693.609 105.659C693.473 106.511 693.476 107.304 693.618 108.037C693.765 108.764 694.081 109.352 694.564 109.801C695.052 110.244 695.734 110.466 696.609 110.466ZM708.319 104.125L707.023 112H705.012L707.194 98.9091H709.137L708.796 100.955H708.966C709.376 100.29 709.929 99.7557 710.628 99.3523C711.327 98.9432 712.171 98.7386 713.16 98.7386C714.035 98.7386 714.773 98.9205 715.376 99.2841C715.983 99.642 716.412 100.188 716.662 100.92C716.918 101.648 716.955 102.568 716.773 103.682L715.376 112H713.364L714.728 103.818C714.898 102.795 714.765 101.994 714.327 101.415C713.895 100.835 713.211 100.545 712.273 100.545C711.626 100.545 711.026 100.685 710.475 100.963C709.929 101.241 709.466 101.648 709.086 102.182C708.711 102.716 708.455 103.364 708.319 104.125ZM724.025 112.273C722.77 112.273 721.733 111.994 720.915 111.438C720.097 110.875 719.525 110.091 719.202 109.085C718.878 108.074 718.827 106.898 719.048 105.557C719.27 104.216 719.71 103.034 720.369 102.011C721.028 100.983 721.849 100.182 722.832 99.608C723.815 99.0284 724.895 98.7386 726.071 98.7386C726.753 98.7386 727.409 98.8523 728.04 99.0795C728.67 99.3068 729.216 99.6761 729.676 100.188C730.136 100.693 730.457 101.364 730.639 102.199C730.821 103.034 730.81 104.062 730.605 105.284L730.469 106.136H720.378L720.65 104.398H728.696C728.827 103.659 728.793 103 728.594 102.42C728.4 101.841 728.062 101.384 727.579 101.048C727.102 100.713 726.497 100.545 725.764 100.545C725.008 100.545 724.304 100.75 723.65 101.159C722.997 101.562 722.452 102.074 722.014 102.693C721.577 103.307 721.304 103.932 721.196 104.568L720.957 106.068C720.787 107.153 720.812 108.017 721.034 108.659C721.261 109.301 721.656 109.764 722.219 110.048C722.781 110.327 723.486 110.466 724.332 110.466C724.872 110.466 725.369 110.392 725.824 110.244C726.278 110.091 726.685 109.864 727.043 109.562C727.4 109.256 727.702 108.875 727.946 108.42L729.787 108.966C729.474 109.625 729.034 110.205 728.466 110.705C727.903 111.199 727.244 111.585 726.489 111.864C725.739 112.136 724.918 112.273 724.025 112.273ZM743.084 101.841L741.175 102.352C741.107 102.045 740.987 101.75 740.817 101.466C740.652 101.176 740.396 100.94 740.05 100.759C739.709 100.571 739.243 100.477 738.652 100.477C737.851 100.477 737.155 100.662 736.564 101.031C735.973 101.395 735.635 101.858 735.55 102.42C735.465 102.915 735.578 103.31 735.891 103.605C736.203 103.901 736.726 104.142 737.459 104.33L739.334 104.807C740.459 105.097 741.26 105.531 741.737 106.111C742.22 106.685 742.385 107.432 742.232 108.352C742.107 109.102 741.78 109.773 741.251 110.364C740.723 110.955 740.047 111.42 739.223 111.761C738.399 112.102 737.482 112.273 736.47 112.273C735.124 112.273 734.061 111.983 733.283 111.403C732.504 110.818 732.09 109.972 732.038 108.864L734.05 108.386C734.101 109.085 734.351 109.614 734.8 109.972C735.254 110.324 735.891 110.5 736.709 110.5C737.646 110.5 738.428 110.301 739.053 109.903C739.678 109.5 740.033 109.017 740.118 108.455C740.203 107.994 740.112 107.611 739.845 107.304C739.584 106.997 739.129 106.767 738.482 106.614L736.402 106.102C735.243 105.812 734.43 105.369 733.965 104.773C733.504 104.176 733.351 103.426 733.504 102.523C733.629 101.784 733.947 101.131 734.459 100.562C734.976 99.9943 735.624 99.5483 736.402 99.2244C737.186 98.9006 738.038 98.7386 738.959 98.7386C740.254 98.7386 741.223 99.0227 741.865 99.5909C742.507 100.153 742.913 100.903 743.084 101.841Z" fill="black"/>
<path d="M540.012 94.5455H544.563L547.436 106.273H547.64L554.382 94.5455H558.933L556.035 112H552.455L554.348 100.639H554.194L547.819 111.915H545.373L542.748 100.597H542.603L540.694 112H537.115L540.012 94.5455ZM567.851 106.426L569.104 98.9091H572.735L570.553 112H567.067L567.459 109.622H567.323C566.919 110.389 566.331 111.006 565.559 111.472C564.786 111.937 563.908 112.17 562.925 112.17C562.05 112.17 561.311 111.972 560.709 111.574C560.113 111.176 559.689 110.611 559.439 109.878C559.189 109.145 559.147 108.267 559.311 107.244L560.709 98.9091H564.34L563.061 106.597C562.942 107.369 563.05 107.98 563.385 108.429C563.721 108.878 564.232 109.102 564.919 109.102C565.357 109.102 565.78 109.003 566.189 108.804C566.604 108.599 566.962 108.298 567.263 107.901C567.564 107.503 567.76 107.011 567.851 106.426ZM579.505 94.5455L576.608 112H572.977L575.875 94.5455H579.505ZM588.181 98.9091L587.729 101.636H579.837L580.297 98.9091H588.181ZM582.599 95.7727H586.229L584.201 107.977C584.144 108.312 584.153 108.574 584.226 108.761C584.3 108.943 584.422 109.071 584.593 109.145C584.769 109.219 584.979 109.256 585.224 109.256C585.394 109.256 585.567 109.241 585.743 109.213C585.92 109.179 586.053 109.153 586.144 109.136L586.28 111.838C586.076 111.901 585.8 111.969 585.454 112.043C585.113 112.116 584.709 112.162 584.243 112.179C583.357 112.213 582.607 112.097 581.993 111.83C581.38 111.557 580.939 111.139 580.672 110.577C580.405 110.014 580.349 109.307 580.502 108.455L582.599 95.7727ZM587.884 112L590.066 98.9091H593.697L591.515 112H587.884ZM592.256 97.2045C591.717 97.2045 591.271 97.0256 590.918 96.6676C590.572 96.304 590.43 95.8722 590.492 95.3722C590.555 94.8608 590.799 94.429 591.225 94.0767C591.651 93.7187 592.134 93.5398 592.674 93.5398C593.214 93.5398 593.654 93.7187 593.995 94.0767C594.336 94.429 594.478 94.8608 594.421 95.3722C594.364 95.8722 594.123 96.304 593.697 96.6676C593.276 97.0256 592.796 97.2045 592.256 97.2045ZM603.531 103.392L603.063 106.273H595.094L595.563 103.392H603.531ZM613.943 98.9091L613.492 101.636H605.412L605.864 98.9091H613.943ZM605.523 112L607.867 97.9631C608.02 97.0142 608.333 96.2273 608.804 95.6023C609.281 94.9773 609.87 94.5085 610.568 94.196C611.273 93.8835 612.034 93.7273 612.852 93.7273C613.409 93.7273 613.912 93.7699 614.361 93.8551C614.816 93.9403 615.145 94.017 615.35 94.0852L614.267 96.8125C614.131 96.767 613.963 96.7244 613.764 96.6847C613.566 96.6449 613.355 96.625 613.134 96.625C612.605 96.625 612.216 96.75 611.966 97C611.722 97.2443 611.557 97.5881 611.472 98.0312L609.145 112H605.523ZM616.721 112.247C615.892 112.247 615.173 112.102 614.565 111.812C613.963 111.517 613.519 111.08 613.235 110.5C612.951 109.92 612.88 109.202 613.022 108.344C613.147 107.616 613.383 107.009 613.73 106.52C614.082 106.026 614.511 105.628 615.017 105.327C615.522 105.026 616.082 104.795 616.696 104.636C617.315 104.477 617.954 104.369 618.613 104.312C619.375 104.233 619.994 104.156 620.471 104.082C620.954 104.009 621.315 103.903 621.554 103.767C621.792 103.625 621.937 103.415 621.988 103.136V103.085C622.073 102.551 621.974 102.136 621.69 101.841C621.412 101.54 620.966 101.389 620.352 101.389C619.704 101.389 619.153 101.531 618.698 101.815C618.25 102.099 617.929 102.46 617.735 102.898L614.429 102.625C614.724 101.83 615.17 101.142 615.767 100.562C616.369 99.9773 617.093 99.5284 617.94 99.2159C618.787 98.8977 619.735 98.7386 620.787 98.7386C621.514 98.7386 622.193 98.8239 622.823 98.9943C623.46 99.1648 624.008 99.429 624.468 99.7869C624.934 100.145 625.269 100.605 625.474 101.168C625.684 101.724 625.727 102.392 625.602 103.17L624.127 112H620.684L620.991 110.185H620.889C620.61 110.594 620.269 110.955 619.866 111.267C619.463 111.574 619 111.815 618.477 111.991C617.954 112.162 617.369 112.247 616.721 112.247ZM618.179 109.741C618.707 109.741 619.193 109.636 619.636 109.426C620.085 109.21 620.454 108.92 620.744 108.557C621.039 108.193 621.227 107.781 621.306 107.321L621.528 105.932C621.414 106.006 621.25 106.071 621.034 106.128C620.823 106.185 620.593 106.239 620.343 106.29C620.099 106.335 619.852 106.378 619.602 106.418C619.352 106.452 619.127 106.486 618.929 106.52C618.491 106.582 618.099 106.682 617.752 106.818C617.406 106.955 617.125 107.139 616.909 107.372C616.693 107.599 616.559 107.884 616.508 108.224C616.429 108.719 616.545 109.097 616.858 109.358C617.176 109.614 617.616 109.741 618.179 109.741ZM626.49 112L628.672 98.9091H632.123L631.748 101.219H631.893C632.291 100.452 632.845 99.8466 633.555 99.4034C634.271 98.9602 635.075 98.7386 635.967 98.7386C636.853 98.7386 637.575 98.9631 638.132 99.4119C638.694 99.8551 639.018 100.457 639.103 101.219H639.24C639.626 100.469 640.209 99.8693 640.987 99.4205C641.765 98.9659 642.635 98.7386 643.595 98.7386C644.805 98.7386 645.731 99.1278 646.373 99.9062C647.015 100.685 647.217 101.781 646.978 103.196L645.513 112H641.882L643.245 103.912C643.353 103.179 643.245 102.634 642.922 102.276C642.598 101.912 642.146 101.73 641.566 101.73C640.907 101.73 640.359 101.94 639.922 102.361C639.484 102.776 639.214 103.324 639.112 104.006L637.757 112H634.237L635.618 103.835C635.714 103.187 635.609 102.676 635.302 102.301C635.001 101.92 634.549 101.73 633.947 101.73C633.549 101.73 633.172 101.832 632.814 102.037C632.461 102.236 632.163 102.517 631.919 102.881C631.674 103.239 631.515 103.659 631.441 104.142L630.112 112H626.49ZM647.875 112L650.057 98.9091H653.687L651.506 112H647.875ZM652.247 97.2045C651.707 97.2045 651.261 97.0256 650.909 96.6676C650.562 96.304 650.42 95.8722 650.483 95.3722C650.545 94.8608 650.79 94.429 651.216 94.0767C651.642 93.7187 652.125 93.5398 652.665 93.5398C653.204 93.5398 653.645 93.7187 653.986 94.0767C654.327 94.429 654.469 94.8608 654.412 95.3722C654.355 95.8722 654.113 96.304 653.687 96.6676C653.267 97.0256 652.787 97.2045 652.247 97.2045ZM660.462 94.5455L657.565 112H653.934L656.832 94.5455H660.462ZM661.433 116.909C660.967 116.909 660.541 116.872 660.155 116.798C659.769 116.73 659.45 116.642 659.2 116.534L660.479 113.824C660.882 113.955 661.249 114.023 661.578 114.028C661.913 114.034 662.22 113.949 662.499 113.773C662.777 113.597 663.033 113.307 663.266 112.903L663.59 112.349L661.135 98.9091H664.817L665.925 108.54H666.061L670.399 98.9091H674.379L666.888 113.415C666.519 114.125 666.081 114.741 665.575 115.264C665.075 115.787 664.482 116.19 663.794 116.474C663.112 116.764 662.325 116.909 661.433 116.909Z" fill="#9A403C"/>
<path d="M219.307 21.9091V51H213.156V27.7472H212.986L206.324 31.9233V26.4688L213.526 21.9091H219.307ZM236.586 51.3977C235.089 51.3883 233.645 51.1373 232.253 50.6449C230.871 50.1525 229.63 49.3523 228.532 48.2443C227.433 47.1364 226.562 45.6686 225.918 43.8409C225.284 42.0133 224.966 39.7689 224.966 37.108C224.976 34.6648 225.255 32.482 225.804 30.5597C226.363 28.6278 227.159 26.9896 228.191 25.6449C229.232 24.3002 230.478 23.2775 231.927 22.5767C233.375 21.8665 234.999 21.5114 236.799 21.5114C238.74 21.5114 240.454 21.8902 241.941 22.6477C243.427 23.3958 244.621 24.4138 245.52 25.7017C246.429 26.9896 246.979 28.4337 247.168 30.0341H241.103C240.866 29.0208 240.369 28.2254 239.611 27.6477C238.854 27.0701 237.916 26.7812 236.799 26.7812C234.905 26.7812 233.465 27.6051 232.481 29.2528C231.505 30.9006 231.008 33.1402 230.989 35.9716H231.188C231.624 35.1098 232.211 34.3759 232.949 33.7699C233.697 33.1544 234.545 32.6856 235.492 32.3636C236.448 32.0322 237.457 31.8665 238.517 31.8665C240.241 31.8665 241.775 32.2737 243.12 33.0881C244.464 33.893 245.525 35.0009 246.302 36.4119C247.078 37.8229 247.466 39.4375 247.466 41.2557C247.466 43.2254 247.007 44.9773 246.088 46.5114C245.179 48.0455 243.906 49.2481 242.267 50.1193C240.639 50.9811 238.745 51.4072 236.586 51.3977ZM236.557 46.5682C237.504 46.5682 238.352 46.3409 239.1 45.8864C239.848 45.4318 240.435 44.8163 240.861 44.0398C241.287 43.2633 241.5 42.392 241.5 41.4261C241.5 40.4602 241.287 39.5937 240.861 38.8267C240.445 38.0597 239.867 37.4489 239.128 36.9943C238.39 36.5398 237.547 36.3125 236.6 36.3125C235.89 36.3125 235.231 36.4451 234.625 36.7102C234.029 36.9754 233.503 37.3447 233.049 37.8182C232.604 38.2917 232.253 38.8409 231.998 39.4659C231.742 40.0814 231.614 40.7396 231.614 41.4403C231.614 42.3778 231.827 43.2348 232.253 44.0114C232.689 44.7879 233.276 45.4081 234.015 45.8722C234.763 46.3362 235.61 46.5682 236.557 46.5682ZM263.294 46.6364V45.4091C263.294 44.4773 263.491 43.6212 263.885 42.8409C264.287 42.053 264.866 41.4242 265.624 40.9545C266.389 40.4773 267.321 40.2386 268.419 40.2386C269.533 40.2386 270.468 40.4735 271.226 40.9432C271.991 41.4129 272.567 42.0417 272.953 42.8295C273.347 43.6098 273.544 44.4697 273.544 45.4091V46.6364C273.544 47.5682 273.347 48.428 272.953 49.2159C272.559 49.9962 271.98 50.6212 271.215 51.0909C270.449 51.5682 269.518 51.8068 268.419 51.8068C267.306 51.8068 266.37 51.5682 265.612 51.0909C264.855 50.6212 264.279 49.9962 263.885 49.2159C263.491 48.428 263.294 47.5682 263.294 46.6364ZM266.601 45.4091V46.6364C266.601 47.1742 266.73 47.6818 266.987 48.1591C267.252 48.6364 267.73 48.875 268.419 48.875C269.109 48.875 269.578 48.6402 269.828 48.1705C270.086 47.7008 270.215 47.1894 270.215 46.6364V45.4091C270.215 44.8561 270.093 44.3409 269.851 43.8636C269.609 43.3864 269.131 43.1477 268.419 43.1477C267.737 43.1477 267.264 43.3864 266.999 43.8636C266.734 44.3409 266.601 44.8561 266.601 45.4091ZM251.351 33.3182V32.0909C251.351 31.1515 251.552 30.2917 251.953 29.5114C252.355 28.7235 252.934 28.0947 253.692 27.625C254.457 27.1553 255.381 26.9205 256.465 26.9205C257.586 26.9205 258.525 27.1553 259.283 27.625C260.04 28.0947 260.616 28.7235 261.01 29.5114C261.404 30.2917 261.601 31.1515 261.601 32.0909V33.3182C261.601 34.2576 261.4 35.1174 260.999 35.8977C260.605 36.678 260.025 37.303 259.26 37.7727C258.502 38.2348 257.571 38.4659 256.465 38.4659C255.359 38.4659 254.423 38.2311 253.658 37.7614C252.9 37.2841 252.324 36.6591 251.931 35.8864C251.544 35.1061 251.351 34.25 251.351 33.3182ZM254.681 32.0909V33.3182C254.681 33.8712 254.809 34.3826 255.067 34.8523C255.332 35.322 255.798 35.5568 256.465 35.5568C257.162 35.5568 257.635 35.322 257.885 34.8523C258.143 34.3826 258.271 33.8712 258.271 33.3182V32.0909C258.271 31.5379 258.15 31.0227 257.908 30.5455C257.665 30.0682 257.184 29.8295 256.465 29.8295C255.79 29.8295 255.324 30.072 255.067 30.5568C254.809 31.0417 254.681 31.553 254.681 32.0909ZM252.851 51L268.851 27.7273H271.828L255.828 51H252.851Z" fill="#6B889A"/>
<path d="M562.358 51V46.5682L572.713 36.9801C573.594 36.1278 574.332 35.3608 574.929 34.679C575.535 33.9972 575.994 33.3295 576.307 32.6761C576.619 32.0133 576.776 31.2983 576.776 30.5312C576.776 29.679 576.581 28.9451 576.193 28.3295C575.805 27.7045 575.275 27.2263 574.602 26.8949C573.93 26.554 573.168 26.3835 572.315 26.3835C571.425 26.3835 570.649 26.5634 569.986 26.9233C569.323 27.2831 568.812 27.7992 568.452 28.4716C568.092 29.1439 567.912 29.9441 567.912 30.8722H562.074C562.074 28.9687 562.505 27.3163 563.366 25.9148C564.228 24.5133 565.436 23.429 566.989 22.6619C568.542 21.8949 570.331 21.5114 572.358 21.5114C574.441 21.5114 576.255 21.8807 577.798 22.6193C579.351 23.3485 580.559 24.3617 581.42 25.6591C582.282 26.9564 582.713 28.4432 582.713 30.1193C582.713 31.2178 582.495 32.3021 582.06 33.3722C581.634 34.4422 580.871 35.6307 579.773 36.9375C578.674 38.2348 577.126 39.7926 575.128 41.6108L570.881 45.7727V45.9716H583.097V51H562.358ZM597.378 51.3977C595.371 51.3977 593.581 51.0284 592.009 50.2898C590.446 49.5511 589.206 48.5331 588.287 47.2358C587.369 45.9384 586.891 44.4517 586.853 42.7756H592.819C592.885 43.9025 593.358 44.8163 594.239 45.517C595.12 46.2178 596.166 46.5682 597.378 46.5682C598.344 46.5682 599.196 46.3551 599.935 45.929C600.683 45.4934 601.266 44.892 601.682 44.125C602.108 43.3485 602.321 42.4583 602.321 41.4545C602.321 40.4318 602.104 39.5322 601.668 38.7557C601.242 37.9792 600.65 37.3731 599.892 36.9375C599.135 36.5019 598.268 36.2794 597.293 36.2699C596.441 36.2699 595.612 36.4451 594.807 36.7955C594.012 37.1458 593.392 37.6241 592.946 38.2301L587.478 37.25L588.856 21.9091H606.64V26.9375H593.927L593.174 34.2244H593.344C593.856 33.5047 594.627 32.9081 595.66 32.4347C596.692 31.9612 597.847 31.7244 599.125 31.7244C600.877 31.7244 602.44 32.1364 603.813 32.9602C605.186 33.7841 606.27 34.9157 607.066 36.3551C607.861 37.785 608.254 39.4328 608.245 41.2983C608.254 43.2585 607.8 45.0009 606.881 46.5256C605.972 48.0407 604.698 49.2339 603.06 50.1051C601.431 50.9669 599.537 51.3977 597.378 51.3977ZM624.002 46.6364V45.4091C624.002 44.4773 624.199 43.6212 624.592 42.8409C624.994 42.053 625.574 41.4242 626.331 40.9545C627.096 40.4773 628.028 40.2386 629.127 40.2386C630.24 40.2386 631.176 40.4735 631.933 40.9432C632.699 41.4129 633.274 42.0417 633.661 42.8295C634.055 43.6098 634.252 44.4697 634.252 45.4091V46.6364C634.252 47.5682 634.055 48.428 633.661 49.2159C633.267 49.9962 632.687 50.6212 631.922 51.0909C631.157 51.5682 630.225 51.8068 629.127 51.8068C628.013 51.8068 627.077 51.5682 626.32 51.0909C625.562 50.6212 624.986 49.9962 624.592 49.2159C624.199 48.428 624.002 47.5682 624.002 46.6364ZM627.308 45.4091V46.6364C627.308 47.1742 627.437 47.6818 627.695 48.1591C627.96 48.6364 628.437 48.875 629.127 48.875C629.816 48.875 630.286 48.6402 630.536 48.1705C630.793 47.7008 630.922 47.1894 630.922 46.6364V45.4091C630.922 44.8561 630.801 44.3409 630.558 43.8636C630.316 43.3864 629.839 43.1477 629.127 43.1477C628.445 43.1477 627.971 43.3864 627.706 43.8636C627.441 44.3409 627.308 44.8561 627.308 45.4091ZM612.058 33.3182V32.0909C612.058 31.1515 612.259 30.2917 612.661 29.5114C613.062 28.7235 613.642 28.0947 614.399 27.625C615.164 27.1553 616.089 26.9205 617.172 26.9205C618.293 26.9205 619.233 27.1553 619.99 27.625C620.748 28.0947 621.324 28.7235 621.717 29.5114C622.111 30.2917 622.308 31.1515 622.308 32.0909V33.3182C622.308 34.2576 622.108 35.1174 621.706 35.8977C621.312 36.678 620.733 37.303 619.967 37.7727C619.21 38.2348 618.278 38.4659 617.172 38.4659C616.066 38.4659 615.13 38.2311 614.365 37.7614C613.608 37.2841 613.032 36.6591 612.638 35.8864C612.252 35.1061 612.058 34.25 612.058 33.3182ZM615.388 32.0909V33.3182C615.388 33.8712 615.517 34.3826 615.774 34.8523C616.039 35.322 616.505 35.5568 617.172 35.5568C617.869 35.5568 618.342 35.322 618.592 34.8523C618.85 34.3826 618.979 33.8712 618.979 33.3182V32.0909C618.979 31.5379 618.858 31.0227 618.615 30.5455C618.373 30.0682 617.892 29.8295 617.172 29.8295C616.498 29.8295 616.032 30.072 615.774 30.5568C615.517 31.0417 615.388 31.553 615.388 32.0909ZM613.558 51L629.558 27.7273H632.536L616.536 51H613.558ZM643.257 51L645.438 37.9091H647.382L647.041 39.9545H647.211C647.603 39.2557 648.134 38.7131 648.805 38.3267C649.481 37.9347 650.245 37.7386 651.097 37.7386C651.95 37.7386 652.634 37.9347 653.151 38.3267C653.668 38.7131 654.029 39.2557 654.234 39.9545H654.37C654.813 39.2727 655.404 38.733 656.143 38.3352C656.887 37.9375 657.728 37.7386 658.666 37.7386C659.825 37.7386 660.717 38.1051 661.342 38.8381C661.972 39.571 662.16 40.7045 661.904 42.2386L660.438 51H658.427L659.893 42.2386C660.046 41.267 659.893 40.5767 659.433 40.1676C658.978 39.7528 658.393 39.5455 657.677 39.5455C656.757 39.5455 655.998 39.821 655.401 40.3722C654.805 40.9233 654.438 41.625 654.302 42.4773L652.87 51H650.825L652.325 42.0341C652.444 41.2841 652.302 40.6818 651.899 40.2273C651.495 39.7727 650.91 39.5455 650.143 39.5455C649.62 39.5455 649.109 39.6875 648.609 39.9716C648.109 40.25 647.68 40.6364 647.322 41.1307C646.964 41.6193 646.734 42.1818 646.632 42.8182L645.268 51H643.257ZM669.039 51.2727C667.835 51.2727 666.826 50.9858 666.014 50.4119C665.201 49.8381 664.627 49.0341 664.292 48C663.963 46.9659 663.909 45.7614 664.13 44.3864C664.346 43.0455 664.775 41.8778 665.417 40.8835C666.065 39.8835 666.869 39.1108 667.829 38.5653C668.795 38.0142 669.858 37.7386 671.017 37.7386C672.221 37.7386 673.227 38.0284 674.034 38.608C674.846 39.1818 675.42 39.9886 675.755 41.0284C676.09 42.0625 676.147 43.2727 675.926 44.6591C675.71 45.9886 675.275 47.1506 674.622 48.1449C673.974 49.1335 673.17 49.9034 672.21 50.4545C671.255 51 670.198 51.2727 669.039 51.2727ZM669.073 49.4659C669.994 49.4659 670.792 49.2301 671.468 48.7585C672.15 48.2869 672.701 47.6648 673.122 46.892C673.548 46.1193 673.835 45.2841 673.983 44.3864C674.119 43.5341 674.113 42.7415 673.965 42.0085C673.818 41.2699 673.502 40.6761 673.019 40.2273C672.537 39.7727 671.858 39.5455 670.983 39.5455C670.062 39.5455 669.258 39.7841 668.571 40.2614C667.889 40.7386 667.338 41.3665 666.917 42.1449C666.497 42.9233 666.215 43.7614 666.073 44.6591C665.937 45.5114 665.94 46.304 666.082 47.0369C666.23 47.7642 666.545 48.3523 667.028 48.8011C667.517 49.2443 668.198 49.4659 669.073 49.4659ZM677.476 51L679.658 37.9091H681.601L681.26 39.8864H681.397C681.738 39.2386 682.257 38.7131 682.956 38.3097C683.655 37.9062 684.397 37.7045 685.181 37.7045C685.334 37.7045 685.519 37.7074 685.735 37.7131C685.951 37.7131 686.118 37.7216 686.238 37.7386L685.897 39.7841C685.829 39.767 685.675 39.7415 685.436 39.7074C685.198 39.6676 684.942 39.6477 684.669 39.6477C684.033 39.6477 683.445 39.7812 682.905 40.0483C682.365 40.3097 681.914 40.6733 681.55 41.1392C681.186 41.5994 680.954 42.125 680.851 42.7159L679.488 51H677.476ZM691.029 51.2727C689.773 51.2727 688.736 50.9943 687.918 50.4375C687.1 49.875 686.529 49.0909 686.205 48.0852C685.881 47.0739 685.83 45.8977 686.052 44.5568C686.273 43.2159 686.714 42.0341 687.373 41.0114C688.032 39.983 688.853 39.1818 689.836 38.608C690.819 38.0284 691.898 37.7386 693.074 37.7386C693.756 37.7386 694.412 37.8523 695.043 38.0795C695.674 38.3068 696.219 38.6761 696.679 39.1875C697.14 39.6932 697.461 40.3636 697.643 41.1989C697.824 42.0341 697.813 43.0625 697.608 44.2841L697.472 45.1364H687.381L687.654 43.3977H695.699C695.83 42.6591 695.796 42 695.597 41.4205C695.404 40.8409 695.066 40.3835 694.583 40.0483C694.106 39.7131 693.501 39.5455 692.768 39.5455C692.012 39.5455 691.307 39.75 690.654 40.1591C690.001 40.5625 689.455 41.0739 689.018 41.6932C688.58 42.3068 688.307 42.9318 688.199 43.5682L687.961 45.0682C687.79 46.1534 687.816 47.017 688.037 47.6591C688.265 48.3011 688.66 48.7642 689.222 49.0483C689.785 49.3267 690.489 49.4659 691.336 49.4659C691.876 49.4659 692.373 49.392 692.827 49.2443C693.282 49.0909 693.688 48.8636 694.046 48.5625C694.404 48.2557 694.705 47.875 694.949 47.4205L696.79 47.9659C696.478 48.625 696.037 49.2045 695.469 49.7045C694.907 50.1989 694.248 50.5852 693.492 50.8636C692.742 51.1364 691.921 51.2727 691.029 51.2727Z" fill="#9A403C"/>
</svg>
