<?xml version="1.0" encoding="UTF-8"?>
<svg xmlns="http://www.w3.org/2000/svg" xmlns:xlink="http://www.w3.org/1999/xlink" viewBox="0 0 920 920">
  <defs>
    <style>
      .cls-1, .cls-2 {
        stroke-linecap: round;
        stroke-linejoin: round;
        stroke-width: .99px;
      }

      .cls-1, .cls-2, .cls-3, .cls-4, .cls-5, .cls-6 {
        fill: none;
      }

      .cls-1, .cls-6 {
        stroke: #2e2f40;
      }

      .cls-2 {
        stroke: #3c464e;
      }

      .cls-7, .cls-8, .cls-9 {
        fill: #f2d0d0;
      }

      .cls-3 {
        stroke: #c2dff0;
      }

      .cls-3, .cls-4 {
        stroke-width: 2px;
      }

      .cls-3, .cls-4, .cls-5, .cls-8, .cls-6 {
        stroke-miterlimit: 10;
      }

      .cls-10 {
        isolation: isolate;
      }

      .cls-4 {
        stroke: #c5d0d9;
      }

      .cls-5 {
        stroke: #2a2a2a;
      }

      .cls-11 {
        fill: #98b0bc;
      }

      .cls-12, .cls-13 {
        fill: #dde6ed;
      }

      .cls-8 {
        stroke: #f2d0d0;
      }

      .cls-14 {
        fill: #2a2a2a;
      }

      .cls-15 {
        fill: #2e2f40;
      }

      .cls-16 {
        fill: url(#linear-gradient-3);
      }

      .cls-16, .cls-17, .cls-18, .cls-13, .cls-9 {
        mix-blend-mode: multiply;
      }

      .cls-16, .cls-18 {
        opacity: .21;
      }

      .cls-17 {
        fill: url(#linear-gradient);
        opacity: .31;
      }

      .cls-19 {
        fill: #8090a6;
      }

      .cls-20 {
        fill: #da9797;
      }

      .cls-18 {
        fill: url(#linear-gradient-2);
      }

      .cls-21 {
        fill: #3c464e;
      }

      .cls-22 {
        fill: #e8e8e8;
      }

      .cls-23 {
        fill: #6a7b8a;
      }

      .cls-6 {
        stroke-width: 3px;
      }

      .cls-24 {
        fill: #738696;
      }

      .cls-25 {
        fill: #c2dff0;
      }

      .cls-13 {
        opacity: .39;
      }
    </style>
    <linearGradient id="linear-gradient" x1="458.6" y1="164.68" x2="458.6" y2="345.16" gradientUnits="userSpaceOnUse">
      <stop offset="0" stop-color="#c5d0d9" stop-opacity="0"/>
      <stop offset="1" stop-color="#64718c"/>
    </linearGradient>
    <linearGradient id="linear-gradient-2" x1="368.04" y1="307.73" x2="368.04" y2="300.5" xlink:href="#linear-gradient"/>
    <linearGradient id="linear-gradient-3" x1="553.17" y1="307.73" x2="553.17" y2="300.5" xlink:href="#linear-gradient"/>
  </defs>
  <g class="cls-10">
    <g id="size_960">
      <g>
        <path class="cls-22" d="m821.47,295.37h-305.52c1.95-4.58,4.41-8.91,7.68-13.41,11.41-15.7,23.12-31.65,38.61-43.36,15.49-11.71,35.6-18.84,54.52-14.43,18.92,4.41,35,22.74,32.63,42.05,12.05-10.14,24.48-20.49,39.33-25.67,14.89-5.22,32.97-4.16,44.42,6.66,10.31,9.76,13.15,25.58,9.97,39.42,8.44-9.12,18.37-14.85,30.38-18.03,12.01-3.18,25.54-1.57,35.47,5.85,6.66,5.01,11.33,12.77,12.52,20.92Z"/>
        <path class="cls-22" d="m684.67,103.24h-305.52c1.95-4.58,4.41-8.91,7.68-13.41,11.41-15.7,23.12-31.65,38.61-43.36,15.49-11.71,35.6-18.84,54.52-14.43,18.92,4.41,35,22.74,32.63,42.05,12.05-10.14,24.48-20.49,39.33-25.67,14.89-5.22,32.97-4.16,44.42,6.66,10.31,9.76,13.15,25.58,9.97,39.42,8.44-9.12,18.37-14.85,30.38-18.03,12.01-3.18,25.54-1.57,35.47,5.85,6.66,5.01,11.33,12.77,12.52,20.92Z"/>
        <path class="cls-22" d="m220.92,250.45c0,7.21-1.7,14.26-4.24,21.04H56.39c7.64-10.18,17.31-18.84,28.3-25.2,7.59-4.37,16.42-7.76,25.07-6.11,8.61,1.65,16.38,9.97,14.68,18.58,14.38-16.33,31.99-28.77,52.44-36.28,7.89-2.89,16.63-5.05,24.69-2.59,12.35,3.78,19.39,17.65,19.35,30.55Z"/>
        <g>
          <path class="cls-20" d="m891.21,698.29c0-2.34-.07-4.68-.21-7.01-1.38-23.03-8.2-45.36-16.34-66.81-12.7-33.45-28.86-65.59-48.1-95.75-9.47-14.84-19.54-29.44-29.9-43.63-3.89-5.33-7.85-10.62-11.9-15.83-1.19-1.53-4.25-4.12-4.77-6.03-26.02,31.37-47.8,65.26-67.78,100.7-32.09,56.92-67.69,137.85-23.7,198.06,19.62,26.85,52.89,41.99,85.7,43.26,29.07,1.13,58.76-8.04,80.95-26.85,23.65-20.06,36.1-49.34,36.06-80.11Z"/>
          <g>
            <path class="cls-21" d="m778.13,568.62c-.98,1,2.58,319.73-.29,319.52-.55,0-.99-.44-.99-.98.59-.05-.44-320.37,1.29-318.54h0Z"/>
            <line class="cls-2" x1="777.83" y1="777.84" x2="806.06" y2="751.05"/>
            <line class="cls-2" x1="808.24" y1="620.2" x2="778.37" y2="650.61"/>
            <line class="cls-2" x1="777.83" y1="709.24" x2="737.29" y2="677.57"/>
          </g>
        </g>
      </g>
      <path class="cls-11" d="m190.66,360.25v533.18h538.2V360.25H190.66Zm155.55,435.56h-119.54v-140.34h119.54v140.34Zm0-244.95h-119.54v-140.34h119.54v140.34Zm174.3,244.95h-120.53v-140.34h120.53v140.34Zm-1-244.95h-121.51v-140.34h121.51v140.34Zm172.17,0h-121.51v-140.34h121.51v140.34Z"/>
      <g>
        <rect class="cls-12" x="198.73" y="822.55" width="527.12" height="71.88"/>
        <rect class="cls-12" x="198.73" y="598.72" width="527.12" height="16.83"/>
        <rect class="cls-13" x="190.65" y="360.92" width="538.22" height="31.3"/>
        <rect class="cls-12" x="190.66" y="374.05" width="538.2" height="8.07"/>
        <rect class="cls-12" x="190.37" y="360.92" width="8.36" height="533.18"/>
        <rect class="cls-12" x="717.75" y="360.92" width="11.11" height="533.18"/>
      </g>
      <g id="window_frame">
        <rect class="cls-3" x="219.5" y="403.7" width="134.22" height="170.75"/>
        <rect class="cls-6" x="223.93" y="408.71" width="125.13" height="162.07"/>
      </g>
      <g id="window_frame-2" data-name="window_frame">
        <rect class="cls-4" x="391.82" y="403.7" width="134.22" height="170.75"/>
        <rect class="cls-6" x="396.26" y="408.71" width="125.13" height="162.07"/>
      </g>
      <g id="window_frame-3" data-name="window_frame">
        <rect class="cls-4" x="564.14" y="403.7" width="134.22" height="170.75"/>
        <rect class="cls-6" x="568.58" y="408.71" width="125.13" height="162.07"/>
      </g>
      <g id="window_frame-4" data-name="window_frame">
        <rect class="cls-4" x="393.7" y="648.55" width="134.22" height="170.75"/>
        <rect class="cls-6" x="398.13" y="653.57" width="125.13" height="162.07"/>
      </g>
      <g id="window_frame-5" data-name="window_frame">
        <rect class="cls-4" x="219.8" y="648.55" width="134.22" height="170.75"/>
        <rect class="cls-6" x="224.23" y="653.57" width="125.13" height="162.07"/>
      </g>
      <g id="door">
        <rect class="cls-24" x="554.18" y="623.8" width="149.45" height="270.63"/>
        <rect class="cls-14" x="559.9" y="629.47" width="138.68" height="263.78"/>
        <g>
          <g>
            <rect class="cls-7" x="568.82" y="638.53" width="123.2" height="40.9"/>
            <rect class="cls-15" x="603.69" y="637.01" width="2.97" height="42.92"/>
            <rect class="cls-15" x="656.2" y="637.01" width="2.97" height="42.92"/>
          </g>
          <g>
            <g>
              <rect class="cls-23" x="573.28" y="686.07" width="50.49" height="89.87"/>
              <rect class="cls-24" x="578.25" y="690.36" width="40.56" height="80.03"/>
            </g>
            <g>
              <rect class="cls-23" x="573.7" y="781.33" width="50.15" height="31.64"/>
              <rect class="cls-24" x="578" y="784.04" width="41.57" height="26.23"/>
            </g>
            <g>
              <rect class="cls-23" x="636.56" y="781.33" width="50.15" height="31.64"/>
              <rect class="cls-24" x="640.86" y="784.04" width="41.57" height="26.23"/>
            </g>
            <g>
              <rect class="cls-23" x="636.23" y="686.07" width="50.49" height="89.87"/>
              <rect class="cls-24" x="641.53" y="690.36" width="40.56" height="80.03"/>
            </g>
            <g>
              <rect class="cls-23" x="573.28" y="818.36" width="50.49" height="68.67"/>
              <rect class="cls-24" x="578.25" y="821.64" width="40.56" height="61.14"/>
            </g>
            <g>
              <rect class="cls-23" x="636.23" y="818.36" width="50.49" height="68.67"/>
              <rect class="cls-24" x="641.53" y="821.64" width="40.56" height="61.14"/>
            </g>
          </g>
        </g>
      </g>
      <g id="trees">
        <g>
          <path class="cls-8" d="m830.58,893.75h-157.96c1.23-11.47,8.23-22.31,18.43-27.84,8.11-4.39,17.96-5.66,25.07-11.51,7.04-5.77,10.16-14.91,15.11-22.54,8.58-13.29,23.49-22.23,39.23-23.57,15.78-1.34,32,4.94,42.71,16.57,9.37,10.2,14.36,23.81,16.37,37.49,1.54,10.36,1.46,20.88,1.03,31.4Z"/>
          <path class="cls-11" d="m366.34,894.43H124.49c7.21-12,21.83-19.61,35.82-17.48,2.06-28.18,27.18-52.84,55.43-54.33.76-.07,1.53-.07,2.29-.07,27.41-.27,53.67,21.1,58.62,48.15,16.55-10.77,37.55-15.78,56.43-10.1,15.85,4.78,29.34,18.04,33.26,33.83Z"/>
          <path class="cls-15" d="m250.91,894.43H42.21c5.33-11.45,14.56-21.09,25.87-26.73,14.11-7.02,31.23-7.71,45.82-1.8,12.79-19.47,28.88-37.73,50.04-47.38,18.36-8.37,41.22-8.99,58.3,1.11,2.59,1.52,5.08,3.29,7.37,5.33,10.58,9.34,16.6,23,19.26,36.86,2.04,10.72,2.25,21.68,2.04,32.61Z"/>
          <g>
            <path class="cls-25" d="m223.65,704.58c0-2.18-.07-4.36-.2-6.54-1.28-21.47-7.64-42.28-15.23-62.28-11.84-31.18-26.9-61.14-44.84-89.25-8.83-13.84-18.22-27.44-27.87-40.68-3.63-4.97-7.31-9.9-11.09-14.76-1.11-1.43-3.96-3.84-4.44-5.62-24.25,29.24-44.56,60.83-63.19,93.88-29.92,53.06-63.1,128.5-22.1,184.63,18.29,25.03,49.31,39.14,79.88,40.33,27.1,1.05,54.78-7.49,75.46-25.03,22.05-18.7,33.65-46,33.62-74.68Z"/>
            <g>
              <path class="cls-15" d="m118.26,583.7l.69,296.93c0,.55-.44.99-.99.99s-.99-.44-.99-.99c.59-.08-.44-298.75,1.29-296.93h0Z"/>
              <line class="cls-1" x1="117.96" y1="778.73" x2="144.28" y2="753.76"/>
              <line class="cls-1" x1="146.3" y1="631.79" x2="118.47" y2="660.13"/>
              <line class="cls-1" x1="117.96" y1="714.79" x2="80.17" y2="685.27"/>
            </g>
          </g>
        </g>
      </g>
      <g>
        <path class="cls-23" d="m735.27,340.39s-553.35-1.34-553.35.67l.83-1.9.36-.91,4.63-10.72.36-.91,4.63-10.72.36-.87,4.59-10.72.4-.91,4.59-10.72.4-.91,4.59-10.72.4-.87,4.59-10.72.4-.91,4.59-10.72.36-.87,4.59-10.72.4-.91,4.59-10.72.39-.91,4.59-10.72.4-.87,4.59-10.72.4-.91,4.35-10.2.4-.91,3.92-9.14h428.13l3.68,9.14.4.91,4.11,10.2.36.91,4.31,10.72.36.87,4.35,10.72.36.91,4.31,10.72.36.91,4.35,10.72.36.87,4.31,10.72.36.91,4.35,10.72.36.87,4.31,10.72.36.91,4.35,10.72.36.91,4.31,10.72.36.87,4.35,10.72.36.91,4.31,10.72.36.91.51,1.23Z"/>
        <rect class="cls-14" x="177.19" y="339.71" width="563.47" height="20.87"/>
        <path class="cls-17" d="m735.27,340.39s-553.35-1.34-553.35.67l.83-1.9.36-.91,4.63-10.72.36-.91,4.63-10.72.36-.87,4.59-10.72.4-.91,4.59-10.72.4-.91,4.59-10.72.4-.87,4.59-10.72.4-.91,4.59-10.72.36-.87,4.59-10.72.4-.91,4.59-10.72.39-.91,4.59-10.72.4-.87,4.59-10.72.4-.91,4.35-10.2.4-.91,3.92-9.14h428.13l3.68,9.14.4.91,4.11,10.2.36.91,4.31,10.72.36.87,4.35,10.72.36.91,4.31,10.72.36.91,4.35,10.72.36.87,4.31,10.72.36.91,4.35,10.72.36.87,4.31,10.72.36.91,4.35,10.72.36.91,4.31,10.72.36.87,4.35,10.72.36.91,4.31,10.72.36.91.51,1.23Z"/>
        <g>
          <polygon class="cls-15" points="678.75 200.31 242.23 200.31 242.63 199.4 678.36 199.4 678.75 200.31"/>
          <polygon class="cls-15" points="683.22 211.42 237.49 211.42 237.88 210.51 682.87 210.51 683.22 211.42"/>
          <polygon class="cls-15" points="687.89 223.01 232.5 223.01 232.9 222.14 687.53 222.14 687.89 223.01"/>
          <polygon class="cls-15" points="692.6 234.64 227.52 234.64 227.92 233.73 692.24 233.73 692.6 234.64"/>
          <polygon class="cls-15" points="697.26 246.26 222.54 246.26 222.93 245.35 696.91 245.35 697.26 246.26"/>
          <polygon class="cls-15" points="701.97 257.85 217.59 257.85 217.95 256.98 701.61 256.98 701.97 257.85"/>
          <polygon class="cls-15" points="706.64 269.48 212.61 269.48 213.01 268.57 706.28 268.57 706.64 269.48"/>
          <polygon class="cls-15" points="711.34 281.07 207.63 281.07 208.02 280.2 710.99 280.2 711.34 281.07"/>
          <polygon class="cls-15" points="716.01 292.7 202.64 292.7 203.04 291.79 715.65 291.79 716.01 292.7"/>
          <polygon class="cls-15" points="720.72 304.32 197.66 304.32 198.06 303.41 720.36 303.41 720.72 304.32"/>
          <polygon class="cls-15" points="725.38 315.91 192.72 315.91 193.07 315.04 725.03 315.04 725.38 315.91"/>
          <polygon class="cls-15" points="730.09 327.54 187.73 327.54 188.09 326.63 729.73 326.63 730.09 327.54"/>
          <polygon class="cls-15" points="734.76 339.17 182.75 339.17 183.11 338.26 734.4 338.26 734.76 339.17"/>
        </g>
        <g>
          <polygon class="cls-11" points="319.74 208.61 319.74 308.83 417.19 308.83 417.19 208.86 368.21 165.94 319.74 208.61"/>
          <polyline class="cls-5" points="317.47 210.62 368.21 165.94 419.96 210.88"/>
          <g>
            <g>
              <rect class="cls-19" x="333.96" y="211.13" width="68.67" height="84.82"/>
              <rect class="cls-14" x="336.41" y="214.16" width="63.76" height="78.76"/>
              <rect class="cls-7" x="338.59" y="216.85" width="59.4" height="73.38"/>
              <polygon class="cls-9" points="398.01 216.87 398.01 218.53 340.27 218.53 340.27 290.23 338.61 290.23 338.61 216.87 398.01 216.87"/>
              <rect class="cls-14" x="356.01" y="215.34" width="2.69" height="75.9"/>
              <rect class="cls-14" x="366.61" y="207.43" width="2.69" height="62.78" transform="translate(606.77 -129.14) rotate(90)"/>
              <rect class="cls-14" x="366.61" y="233.35" width="2.69" height="62.78" transform="translate(632.69 -103.22) rotate(90)"/>
              <rect class="cls-14" x="379.57" y="215.34" width="2.69" height="75.9"/>
              <rect class="cls-14" x="329.46" y="292.92" width="77.38" height="6.56"/>
            </g>
            <rect class="cls-18" x="330.93" y="299.49" width="74.22" height="7.07"/>
          </g>
        </g>
        <g>
          <polygon class="cls-11" points="504.87 208.61 504.87 308.83 602.32 308.83 602.32 208.86 553.34 165.94 504.87 208.61"/>
          <polyline class="cls-5" points="502.6 210.62 553.34 165.94 605.09 210.88"/>
          <g>
            <g>
              <rect class="cls-19" x="519.09" y="211.13" width="68.67" height="84.82"/>
              <rect class="cls-14" x="521.54" y="214.16" width="63.76" height="78.76"/>
              <rect class="cls-7" x="523.72" y="216.85" width="59.4" height="73.38"/>
              <polygon class="cls-9" points="583.14 216.87 583.14 218.53 525.4 218.53 525.4 290.23 523.74 290.23 523.74 216.87 583.14 216.87"/>
              <rect class="cls-14" x="541.14" y="215.34" width="2.69" height="75.9"/>
              <rect class="cls-14" x="551.74" y="207.43" width="2.69" height="62.78" transform="translate(791.9 -314.27) rotate(90)"/>
              <rect class="cls-14" x="551.74" y="233.35" width="2.69" height="62.78" transform="translate(817.82 -288.35) rotate(90)"/>
              <rect class="cls-14" x="564.7" y="215.34" width="2.69" height="75.9"/>
              <rect class="cls-14" x="514.59" y="292.92" width="77.38" height="6.56"/>
            </g>
            <rect class="cls-16" x="516.06" y="299.49" width="74.22" height="7.07"/>
          </g>
        </g>
      </g>
    </g>
  </g>
</svg>