<?xml version="1.0" encoding="UTF-8"?>
<svg id="background" xmlns="http://www.w3.org/2000/svg" viewBox="0 0 500 500">
  <defs>
    <style>
      .cls-1 {
        fill: none;
        stroke: #3c464e;
        stroke-linecap: round;
        stroke-linejoin: round;
        stroke-width: .99px;
      }

      .cls-2 {
        fill: #da9797;
      }

      .cls-3 {
        fill: #3c464e;
      }

      .cls-4 {
        fill: #e8e8e8;
      }
    </style>
  </defs>
  <path class="cls-4" d="m451.16,161.9h-151.6c.97-2.27,2.19-4.42,3.81-6.65,5.66-7.79,11.47-15.7,19.16-21.51,7.68-5.81,17.66-9.35,27.05-7.16,9.39,2.19,17.37,11.28,16.19,20.86,5.98-5.03,12.15-10.17,19.52-12.74,7.39-2.59,16.36-2.06,22.04,3.31,5.12,4.84,6.53,12.69,4.95,19.56,4.19-4.53,9.12-7.37,15.07-8.95,5.96-1.58,12.67-.78,17.6,2.9,3.3,2.48,5.62,6.34,6.21,10.38Z"/>
  <path class="cls-4" d="m383.28,66.56h-151.6c.97-2.27,2.19-4.42,3.81-6.65,5.66-7.79,11.47-15.7,19.16-21.52,7.68-5.81,17.66-9.35,27.05-7.16,9.39,2.19,17.37,11.28,16.19,20.86,5.98-5.03,12.15-10.17,19.52-12.74,7.39-2.59,16.36-2.06,22.04,3.31,5.12,4.84,6.53,12.69,4.95,19.56,4.19-4.53,9.12-7.37,15.07-8.95,5.96-1.58,12.67-.78,17.6,2.91,3.3,2.48,5.62,6.34,6.21,10.38Z"/>
  <path class="cls-4" d="m153.18,139.61c0,3.58-.84,7.07-2.11,10.44h-79.53c3.79-5.05,8.59-9.35,14.04-12.5,3.77-2.17,8.15-3.85,12.44-3.03,4.27.82,8.13,4.95,7.28,9.22,7.14-8.11,15.87-14.27,26.02-18,3.92-1.43,8.25-2.51,12.25-1.28,6.13,1.87,9.62,8.76,9.6,15.16Z"/>
  <g>
    <path class="cls-2" d="m485.76,361.82c0-1.16-.04-2.32-.11-3.48-.68-11.43-4.07-22.51-8.11-33.15-6.3-16.6-14.32-32.54-23.87-47.51-4.7-7.37-9.7-14.61-14.84-21.65-1.93-2.65-3.89-5.27-5.9-7.86-.59-.76-2.11-2.04-2.37-2.99-12.91,15.57-23.72,32.38-33.63,49.97-15.92,28.24-33.59,68.4-11.76,98.28,9.73,13.32,26.24,20.84,42.52,21.47,14.42.56,29.16-3.99,40.17-13.32,11.74-9.95,17.91-24.48,17.89-39.75Z"/>
    <g>
      <path class="cls-3" d="m429.8,297.48l.69,158.05c0,.55-.44.99-.98.99s-.99-.44-.99-.98c.58-.1-.42-159.86,1.29-158.06h0Z"/>
      <line class="cls-1" x1="429.5" y1="401.29" x2="443.51" y2="388"/>
      <line class="cls-1" x1="444.59" y1="323.07" x2="429.77" y2="338.16"/>
      <line class="cls-1" x1="429.5" y1="367.26" x2="409.39" y2="351.54"/>
    </g>
  </g>
</svg>