<?xml version="1.0" encoding="UTF-8"?>
<svg xmlns="http://www.w3.org/2000/svg" xmlns:xlink="http://www.w3.org/1999/xlink" viewBox="0 0 550 550">
  <defs>
    <style>
      .cls-1, .cls-2 {
        stroke-linecap: round;
        stroke-linejoin: round;
        stroke-width: .99px;
      }

      .cls-1, .cls-2, .cls-3, .cls-4, .cls-5, .cls-6 {
        fill: none;
      }

      .cls-1, .cls-6 {
        stroke: #2e2f40;
      }

      .cls-2 {
        stroke: #3c464e;
      }

      .cls-7, .cls-8, .cls-9 {
        fill: #f2d0d0;
      }

      .cls-3 {
        stroke: #c2dff0;
      }

      .cls-3, .cls-4 {
        stroke-width: 2px;
      }

      .cls-3, .cls-4, .cls-5, .cls-8, .cls-6 {
        stroke-miterlimit: 10;
      }

      .cls-10 {
        isolation: isolate;
      }

      .cls-4 {
        stroke: #c5d0d9;
      }

      .cls-5 {
        stroke: #2a2a2a;
      }

      .cls-11 {
        fill: #98b0bc;
      }

      .cls-12, .cls-13 {
        fill: #dde6ed;
      }

      .cls-8 {
        stroke: #f2d0d0;
      }

      .cls-14 {
        fill: #2a2a2a;
      }

      .cls-15 {
        fill: #2e2f40;
      }

      .cls-16 {
        fill: url(#linear-gradient-3);
      }

      .cls-16, .cls-17, .cls-18, .cls-13, .cls-9 {
        mix-blend-mode: multiply;
      }

      .cls-16, .cls-18 {
        opacity: .21;
      }

      .cls-17 {
        fill: url(#linear-gradient);
        opacity: .31;
      }

      .cls-19 {
        fill: #8090a6;
      }

      .cls-20 {
        fill: #da9797;
      }

      .cls-18 {
        fill: url(#linear-gradient-2);
      }

      .cls-21 {
        fill: #3c464e;
      }

      .cls-22 {
        fill: #e8e8e8;
      }

      .cls-23 {
        fill: #6a7b8a;
      }

      .cls-6 {
        stroke-width: 3px;
      }

      .cls-24 {
        fill: #738696;
      }

      .cls-25 {
        fill: #c2dff0;
      }

      .cls-13 {
        opacity: .39;
      }
    </style>
    <linearGradient id="linear-gradient" x1="285.58" y1="102.12" x2="285.58" y2="208.39" gradientUnits="userSpaceOnUse">
      <stop offset="0" stop-color="#c5d0d9" stop-opacity="0"/>
      <stop offset="1" stop-color="#64718c"/>
    </linearGradient>
    <linearGradient id="linear-gradient-2" x1="232.27" y1="186.35" x2="232.27" y2="182.09" xlink:href="#linear-gradient"/>
    <linearGradient id="linear-gradient-3" x1="341.27" y1="186.35" x2="341.27" y2="182.09" xlink:href="#linear-gradient"/>
  </defs>
  <g class="cls-10">
    <g id="sized_up_bg">
      <g>
        <path class="cls-22" d="m499.25,179.08h-179.89c1.15-2.7,2.6-5.25,4.52-7.89,6.72-9.24,13.61-18.64,22.73-25.53,9.12-6.9,20.96-11.09,32.1-8.49,11.14,2.6,20.61,13.39,19.21,24.76,7.1-5.97,14.41-12.07,23.16-15.11,8.77-3.07,19.41-2.45,26.16,3.92,6.07,5.75,7.74,15.06,5.87,23.21,4.97-5.37,10.82-8.74,17.89-10.62,7.07-1.87,15.04-.92,20.89,3.45,3.92,2.95,6.67,7.52,7.37,12.32Z"/>
        <path class="cls-22" d="m418.7,65.94h-179.89c1.15-2.7,2.6-5.25,4.52-7.89,6.72-9.24,13.62-18.64,22.73-25.53,9.12-6.89,20.96-11.09,32.1-8.49,11.14,2.6,20.61,13.39,19.21,24.76,7.09-5.97,14.41-12.07,23.16-15.11,8.77-3.07,19.41-2.45,26.16,3.92,6.07,5.75,7.74,15.06,5.87,23.21,4.97-5.37,10.82-8.74,17.89-10.62,7.07-1.87,15.04-.92,20.89,3.45,3.92,2.95,6.67,7.52,7.37,12.32Z"/>
        <path class="cls-22" d="m145.64,152.63c0,4.25-1,8.39-2.5,12.39H48.76c4.5-6,10.19-11.09,16.66-14.84,4.47-2.57,9.67-4.57,14.76-3.6,5.07.97,9.64,5.87,8.64,10.94,8.47-9.62,18.84-16.94,30.88-21.36,4.65-1.7,9.79-2.97,14.54-1.52,7.27,2.22,11.42,10.39,11.39,17.99Z"/>
        <g>
          <path class="cls-20" d="m540.31,416.32c0-1.38-.04-2.75-.13-4.13-.81-13.56-4.83-26.71-9.62-39.34-7.48-19.7-16.99-38.62-28.32-56.38-5.58-8.74-11.51-17.33-17.61-25.69-2.29-3.14-4.62-6.25-7-9.32-.7-.9-2.5-2.43-2.81-3.55-15.32,18.47-28.15,38.42-39.91,59.3-18.9,33.52-39.86,81.17-13.96,116.62,11.55,15.81,31.14,24.72,50.46,25.47,17.12.66,34.6-4.73,47.66-15.81,13.93-11.81,21.26-29.05,21.23-47.17Z"/>
          <g>
            <path class="cls-21" d="m473.85,339.97l.69,187.55c0,.55-.44.99-.98.99s-.99-.44-.99-.98c.58-.12-.42-189.35,1.29-187.56h0Z"/>
            <line class="cls-2" x1="473.55" y1="463.15" x2="490.18" y2="447.38"/>
            <line class="cls-2" x1="491.45" y1="370.34" x2="473.87" y2="388.24"/>
            <line class="cls-2" x1="473.55" y1="422.77" x2="449.68" y2="404.12"/>
          </g>
        </g>
      </g>
      <path class="cls-11" d="m127.82,217.28v313.94h316.9V217.28H127.82Zm91.59,256.46h-70.38v-82.64h70.38v82.64Zm0-144.23h-70.38v-82.64h70.38v82.64Zm102.63,144.23h-70.97v-82.64h70.97v82.64Zm-.59-144.23h-71.55v-82.64h71.55v82.64Zm101.38,0h-71.55v-82.64h71.55v82.64Z"/>
      <g>
        <rect class="cls-12" x="132.57" y="489.48" width="310.37" height="42.32"/>
        <rect class="cls-12" x="132.57" y="357.69" width="310.37" height="9.91"/>
        <rect class="cls-13" x="127.82" y="217.67" width="316.91" height="18.43"/>
        <rect class="cls-12" x="127.82" y="225.4" width="316.9" height="4.75"/>
        <rect class="cls-12" x="127.65" y="217.67" width="4.92" height="313.94"/>
        <rect class="cls-12" x="438.18" y="217.67" width="6.54" height="313.94"/>
      </g>
      <g id="window_frame">
        <rect class="cls-3" x="144.8" y="242.86" width="79.03" height="100.54"/>
        <rect class="cls-6" x="147.41" y="245.81" width="73.68" height="95.43"/>
      </g>
      <g id="window_frame-2" data-name="window_frame">
        <rect class="cls-4" x="246.27" y="242.86" width="79.03" height="100.54"/>
        <rect class="cls-6" x="248.88" y="245.81" width="73.68" height="95.43"/>
      </g>
      <g id="window_frame-3" data-name="window_frame">
        <rect class="cls-4" x="347.73" y="242.86" width="79.03" height="100.54"/>
        <rect class="cls-6" x="350.34" y="245.81" width="73.68" height="95.43"/>
      </g>
      <g id="window_frame-4" data-name="window_frame">
        <rect class="cls-4" x="247.37" y="387.03" width="79.03" height="100.54"/>
        <rect class="cls-6" x="249.98" y="389.98" width="73.68" height="95.43"/>
      </g>
      <g id="window_frame-5" data-name="window_frame">
        <rect class="cls-4" x="144.98" y="387.03" width="79.03" height="100.54"/>
        <rect class="cls-6" x="147.59" y="389.98" width="73.68" height="95.43"/>
      </g>
      <g id="door">
        <rect class="cls-24" x="341.87" y="372.46" width="88" height="159.35"/>
        <rect class="cls-14" x="345.24" y="375.79" width="81.66" height="155.32"/>
        <g>
          <g>
            <rect class="cls-7" x="350.49" y="381.13" width="72.54" height="24.08"/>
            <rect class="cls-15" x="371.02" y="380.24" width="1.75" height="25.27"/>
            <rect class="cls-15" x="401.94" y="380.24" width="1.75" height="25.27"/>
          </g>
          <g>
            <g>
              <rect class="cls-23" x="353.11" y="409.12" width="29.73" height="52.92"/>
              <rect class="cls-24" x="356.04" y="411.65" width="23.88" height="47.12"/>
            </g>
            <g>
              <rect class="cls-23" x="353.36" y="465.21" width="29.53" height="18.63"/>
              <rect class="cls-24" x="355.89" y="466.81" width="24.48" height="15.44"/>
            </g>
            <g>
              <rect class="cls-23" x="390.37" y="465.21" width="29.53" height="18.63"/>
              <rect class="cls-24" x="392.9" y="466.81" width="24.48" height="15.44"/>
            </g>
            <g>
              <rect class="cls-23" x="390.18" y="409.12" width="29.73" height="52.92"/>
              <rect class="cls-24" x="393.3" y="411.65" width="23.88" height="47.12"/>
            </g>
            <g>
              <rect class="cls-23" x="353.11" y="487.01" width="29.73" height="40.43"/>
              <rect class="cls-24" x="356.04" y="488.94" width="23.88" height="36"/>
            </g>
            <g>
              <rect class="cls-23" x="390.18" y="487.01" width="29.73" height="40.43"/>
              <rect class="cls-24" x="393.3" y="488.94" width="23.88" height="36"/>
            </g>
          </g>
        </g>
      </g>
      <g id="trees">
        <g>
          <path class="cls-8" d="m504.61,531.41h-93.01c.72-6.75,4.84-13.13,10.85-16.39,4.77-2.58,10.57-3.33,14.76-6.78,4.15-3.4,5.99-8.78,8.9-13.27,5.05-7.82,13.83-13.09,23.1-13.88,9.29-.79,18.84,2.91,25.15,9.76,5.52,6.01,8.45,14.02,9.64,22.08.91,6.1.86,12.3.61,18.49Z"/>
          <path class="cls-11" d="m231.27,531.8H88.86c4.25-7.06,12.85-11.54,21.09-10.29,1.21-16.59,16.01-31.11,32.64-31.99.45-.04.9-.04,1.35-.04,16.14-.16,31.6,12.42,34.51,28.35,9.74-6.34,22.11-9.29,33.22-5.95,9.33,2.82,17.28,10.62,19.59,19.92Z"/>
          <path class="cls-15" d="m163.3,531.8H40.42c3.14-6.74,8.57-12.42,15.23-15.74,8.31-4.13,18.39-4.54,26.98-1.06,7.53-11.46,17-22.21,29.46-27.9,10.81-4.93,24.27-5.29,34.33.65,1.53.9,2.99,1.93,4.34,3.14,6.23,5.5,9.77,13.54,11.34,21.71,1.2,6.31,1.32,12.77,1.2,19.2Z"/>
          <g>
            <path class="cls-25" d="m147.25,420.02c0-1.28-.04-2.57-.12-3.85-.75-12.64-4.5-24.9-8.97-36.67-6.97-18.36-15.84-36-26.4-52.55-5.2-8.15-10.73-16.16-16.41-23.95-2.14-2.93-4.31-5.83-6.53-8.69-.65-.84-2.33-2.26-2.62-3.31-14.28,17.22-26.24,35.82-37.21,55.27-17.61,31.24-37.15,75.66-13.01,108.71,10.77,14.74,29.03,23.05,47.04,23.75,15.96.62,32.25-4.41,44.43-14.74,12.98-11.01,19.82-27.08,19.79-43.97Z"/>
            <g>
              <path class="cls-15" d="m85.31,348.85l.69,174.83c0,.55-.44.99-.98.99-.55,0-.99-.44-.99-.98.58-.11-.42-176.63,1.29-174.84h0Z"/>
              <line class="cls-1" x1="85.02" y1="463.68" x2="100.51" y2="448.98"/>
              <line class="cls-1" x1="101.7" y1="377.16" x2="85.31" y2="393.85"/>
              <line class="cls-1" x1="85.02" y1="426.03" x2="62.76" y2="408.65"/>
            </g>
          </g>
        </g>
      </g>
      <g>
        <path class="cls-23" d="m448.49,205.59s-325.82-.79-325.82.4l.49-1.12.21-.54,2.72-6.31.21-.54,2.72-6.31.21-.51,2.7-6.31.23-.54,2.7-6.31.23-.54,2.7-6.31.23-.51,2.7-6.31.23-.54,2.7-6.31.21-.51,2.7-6.31.23-.54,2.7-6.31.23-.54,2.7-6.31.23-.51,2.7-6.31.23-.54,2.56-6.01.23-.54,2.31-5.38h252.09l2.17,5.38.23.54,2.42,6.01.21.54,2.54,6.31.21.51,2.56,6.31.21.54,2.54,6.31.21.54,2.56,6.31.21.51,2.54,6.31.21.54,2.56,6.31.21.51,2.54,6.31.21.54,2.56,6.31.21.54,2.54,6.31.21.51,2.56,6.31.21.54,2.54,6.31.21.54.3.72Z"/>
        <rect class="cls-14" x="119.89" y="205.18" width="331.77" height="12.29"/>
        <path class="cls-17" d="m448.49,205.59s-325.82-.79-325.82.4l.49-1.12.21-.54,2.72-6.31.21-.54,2.72-6.31.21-.51,2.7-6.31.23-.54,2.7-6.31.23-.54,2.7-6.31.23-.51,2.7-6.31.23-.54,2.7-6.31.21-.51,2.7-6.31.23-.54,2.7-6.31.23-.54,2.7-6.31.23-.51,2.7-6.31.23-.54,2.56-6.01.23-.54,2.31-5.38h252.09l2.17,5.38.23.54,2.42,6.01.21.54,2.54,6.31.21.51,2.56,6.31.21.54,2.54,6.31.21.54,2.56,6.31.21.51,2.54,6.31.21.54,2.56,6.31.21.51,2.54,6.31.21.54,2.56,6.31.21.54,2.54,6.31.21.51,2.56,6.31.21.54,2.54,6.31.21.54.3.72Z"/>
        <g>
          <polygon class="cls-15" points="415.21 123.1 158.19 123.1 158.42 122.56 414.98 122.56 415.21 123.1"/>
          <polygon class="cls-15" points="417.85 129.64 155.39 129.64 155.63 129.11 417.64 129.11 417.85 129.64"/>
          <polygon class="cls-15" points="420.59 136.47 152.46 136.47 152.69 135.95 420.38 135.95 420.59 136.47"/>
          <polygon class="cls-15" points="423.37 143.31 149.53 143.31 149.76 142.78 423.16 142.78 423.37 143.31"/>
          <polygon class="cls-15" points="426.11 150.16 146.59 150.16 146.82 149.62 425.9 149.62 426.11 150.16"/>
          <polygon class="cls-15" points="428.88 156.98 143.68 156.98 143.89 156.47 428.67 156.47 428.88 156.98"/>
          <polygon class="cls-15" points="431.63 163.83 140.75 163.83 140.98 163.29 431.42 163.29 431.63 163.83"/>
          <polygon class="cls-15" points="434.4 170.65 137.81 170.65 138.05 170.14 434.19 170.14 434.4 170.65"/>
          <polygon class="cls-15" points="437.15 177.5 134.88 177.5 135.11 176.96 436.94 176.96 437.15 177.5"/>
          <polygon class="cls-15" points="439.92 184.35 131.94 184.35 132.18 183.81 439.71 183.81 439.92 184.35"/>
          <polygon class="cls-15" points="442.67 191.17 129.03 191.17 129.24 190.66 442.46 190.66 442.67 191.17"/>
          <polygon class="cls-15" points="445.44 198.02 126.1 198.02 126.31 197.48 445.23 197.48 445.44 198.02"/>
          <polygon class="cls-15" points="448.19 204.86 123.16 204.86 123.37 204.33 447.98 204.33 448.19 204.86"/>
        </g>
        <g>
          <polygon class="cls-11" points="203.82 127.99 203.82 187 261.2 187 261.2 128.14 232.36 102.87 203.82 127.99"/>
          <polyline class="cls-5" points="202.49 129.18 232.36 102.87 262.84 129.32"/>
          <g>
            <g>
              <rect class="cls-19" x="212.2" y="129.47" width="40.43" height="49.94"/>
              <rect class="cls-14" x="213.64" y="131.26" width="37.54" height="46.38"/>
              <rect class="cls-7" x="214.93" y="132.84" width="34.98" height="43.21"/>
              <polygon class="cls-9" points="249.91 132.85 249.91 133.83 215.91 133.83 215.91 176.05 214.94 176.05 214.94 132.85 249.91 132.85"/>
              <rect class="cls-14" x="225.18" y="131.95" width="1.59" height="44.69"/>
              <rect class="cls-14" x="231.42" y="127.29" width="1.59" height="36.96" transform="translate(377.99 -86.44) rotate(90)"/>
              <rect class="cls-14" x="231.42" y="142.55" width="1.59" height="36.96" transform="translate(393.25 -71.18) rotate(90)"/>
              <rect class="cls-14" x="239.05" y="131.95" width="1.59" height="44.69"/>
              <rect class="cls-14" x="209.55" y="177.63" width="45.56" height="3.86"/>
            </g>
            <rect class="cls-18" x="210.41" y="181.5" width="43.7" height="4.16"/>
          </g>
        </g>
        <g>
          <polygon class="cls-11" points="312.83 127.99 312.83 187 370.21 187 370.21 128.14 341.37 102.87 312.83 127.99"/>
          <polyline class="cls-5" points="311.49 129.18 341.37 102.87 371.84 129.32"/>
          <g>
            <g>
              <rect class="cls-19" x="321.2" y="129.47" width="40.43" height="49.94"/>
              <rect class="cls-14" x="322.65" y="131.26" width="37.54" height="46.38"/>
              <rect class="cls-7" x="323.93" y="132.84" width="34.98" height="43.21"/>
              <polygon class="cls-9" points="358.92 132.85 358.92 133.83 324.92 133.83 324.92 176.05 323.94 176.05 323.94 132.85 358.92 132.85"/>
              <rect class="cls-14" x="334.19" y="131.95" width="1.59" height="44.69"/>
              <rect class="cls-14" x="340.43" y="127.29" width="1.59" height="36.96" transform="translate(487 -195.45) rotate(90)"/>
              <rect class="cls-14" x="340.43" y="142.55" width="1.59" height="36.96" transform="translate(502.26 -180.19) rotate(90)"/>
              <rect class="cls-14" x="348.06" y="131.95" width="1.59" height="44.69"/>
              <rect class="cls-14" x="318.55" y="177.63" width="45.56" height="3.86"/>
            </g>
            <rect class="cls-16" x="319.42" y="181.5" width="43.7" height="4.16"/>
          </g>
        </g>
      </g>
    </g>
  </g>
</svg>