<?xml version="1.0" encoding="UTF-8"?>
<svg id="curtain" xmlns="http://www.w3.org/2000/svg" viewBox="0 0 85.33 87.33">
  <defs>
    <style>
      .cls-1 {
        fill: #f2d0d0;
      }

      .cls-2 {
        fill: #dde6ed;
      }

      .cls-3 {
        fill: #da9797;
      }
    </style>
  </defs>
  <rect class="cls-2" x="70.37" y="4.68" width="2.46" height="77.99" rx="1.23" ry="1.23"/>
  <rect class="cls-2" x="12.6" y="4.68" width="2.46" height="77.99" rx="1.23" ry="1.23"/>
  <path class="cls-1" d="m73.17,6.17H12.16c-1.9,0-3.45,1.08-3.45,2.41s1.54,2.41,3.45,2.41h61c1.9,0,3.45-1.08,3.45-2.41s-1.54-2.41-3.45-2.41Z"/>
  <path class="cls-3" d="m73.17,12.05H12.16c-1.9,0-3.45,1.08-3.45,2.41s1.54,2.41,3.45,2.41h61c1.9,0,3.45-1.08,3.45-2.41s-1.54-2.41-3.45-2.41Z"/>
  <path class="cls-1" d="m73.17,17.92H12.16c-1.9,0-3.45,1.08-3.45,2.41s1.54,2.41,3.45,2.41h61c1.9,0,3.45-1.08,3.45-2.41s-1.54-2.41-3.45-2.41Z"/>
  <path class="cls-3" d="m73.17,23.8H12.16c-1.9,0-3.45,1.08-3.45,2.41s1.54,2.41,3.45,2.41h61c1.9,0,3.45-1.08,3.45-2.41s-1.54-2.41-3.45-2.41Z"/>
  <path class="cls-1" d="m73.17,29.67H12.16c-1.9,0-3.45,1.08-3.45,2.41s1.54,2.41,3.45,2.41h61c1.9,0,3.45-1.08,3.45-2.41s-1.54-2.41-3.45-2.41Z"/>
  <path class="cls-3" d="m73.17,35.55H12.16c-1.9,0-3.45,1.08-3.45,2.41s1.54,2.41,3.45,2.41h61c1.9,0,3.45-1.08,3.45-2.41s-1.54-2.41-3.45-2.41Z"/>
  <path class="cls-1" d="m73.17,41.42H12.16c-1.9,0-3.45,1.08-3.45,2.41s1.54,2.41,3.45,2.41h61c1.9,0,3.45-1.08,3.45-2.41s-1.54-2.41-3.45-2.41Z"/>
  <path class="cls-3" d="m73.17,47.29H12.16c-1.9,0-3.45,1.08-3.45,2.41s1.54,2.41,3.45,2.41h61c1.9,0,3.45-1.08,3.45-2.41s-1.54-2.41-3.45-2.41Z"/>
  <path class="cls-1" d="m73.17,53.17H12.16c-1.9,0-3.45,1.08-3.45,2.41s1.54,2.41,3.45,2.41h61c1.9,0,3.45-1.08,3.45-2.41s-1.54-2.41-3.45-2.41Z"/>
  <path class="cls-3" d="m73.17,59.04H12.16c-1.9,0-3.45,1.08-3.45,2.41s1.54,2.41,3.45,2.41h61c1.9,0,3.45-1.08,3.45-2.41s-1.54-2.41-3.45-2.41Z"/>
  <path class="cls-1" d="m73.17,64.92H12.16c-1.9,0-3.45,1.08-3.45,2.41s1.54,2.41,3.45,2.41h61c1.9,0,3.45-1.08,3.45-2.41s-1.54-2.41-3.45-2.41Z"/>
  <path class="cls-3" d="m73.17,70.79H12.16c-1.9,0-3.45,1.08-3.45,2.41s1.54,2.41,3.45,2.41h61c1.9,0,3.45-1.08,3.45-2.41s-1.54-2.41-3.45-2.41Z"/>
  <path class="cls-1" d="m73.17,76.67H12.16c-1.9,0-3.45,1.08-3.45,2.41s1.54,2.41,3.45,2.41h61c1.9,0,3.45-1.08,3.45-2.41s-1.54-2.41-3.45-2.41Z"/>
</svg>