<?xml version="1.0" encoding="UTF-8"?>
<svg id="curtain" xmlns="http://www.w3.org/2000/svg" viewBox="0 0 77 91">
  <defs>
    <style>
      .cls-1 {
        fill: #f2d0d0;
      }

      .cls-2 {
        fill: #dde6ed;
      }

      .cls-3 {
        fill: #da9797;
      }
    </style>
  </defs>
  <rect class="cls-2" x="69.7" y=".71" width="2.77" height="89.57" rx="1.23" ry="1.23"/>
  <rect class="cls-2" x="4.64" y=".71" width="2.77" height="89.57" rx="1.23" ry="1.23"/>
  <path class="cls-1" d="m72.85,2.43H4.15C2.01,2.43.27,3.67.27,5.2s1.74,2.77,3.88,2.77h68.69c2.14,0,3.88-1.24,3.88-2.77s-1.74-2.77-3.88-2.77Z"/>
  <path class="cls-3" d="m72.85,9.18H4.15c-2.14,0-3.88,1.24-3.88,2.77s1.74,2.77,3.88,2.77h68.69c2.14,0,3.88-1.24,3.88-2.77s-1.74-2.77-3.88-2.77Z"/>
  <path class="cls-1" d="m72.85,15.93H4.15c-2.14,0-3.88,1.24-3.88,2.77s1.74,2.77,3.88,2.77h68.69c2.14,0,3.88-1.24,3.88-2.77s-1.74-2.77-3.88-2.77Z"/>
  <path class="cls-3" d="m72.85,22.67H4.15c-2.14,0-3.88,1.24-3.88,2.77s1.74,2.77,3.88,2.77h68.69c2.14,0,3.88-1.24,3.88-2.77s-1.74-2.77-3.88-2.77Z"/>
  <path class="cls-1" d="m72.85,29.42H4.15c-2.14,0-3.88,1.24-3.88,2.77s1.74,2.77,3.88,2.77h68.69c2.14,0,3.88-1.24,3.88-2.77s-1.74-2.77-3.88-2.77Z"/>
  <path class="cls-3" d="m72.85,36.17H4.15c-2.14,0-3.88,1.24-3.88,2.77s1.74,2.77,3.88,2.77h68.69c2.14,0,3.88-1.24,3.88-2.77s-1.74-2.77-3.88-2.77Z"/>
  <path class="cls-1" d="m72.85,42.91H4.15c-2.14,0-3.88,1.24-3.88,2.77s1.74,2.77,3.88,2.77h68.69c2.14,0,3.88-1.24,3.88-2.77s-1.74-2.77-3.88-2.77Z"/>
  <path class="cls-3" d="m72.85,49.66H4.15c-2.14,0-3.88,1.24-3.88,2.77s1.74,2.77,3.88,2.77h68.69c2.14,0,3.88-1.24,3.88-2.77s-1.74-2.77-3.88-2.77Z"/>
  <path class="cls-1" d="m72.85,56.41H4.15c-2.14,0-3.88,1.24-3.88,2.77s1.74,2.77,3.88,2.77h68.69c2.14,0,3.88-1.24,3.88-2.77s-1.74-2.77-3.88-2.77Z"/>
  <path class="cls-3" d="m72.85,63.16H4.15c-2.14,0-3.88,1.24-3.88,2.77s1.74,2.77,3.88,2.77h68.69c2.14,0,3.88-1.24,3.88-2.77s-1.74-2.77-3.88-2.77Z"/>
  <path class="cls-1" d="m72.85,69.9H4.15c-2.14,0-3.88,1.24-3.88,2.77s1.74,2.77,3.88,2.77h68.69c2.14,0,3.88-1.24,3.88-2.77s-1.74-2.77-3.88-2.77Z"/>
  <path class="cls-3" d="m72.85,76.65H4.15c-2.14,0-3.88,1.24-3.88,2.77s1.74,2.77,3.88,2.77h68.69c2.14,0,3.88-1.24,3.88-2.77s-1.74-2.77-3.88-2.77Z"/>
  <path class="cls-1" d="m72.85,83.4H4.15c-2.14,0-3.88,1.24-3.88,2.77s1.74,2.77,3.88,2.77h68.69c2.14,0,3.88-1.24,3.88-2.77s-1.74-2.77-3.88-2.77Z"/>
</svg>