<?xml version="1.0" encoding="UTF-8"?>
<svg id="sized_up_bg" xmlns="http://www.w3.org/2000/svg" viewBox="0 0 87.76 29.32">
  <defs>
    <style>
      .cls-1 {
        fill: #2e2f40;
      }

      .cls-2 {
        fill: #da9797;
      }

      .cls-3 {
        fill: #c2dff0;
      }
    </style>
  </defs>
  <g>
    <path class="cls-2" d="m0,17.43c.57-2.53,2.38-4.74,4.74-5.8,2.36-1.05,5.21-.92,7.45.35,1.54-4.73,6.19-8.48,11.08-9.23,4.9-.75,10.13,1.47,13,5.53,1.41-1.4,3.78-1.83,5.61-1.08,1.83.75,3.21,2.39,3.96,4.22.75,1.84.93,3.86.87,5.85l-46.71.16Z"/>
    <path class="cls-3" d="m32.15,17.34c-.28-3.09.15-6.3,1.59-9.04,1.44-2.74,3.97-4.98,6.98-5.7s6.44.24,8.38,2.65c.7-2.24,3.31-3.82,5.54-4.52,3.5-1.09,7.43-.7,10.65,1.05,3.22,1.76,5.69,4.85,6.69,8.4,2.78-2.37,6.63-2.8,9.97-1.32,3.33,1.48,5.69,4.96,5.82,8.62l-55.62-.14Z"/>
  </g>
  <rect class="cls-1" y="17.23" width="87.76" height="12.09"/>
</svg>