<?xml version="1.0" encoding="UTF-8"?>
<svg id="sized_up_bg" xmlns="http://www.w3.org/2000/svg" viewBox="0 0 87.54 29.32">
  <defs>
    <style>
      .cls-1 {
        fill: #2e2f40;
      }

      .cls-2 {
        fill: #da9797;
      }

      .cls-3 {
        fill: #c2dff0;
      }
    </style>
  </defs>
  <g>
    <path class="cls-3" d="m.09,17.43c.57-2.53,2.39-4.74,4.76-5.8,2.37-1.05,5.23-.92,7.49.35,1.55-4.73,6.22-8.48,11.14-9.23,4.92-.75,10.18,1.47,13.07,5.53,1.41-1.4,3.8-1.83,5.64-1.08,1.84.75,3.22,2.39,3.98,4.22.75,1.84.93,3.86.87,5.85L.09,17.43Z"/>
    <path class="cls-2" d="m31.6,17.34c-.28-3.09.15-6.3,1.6-9.04,1.45-2.74,3.99-4.98,7.01-5.7,3.02-.72,6.47.24,8.42,2.65.7-2.24,3.33-3.82,5.57-4.52,3.52-1.09,7.47-.7,10.7,1.05,3.24,1.76,5.72,4.85,6.72,8.4,2.79-2.37,6.67-2.8,10.02-1.32,3.35,1.48,5.71,4.96,5.85,8.62l-55.89-.14Z"/>
  </g>
  <rect class="cls-1" x=".09" y="17.23" width="87.4" height="12.09"/>
</svg>