<?xml version="1.0" encoding="UTF-8"?>
<svg xmlns="http://www.w3.org/2000/svg" xmlns:xlink="http://www.w3.org/1999/xlink" viewBox="0 0 500 500">
  <defs>
    <style>
      .cls-1 {
        stroke: #3c464e;
        stroke-linecap: round;
        stroke-linejoin: round;
        stroke-width: .99px;
      }

      .cls-1, .cls-2, .cls-3, .cls-4, .cls-5 {
        fill: none;
      }

      .cls-6, .cls-7, .cls-8 {
        fill: #f2d0d0;
      }

      .cls-2 {
        stroke: #c2dff0;
      }

      .cls-2, .cls-3 {
        stroke-width: 2px;
      }

      .cls-2, .cls-3, .cls-4, .cls-7, .cls-5 {
        stroke-miterlimit: 10;
      }

      .cls-9 {
        isolation: isolate;
      }

      .cls-10 {
        fill: #64718c;
      }

      .cls-3 {
        stroke: #c5d0d9;
      }

      .cls-4 {
        stroke: #2a2a2a;
      }

      .cls-11 {
        fill: #98b0bc;
      }

      .cls-12, .cls-13 {
        fill: #dde6ed;
      }

      .cls-7 {
        stroke: #f2d0d0;
      }

      .cls-14 {
        fill: #2a2a2a;
      }

      .cls-15 {
        fill: #2e2f40;
      }

      .cls-16 {
        fill: url(#linear-gradient-3);
      }

      .cls-16, .cls-17, .cls-18, .cls-13, .cls-8 {
        mix-blend-mode: multiply;
      }

      .cls-16, .cls-18 {
        opacity: .21;
      }

      .cls-17 {
        fill: url(#linear-gradient);
        opacity: .31;
      }

      .cls-19 {
        fill: #8090a6;
      }

      .cls-20 {
        fill: #da9797;
      }

      .cls-18 {
        fill: url(#linear-gradient-2);
      }

      .cls-21 {
        fill: #3c464e;
      }

      .cls-22 {
        fill: #6a7b8a;
      }

      .cls-5 {
        stroke: #2e2f40;
        stroke-width: 3px;
      }

      .cls-23 {
        fill: #738696;
      }

      .cls-24 {
        fill: #c2dff0;
      }

      .cls-13 {
        opacity: .39;
      }
    </style>
    <linearGradient id="linear-gradient" x1="252.71" y1="74.44" x2="252.71" y2="170.51" gradientUnits="userSpaceOnUse">
      <stop offset="0" stop-color="#c5d0d9" stop-opacity="0"/>
      <stop offset="1" stop-color="#64718c"/>
    </linearGradient>
    <linearGradient id="linear-gradient-2" x1="204.51" y1="150.59" x2="204.51" y2="146.73" xlink:href="#linear-gradient"/>
    <linearGradient id="linear-gradient-3" x1="303.05" y1="150.59" x2="303.05" y2="146.73" xlink:href="#linear-gradient"/>
  </defs>
  <g class="cls-9">
    <g id="foreground">
      <path class="cls-11" d="m110.09,178.54v283.8h286.48V178.54H110.09Zm82.79,231.84h-63.63v-74.7h63.63v74.7Zm0-130.38h-63.63v-74.7h63.63v74.7Zm92.78,130.38h-64.16v-74.7h64.16v74.7Zm-.53-130.38h-64.68v-74.7h64.68v74.7Zm91.64,0h-64.68v-74.7h64.68v74.7Z"/>
      <g>
        <rect class="cls-12" x="114.39" y="424.61" width="280.58" height="38.26"/>
        <rect class="cls-12" x="114.39" y="305.48" width="280.58" height="8.96"/>
        <rect class="cls-13" x="110.09" y="178.9" width="286.49" height="16.66"/>
        <rect class="cls-12" x="110.09" y="185.89" width="286.48" height="4.29"/>
        <rect class="cls-12" x="109.94" y="178.9" width="4.45" height="283.8"/>
        <rect class="cls-12" x="390.66" y="178.9" width="5.92" height="283.8"/>
      </g>
      <g id="window_frame">
        <rect class="cls-2" x="125.44" y="201.67" width="71.44" height="90.89"/>
        <rect class="cls-15" x="121.38" y="283.53" width="79.01" height="10.93"/>
        <rect class="cls-15" x="129.26" y="220.46" width="64.68" height="4.03"/>
        <rect class="cls-5" x="127.81" y="204.34" width="66.61" height="86.27"/>
        <g>
          <path class="cls-20" d="m158.14,283.71c.52-2.29,2.16-4.29,4.3-5.24,2.14-.95,4.73-.83,6.77.32,1.4-4.28,5.62-7.67,10.07-8.35,4.45-.68,9.2,1.33,11.81,5,1.28-1.26,3.44-1.65,5.1-.98,1.66.68,2.91,2.16,3.59,3.82.68,1.66.84,3.49.79,5.29l-42.44.14Z"/>
          <path class="cls-10" d="m121.32,283.63c-.25-2.8.14-5.7,1.45-8.18,1.31-2.48,3.61-4.5,6.34-5.15s5.85.21,7.62,2.39c.64-2.02,3.01-3.45,5.03-4.08,3.18-.99,6.75-.63,9.67.95,2.93,1.59,5.17,4.39,6.07,7.59,2.53-2.14,6.03-2.53,9.05-1.2,3.03,1.34,5.17,4.49,5.29,7.8l-50.53-.13Z"/>
        </g>
      </g>
      <g id="window_frame-2" data-name="window_frame">
        <rect class="cls-3" x="217.17" y="201.67" width="71.44" height="90.89"/>
        <rect class="cls-15" x="213.1" y="283.53" width="79.01" height="10.93"/>
        <rect class="cls-15" x="220.99" y="220.46" width="64.68" height="4.03"/>
        <rect class="cls-5" x="219.53" y="204.34" width="66.61" height="86.27"/>
        <g>
          <path class="cls-24" d="m213.1,283.71c.52-2.29,2.16-4.29,4.3-5.24,2.14-.95,4.73-.83,6.77.32,1.4-4.28,5.62-7.67,10.07-8.35,4.45-.68,9.2,1.33,11.81,5,1.28-1.26,3.44-1.65,5.1-.98,1.66.68,2.91,2.16,3.59,3.82.68,1.66.84,3.49.79,5.29l-42.44.14Z"/>
          <path class="cls-20" d="m241.59,283.63c-.25-2.8.14-5.7,1.45-8.18,1.31-2.48,3.61-4.5,6.34-5.15s5.85.21,7.62,2.39c.64-2.02,3.01-3.45,5.03-4.08,3.18-.99,6.75-.63,9.67.95,2.93,1.59,5.17,4.39,6.07,7.59,2.53-2.14,6.03-2.53,9.05-1.2,3.03,1.34,5.17,4.49,5.29,7.8l-50.53-.13Z"/>
        </g>
      </g>
      <g id="window_frame-3" data-name="window_frame">
        <rect class="cls-3" x="308.89" y="201.67" width="71.44" height="90.89"/>
        <rect class="cls-15" x="304.83" y="283.53" width="79.01" height="10.93"/>
        <rect class="cls-15" x="312.71" y="220.46" width="64.68" height="4.03"/>
        <rect class="cls-5" x="311.25" y="204.34" width="66.61" height="86.27"/>
        <g>
          <path class="cls-10" d="m341.59,283.71c.52-2.29,2.16-4.29,4.3-5.24,2.14-.95,4.73-.83,6.77.32,1.4-4.28,5.62-7.67,10.07-8.35,4.45-.68,9.2,1.33,11.81,5,1.28-1.26,3.44-1.65,5.1-.98,1.66.68,2.91,2.16,3.59,3.82.68,1.66.84,3.49.79,5.29l-42.44.14Z"/>
          <path class="cls-24" d="m304.77,283.63c-.25-2.8.14-5.7,1.45-8.18,1.31-2.48,3.61-4.5,6.34-5.15s5.85.21,7.62,2.39c.64-2.02,3.01-3.45,5.03-4.08,3.18-.99,6.75-.63,9.67.95,2.93,1.59,5.17,4.39,6.07,7.59,2.53-2.14,6.03-2.53,9.05-1.2,3.03,1.34,5.17,4.49,5.29,7.8l-50.53-.13Z"/>
        </g>
      </g>
      <g id="window_frame-4" data-name="window_frame">
        <rect class="cls-3" x="218.17" y="332" width="71.44" height="90.89"/>
        <rect class="cls-15" x="214.1" y="413.86" width="79.01" height="10.93"/>
        <rect class="cls-15" x="221.99" y="350.79" width="64.68" height="4.03"/>
        <rect class="cls-5" x="220.53" y="334.67" width="66.61" height="86.27"/>
        <g>
          <path class="cls-24" d="m250.86,414.05c.52-2.29,2.16-4.29,4.3-5.24,2.14-.95,4.73-.83,6.77.32,1.4-4.28,5.62-7.67,10.07-8.35,4.45-.68,9.2,1.33,11.81,5,1.28-1.26,3.44-1.65,5.1-.98,1.66.68,2.91,2.16,3.59,3.82.68,1.66.84,3.49.79,5.29l-42.44.14Z"/>
          <path class="cls-10" d="m214.05,413.96c-.25-2.8.14-5.7,1.45-8.18,1.31-2.48,3.61-4.5,6.34-5.15s5.85.21,7.62,2.39c.64-2.02,3.01-3.45,5.03-4.08,3.18-.99,6.75-.63,9.67.95,2.93,1.59,5.17,4.39,6.07,7.59,2.53-2.14,6.03-2.53,9.05-1.2,3.03,1.34,5.17,4.49,5.29,7.8l-50.53-.13Z"/>
        </g>
      </g>
      <g id="window_frame-5" data-name="window_frame">
        <rect class="cls-3" x="125.6" y="332" width="71.44" height="90.89"/>
        <rect class="cls-15" x="121.54" y="413.86" width="79.01" height="10.93"/>
        <rect class="cls-15" x="129.42" y="350.79" width="64.68" height="4.03"/>
        <rect class="cls-5" x="127.96" y="334.67" width="66.61" height="86.27"/>
        <g>
          <path class="cls-20" d="m120.97,414.05c.52-2.29,2.16-4.29,4.3-5.24,2.14-.95,4.73-.83,6.77.32,1.4-4.28,5.62-7.67,10.07-8.35,4.45-.68,9.2,1.33,11.81,5,1.28-1.26,3.44-1.65,5.1-.98,1.66.68,2.91,2.16,3.59,3.82.68,1.66.84,3.49.79,5.29l-42.44.14Z"/>
          <path class="cls-24" d="m150.18,413.96c-.25-2.8.14-5.7,1.45-8.18,1.31-2.48,3.61-4.5,6.34-5.15s5.85.21,7.62,2.39c.64-2.02,3.01-3.45,5.03-4.08,3.18-.99,6.75-.63,9.67.95,2.93,1.59,5.17,4.39,6.07,7.59,2.53-2.14,6.03-2.53,9.05-1.2,3.03,1.34,5.17,4.49,5.29,7.8l-50.53-.13Z"/>
        </g>
      </g>
      <g id="door">
        <rect class="cls-23" x="303.59" y="318.82" width="79.55" height="144.05"/>
        <rect class="cls-14" x="306.64" y="321.84" width="73.82" height="140.41"/>
        <g>
          <g>
            <rect class="cls-6" x="311.38" y="326.66" width="65.57" height="21.77"/>
            <rect class="cls-15" x="329.95" y="325.86" width="1.58" height="22.84"/>
            <rect class="cls-15" x="357.9" y="325.86" width="1.58" height="22.84"/>
          </g>
          <g>
            <g>
              <rect class="cls-22" x="313.76" y="351.97" width="26.88" height="47.84"/>
              <rect class="cls-23" x="316.4" y="354.26" width="21.59" height="42.6"/>
            </g>
            <g>
              <rect class="cls-22" x="313.98" y="402.67" width="26.7" height="16.84"/>
              <rect class="cls-23" x="316.27" y="404.12" width="22.13" height="13.96"/>
            </g>
            <g>
              <rect class="cls-22" x="347.44" y="402.67" width="26.7" height="16.84"/>
              <rect class="cls-23" x="349.73" y="404.12" width="22.13" height="13.96"/>
            </g>
            <g>
              <rect class="cls-22" x="347.26" y="351.97" width="26.88" height="47.84"/>
              <rect class="cls-23" x="350.08" y="354.26" width="21.59" height="42.6"/>
            </g>
            <g>
              <rect class="cls-22" x="313.76" y="422.38" width="26.88" height="36.55"/>
              <rect class="cls-23" x="316.4" y="424.13" width="21.59" height="32.55"/>
            </g>
            <g>
              <rect class="cls-22" x="347.26" y="422.38" width="26.88" height="36.55"/>
              <rect class="cls-23" x="350.08" y="424.13" width="21.59" height="32.55"/>
            </g>
          </g>
        </g>
      </g>
      <g id="trees">
        <g>
          <path class="cls-7" d="m450.71,462.52h-84.08c.65-6.11,4.38-11.87,9.81-14.82,4.32-2.34,9.56-3.01,13.35-6.13,3.75-3.07,5.41-7.94,8.04-12,4.57-7.07,12.5-11.83,20.88-12.55,8.4-.72,17.03,2.63,22.74,8.82,4.99,5.43,7.64,12.67,8.72,19.96.82,5.52.78,11.12.55,16.72Z"/>
          <path class="cls-11" d="m203.61,462.88H74.88c3.84-6.39,11.62-10.44,19.07-9.3,1.1-15,14.47-28.12,29.5-28.92.41-.04.81-.04,1.22-.04,14.59-.14,28.57,11.23,31.2,25.63,8.81-5.73,19.99-8.4,30.03-5.38,8.44,2.55,15.62,9.6,17.71,18.01Z"/>
          <path class="cls-21" d="m142.16,462.88H31.08c2.83-6.09,7.75-11.23,13.77-14.23,7.51-3.74,16.62-4.1,24.39-.96,6.81-10.36,15.37-20.08,26.63-25.22,9.77-4.45,21.94-4.79,31.03.59,1.38.81,2.71,1.75,3.92,2.83,5.63,4.97,8.84,12.24,10.25,19.62,1.09,5.71,1.2,11.54,1.09,17.36Z"/>
          <g>
            <path class="cls-24" d="m127.65,361.82c0-1.16-.04-2.32-.11-3.48-.68-11.43-4.07-22.51-8.11-33.15-6.3-16.6-14.32-32.54-23.87-47.51-4.7-7.37-9.7-14.61-14.84-21.65-1.93-2.65-3.89-5.27-5.9-7.86-.59-.76-2.11-2.04-2.37-2.99-12.91,15.57-23.72,32.38-33.63,49.97-15.92,28.24-33.59,68.4-11.76,98.28,9.73,13.32,26.24,20.84,42.52,21.47,14.42.56,29.16-3.99,40.17-13.32,11.74-9.95,17.91-24.48,17.89-39.75Z"/>
            <g>
              <path class="cls-21" d="m71.69,297.48l.69,158.05c0,.55-.44.99-.98.99-.55,0-.99-.44-.99-.98.58-.1-.42-159.86,1.29-158.06h0Z"/>
              <line class="cls-1" x1="71.4" y1="401.29" x2="85.41" y2="388"/>
              <line class="cls-1" x1="86.48" y1="323.07" x2="71.67" y2="338.16"/>
              <line class="cls-1" x1="71.4" y1="367.26" x2="51.28" y2="351.54"/>
            </g>
          </g>
        </g>
      </g>
      <g>
        <path class="cls-22" d="m399.98,167.97s-294.54-.72-294.54.36l.44-1.01.19-.48,2.46-5.71.19-.48,2.46-5.71.19-.46,2.44-5.71.21-.48,2.44-5.7.21-.48,2.44-5.71.21-.46,2.44-5.7.21-.48,2.44-5.71.19-.46,2.44-5.7.21-.48,2.44-5.71.21-.48,2.44-5.71.21-.46,2.44-5.71.21-.48,2.32-5.43.21-.48,2.08-4.86h227.89l1.96,4.86.21.48,2.19,5.43.19.48,2.29,5.71.19.46,2.32,5.71.19.48,2.29,5.71.19.48,2.32,5.7.19.46,2.29,5.71.19.48,2.32,5.7.19.46,2.29,5.71.19.48,2.32,5.7.19.48,2.29,5.71.19.46,2.32,5.71.19.48,2.29,5.71.19.48.27.65Z"/>
        <rect class="cls-14" x="102.92" y="167.61" width="299.93" height="11.11"/>
        <path class="cls-17" d="m399.98,167.97s-294.54-.72-294.54.36l.44-1.01.19-.48,2.46-5.71.19-.48,2.46-5.71.19-.46,2.44-5.71.21-.48,2.44-5.7.21-.48,2.44-5.71.21-.46,2.44-5.7.21-.48,2.44-5.71.19-.46,2.44-5.7.21-.48,2.44-5.71.21-.48,2.44-5.71.21-.46,2.44-5.71.21-.48,2.32-5.43.21-.48,2.08-4.86h227.89l1.96,4.86.21.48,2.19,5.43.19.48,2.29,5.71.19.46,2.32,5.71.19.48,2.29,5.71.19.48,2.32,5.7.19.46,2.29,5.71.19.48,2.32,5.7.19.46,2.29,5.71.19.48,2.32,5.7.19.48,2.29,5.71.19.46,2.32,5.71.19.48,2.29,5.71.19.48.27.65Z"/>
        <g>
          <polygon class="cls-15" points="369.9 93.41 137.55 93.41 137.76 92.92 369.69 92.92 369.9 93.41"/>
          <polygon class="cls-15" points="372.28 99.32 135.02 99.32 135.23 98.84 372.09 98.84 372.28 99.32"/>
          <polygon class="cls-15" points="374.76 105.49 132.37 105.49 132.58 105.03 374.57 105.03 374.76 105.49"/>
          <polygon class="cls-15" points="377.27 111.68 129.72 111.68 129.93 111.19 377.08 111.19 377.27 111.68"/>
          <polygon class="cls-15" points="379.75 117.87 127.06 117.87 127.27 117.38 379.56 117.38 379.75 117.87"/>
          <polygon class="cls-15" points="382.26 124.04 124.43 124.04 124.62 123.57 382.07 123.57 382.26 124.04"/>
          <polygon class="cls-15" points="384.74 130.23 121.78 130.23 121.99 129.74 384.55 129.74 384.74 130.23"/>
          <polygon class="cls-15" points="387.25 136.39 119.13 136.39 119.34 135.93 387.06 135.93 387.25 136.39"/>
          <polygon class="cls-15" points="389.73 142.58 116.47 142.58 116.68 142.1 389.54 142.1 389.73 142.58"/>
          <polygon class="cls-15" points="392.23 148.77 113.82 148.77 114.03 148.29 392.04 148.29 392.23 148.77"/>
          <polygon class="cls-15" points="394.72 154.94 111.19 154.94 111.38 154.48 394.53 154.48 394.72 154.94"/>
          <polygon class="cls-15" points="397.22 161.13 108.54 161.13 108.73 160.65 397.03 160.65 397.22 161.13"/>
          <polygon class="cls-15" points="399.71 167.32 105.88 167.32 106.07 166.83 399.52 166.83 399.71 167.32"/>
        </g>
        <g>
          <polygon class="cls-11" points="178.8 97.82 178.8 151.17 230.67 151.17 230.67 97.96 204.6 75.11 178.8 97.82"/>
          <polyline class="cls-4" points="177.59 98.9 204.6 75.11 232.15 99.03"/>
          <g>
            <g>
              <rect class="cls-19" x="186.37" y="99.17" width="36.55" height="45.15"/>
              <rect class="cls-14" x="187.68" y="100.78" width="33.94" height="41.92"/>
              <rect class="cls-6" x="188.84" y="102.21" width="31.62" height="39.06"/>
              <polygon class="cls-8" points="220.47 102.22 220.47 103.1 189.73 103.1 189.73 141.27 188.85 141.27 188.85 102.22 220.47 102.22"/>
              <rect class="cls-14" x="198.11" y="101.41" width="1.43" height="40.4"/>
              <rect class="cls-14" x="203.75" y="97.2" width="1.43" height="33.41" transform="translate(318.37 -90.56) rotate(90)"/>
              <rect class="cls-14" x="203.75" y="110.99" width="1.43" height="33.41" transform="translate(332.17 -76.77) rotate(90)"/>
              <rect class="cls-14" x="210.65" y="101.41" width="1.43" height="40.4"/>
              <rect class="cls-14" x="183.97" y="142.7" width="41.19" height="3.49"/>
            </g>
            <rect class="cls-18" x="184.76" y="146.2" width="39.51" height="3.76"/>
          </g>
        </g>
        <g>
          <polygon class="cls-11" points="277.34 97.82 277.34 151.17 329.21 151.17 329.21 97.96 303.14 75.11 277.34 97.82"/>
          <polyline class="cls-4" points="276.13 98.9 303.14 75.11 330.69 99.03"/>
          <g>
            <g>
              <rect class="cls-19" x="284.91" y="99.17" width="36.55" height="45.15"/>
              <rect class="cls-14" x="286.22" y="100.78" width="33.94" height="41.92"/>
              <rect class="cls-6" x="287.38" y="102.21" width="31.62" height="39.06"/>
              <polygon class="cls-8" points="319.01 102.22 319.01 103.1 288.27 103.1 288.27 141.27 287.39 141.27 287.39 102.22 319.01 102.22"/>
              <rect class="cls-14" x="296.65" y="101.41" width="1.43" height="40.4"/>
              <rect class="cls-14" x="302.29" y="97.2" width="1.43" height="33.41" transform="translate(416.91 -189.11) rotate(90)"/>
              <rect class="cls-14" x="302.29" y="110.99" width="1.43" height="33.41" transform="translate(430.71 -175.31) rotate(90)"/>
              <rect class="cls-14" x="309.19" y="101.41" width="1.43" height="40.4"/>
              <rect class="cls-14" x="282.52" y="142.7" width="41.19" height="3.49"/>
            </g>
            <rect class="cls-16" x="283.3" y="146.2" width="39.51" height="3.76"/>
          </g>
        </g>
      </g>
    </g>
  </g>
</svg>