<?xml version="1.0" encoding="utf-8"?>
<!-- Generator: Adobe Illustrator 27.4.1, SVG Export Plug-In . SVG Version: 6.00 Build 0)  -->
<svg version="1.1" id="Layer_1" xmlns="http://www.w3.org/2000/svg" xmlns:xlink="http://www.w3.org/1999/xlink" x="0px" y="0px"
	 viewBox="0 0 574 184" style="enable-background:new 0 0 574 184;" xml:space="preserve">
<style type="text/css">
	.st0{fill:#627C8B;}
</style>
<g>
	<path class="st0" d="M31.82,50.12v5.55h-24v-5.55h8.79V24.83c0-1,0.03-2.03,0.09-3.09l-6.24,5.22c-0.36,0.28-0.72,0.46-1.06,0.52
		c-0.35,0.07-0.68,0.08-0.99,0.02s-0.58-0.17-0.82-0.31c-0.24-0.15-0.42-0.31-0.54-0.5L4.7,23.48l13.23-11.25h6.09v37.89H31.82z"/>
	<path class="st0" d="M66.62,50.12v5.55h-24v-5.55h8.79V24.83c0-1,0.03-2.03,0.09-3.09l-6.24,5.22c-0.36,0.28-0.72,0.46-1.06,0.52
		c-0.35,0.07-0.68,0.08-0.99,0.02s-0.58-0.17-0.82-0.31c-0.24-0.15-0.42-0.31-0.54-0.5l-2.34-3.21l13.23-11.25h6.09v37.89H66.62z"/>
	<path class="st0" d="M86.03,28.04l-1.5,1.86c0.84-0.42,1.74-0.74,2.71-0.98c0.97-0.23,2.01-0.34,3.13-0.34
		c1.64,0,3.23,0.27,4.79,0.81c1.55,0.54,2.91,1.35,4.1,2.44c1.18,1.09,2.13,2.44,2.85,4.06c0.72,1.62,1.08,3.51,1.08,5.67
		c0,2.02-0.37,3.92-1.11,5.69c-0.74,1.77-1.78,3.31-3.12,4.64c-1.34,1.32-2.96,2.36-4.84,3.12c-1.89,0.76-3.98,1.14-6.25,1.14
		c-2.32,0-4.4-0.37-6.24-1.11c-1.84-0.74-3.41-1.77-4.71-3.1c-1.3-1.33-2.29-2.93-2.98-4.8c-0.69-1.87-1.04-3.94-1.04-6.22
		c0-2.04,0.42-4.14,1.25-6.29c0.83-2.15,2.11-4.38,3.85-6.71l10.35-13.89c0.36-0.48,0.88-0.89,1.57-1.23
		c0.69-0.34,1.48-0.51,2.39-0.51h6.6L86.03,28.04z M87.71,50.09c1.18,0,2.27-0.2,3.26-0.6c0.99-0.4,1.84-0.96,2.55-1.68
		c0.71-0.72,1.26-1.56,1.67-2.54c0.4-0.97,0.6-2.02,0.6-3.17c0-1.24-0.19-2.35-0.57-3.34c-0.38-0.99-0.92-1.83-1.62-2.52
		c-0.7-0.69-1.54-1.22-2.52-1.58c-0.98-0.36-2.06-0.54-3.24-0.54c-1.18,0-2.25,0.2-3.21,0.6c-0.96,0.4-1.78,0.96-2.46,1.67
		c-0.68,0.71-1.21,1.55-1.59,2.52C80.19,39.89,80,40.93,80,42.05c0,1.2,0.17,2.29,0.5,3.29c0.33,0.99,0.82,1.83,1.47,2.54
		c0.65,0.7,1.45,1.24,2.41,1.63C85.34,49.9,86.45,50.09,87.71,50.09z"/>
	<path class="st0" d="M118.07,30.47h1.89c0.76,0,1.39-0.1,1.89-0.31c0.5-0.21,0.93-0.54,1.29-1L135.11,14
		c0.5-0.64,1.02-1.08,1.58-1.33c0.55-0.25,1.24-0.38,2.08-0.38h6.96l-14.61,18.03c-0.86,1.1-1.75,1.88-2.67,2.34
		c0.66,0.24,1.25,0.57,1.79,1c0.53,0.43,1.04,1,1.52,1.69l15.06,20.31h-7.11c-0.96,0-1.68-0.13-2.15-0.4s-0.87-0.67-1.18-1.19
		L124.1,38.06c-0.38-0.54-0.82-0.92-1.32-1.14c-0.5-0.22-1.22-0.33-2.16-0.33h-2.55v19.08H110V12.29h8.07V30.47z"/>
</g>
<g>
	<path class="st0" d="M223.51,30.84c1.44,0.44,2.87,0.93,4.29,1.46c1.42,0.53,2.69,1.22,3.82,2.06s2.04,1.89,2.75,3.13
		c0.7,1.25,1.05,2.82,1.05,4.7c0,1.86-0.31,3.6-0.93,5.23c-0.62,1.63-1.53,3.07-2.73,4.32c-1.2,1.25-2.67,2.27-4.41,3.06
		c-1.74,0.79-3.73,1.25-5.97,1.4l-0.36,4.41c-0.02,0.46-0.21,0.88-0.58,1.27s-0.83,0.58-1.4,0.58h-2.73l0.54-6.42
		c-2.34-0.32-4.54-0.96-6.6-1.92s-3.81-2.15-5.25-3.57l2.28-3.39c0.2-0.3,0.46-0.54,0.79-0.74c0.33-0.19,0.69-0.28,1.06-0.28
		c0.44,0,0.91,0.16,1.41,0.46c0.5,0.31,1.07,0.67,1.71,1.08c0.64,0.41,1.37,0.83,2.19,1.25c0.82,0.42,1.79,0.73,2.91,0.93
		l1.11-13.41c-1.42-0.4-2.83-0.87-4.21-1.41c-1.39-0.54-2.64-1.25-3.75-2.15c-1.11-0.89-2.01-2.01-2.69-3.38
		c-0.68-1.36-1.02-3.06-1.02-5.1c0-1.52,0.3-3,0.9-4.46c0.6-1.45,1.48-2.74,2.66-3.88c1.17-1.14,2.6-2.08,4.3-2.82
		c1.7-0.74,3.65-1.16,5.85-1.26l0.33-3.78c0.04-0.48,0.24-0.91,0.6-1.29c0.36-0.38,0.83-0.57,1.41-0.57h2.73l-0.48,5.88
		c2.12,0.34,3.95,0.94,5.49,1.81c1.54,0.87,2.87,1.84,3.99,2.92l-1.8,2.73c-0.26,0.4-0.53,0.7-0.81,0.9c-0.28,0.2-0.62,0.3-1.02,0.3
		c-0.3,0-0.66-0.09-1.08-0.29c-0.42-0.19-0.89-0.42-1.41-0.69c-0.52-0.27-1.11-0.54-1.76-0.83c-0.65-0.28-1.36-0.51-2.15-0.69
		L223.51,30.84z M220,18.27c-1.12,0.14-2.07,0.38-2.85,0.71c-0.78,0.33-1.42,0.73-1.92,1.21c-0.5,0.48-0.87,1.02-1.1,1.62
		c-0.23,0.6-0.35,1.23-0.35,1.89c0,0.76,0.14,1.42,0.41,1.99c0.27,0.57,0.64,1.08,1.11,1.53c0.47,0.45,1.02,0.85,1.67,1.2
		c0.64,0.35,1.34,0.68,2.1,0.98L220,18.27z M221.92,49.98c2.12-0.28,3.72-0.99,4.81-2.15c1.09-1.15,1.63-2.65,1.63-4.52
		c0-0.76-0.13-1.42-0.4-1.99c-0.27-0.57-0.65-1.08-1.14-1.52c-0.49-0.44-1.06-0.82-1.73-1.14c-0.66-0.32-1.38-0.62-2.16-0.9
		L221.92,49.98z"/>
	<path class="st0" d="M270.54,12.39v3.21c0,0.96-0.1,1.74-0.3,2.32c-0.2,0.59-0.4,1.09-0.6,1.49l-16.44,33.84
		c-0.34,0.7-0.82,1.3-1.44,1.79c-0.62,0.49-1.45,0.73-2.49,0.73h-5.37l16.77-33.15c0.38-0.68,0.75-1.31,1.12-1.88
		c0.37-0.57,0.78-1.11,1.24-1.64h-20.76c-0.46,0-0.86-0.17-1.2-0.51c-0.34-0.34-0.51-0.74-0.51-1.2v-5.01H270.54z"/>
	<path class="st0" d="M292.32,38.94c0.34-0.42,0.66-0.83,0.96-1.23c0.3-0.4,0.59-0.8,0.87-1.2c-1,0.64-2.1,1.12-3.3,1.45
		c-1.2,0.33-2.46,0.5-3.78,0.5c-1.5,0-2.97-0.26-4.41-0.78s-2.72-1.31-3.84-2.35c-1.12-1.05-2.03-2.35-2.72-3.9
		c-0.69-1.55-1.03-3.36-1.03-5.44c0-1.94,0.36-3.76,1.08-5.46c0.72-1.7,1.73-3.19,3.03-4.47c1.3-1.28,2.86-2.29,4.68-3.03
		c1.82-0.74,3.83-1.11,6.03-1.11c2.22,0,4.21,0.35,5.98,1.05c1.77,0.7,3.28,1.68,4.53,2.94c1.25,1.26,2.21,2.77,2.88,4.53
		c0.67,1.76,1,3.69,1,5.79c0,1.34-0.12,2.61-0.34,3.81c-0.23,1.2-0.56,2.36-0.98,3.47s-0.93,2.19-1.53,3.25
		c-0.6,1.06-1.27,2.11-2.01,3.15l-9.93,14.16c-0.34,0.48-0.85,0.88-1.53,1.21c-0.68,0.33-1.45,0.5-2.31,0.5h-6.81L292.32,38.94z
		 M282.48,25.41c0,2.42,0.62,4.27,1.88,5.53c1.25,1.27,3.02,1.91,5.33,1.91c1.2,0,2.27-0.19,3.21-0.57c0.94-0.38,1.73-0.9,2.37-1.56
		c0.64-0.66,1.12-1.44,1.45-2.34c0.33-0.9,0.5-1.87,0.5-2.91c0-1.18-0.18-2.24-0.54-3.17c-0.36-0.93-0.87-1.71-1.53-2.35
		s-1.45-1.13-2.35-1.47c-0.91-0.34-1.91-0.51-2.98-0.51c-1.12,0-2.13,0.19-3.03,0.55c-0.9,0.37-1.67,0.89-2.31,1.54
		c-0.64,0.66-1.13,1.45-1.47,2.35C282.65,23.34,282.48,24.33,282.48,25.41z"/>
	<path class="st0" d="M320.28,30.57h1.89c0.76,0,1.39-0.1,1.89-0.31c0.5-0.21,0.93-0.54,1.29-1l11.97-15.15
		c0.5-0.64,1.02-1.08,1.58-1.33c0.55-0.25,1.24-0.38,2.08-0.38h6.96l-14.61,18.03c-0.86,1.1-1.75,1.88-2.67,2.34
		c0.66,0.24,1.25,0.57,1.79,1c0.53,0.43,1.04,1,1.52,1.69l15.06,20.31h-7.11c-0.96,0-1.68-0.13-2.15-0.4s-0.87-0.67-1.18-1.19
		l-12.27-16.02c-0.38-0.54-0.82-0.92-1.32-1.14c-0.5-0.22-1.22-0.33-2.16-0.33h-2.55v19.08h-8.07V12.39h8.07V30.57z"/>
</g>
<g>
	<path class="st0" d="M438.25,50.22v5.55h-24v-5.55h8.79V24.93c0-1,0.03-2.03,0.09-3.09l-6.24,5.22c-0.36,0.28-0.72,0.46-1.06,0.52
		c-0.35,0.07-0.68,0.08-0.99,0.02s-0.58-0.17-0.82-0.31c-0.24-0.15-0.42-0.31-0.54-0.5l-2.34-3.21l13.23-11.25h6.09v37.89H438.25z"
		/>
	<path class="st0" d="M445.24,24.48c0.3-2.08,0.88-3.9,1.74-5.48c0.86-1.57,1.94-2.88,3.23-3.93c1.29-1.05,2.77-1.84,4.44-2.37
		c1.67-0.53,3.46-0.79,5.38-0.79c2,0,3.81,0.28,5.42,0.85c1.61,0.57,2.99,1.36,4.12,2.37c1.14,1.01,2.01,2.19,2.62,3.55
		c0.61,1.36,0.92,2.83,0.92,4.41c0,1.38-0.15,2.59-0.46,3.65c-0.31,1.05-0.76,1.96-1.33,2.75c-0.58,0.78-1.3,1.44-2.16,1.98
		s-1.83,0.99-2.91,1.35c2.6,0.82,4.54,2.07,5.82,3.75c1.28,1.68,1.92,3.79,1.92,6.33c0,2.16-0.4,4.07-1.2,5.73
		c-0.8,1.66-1.88,3.06-3.24,4.19c-1.36,1.13-2.94,1.99-4.73,2.56c-1.79,0.58-3.69,0.87-5.69,0.87c-2.18,0-4.08-0.25-5.7-0.75
		c-1.62-0.5-3.03-1.24-4.23-2.22c-1.2-0.98-2.22-2.18-3.06-3.6c-0.84-1.42-1.56-3.06-2.16-4.92l3.27-1.35
		c0.86-0.36,1.67-0.45,2.42-0.29c0.75,0.17,1.29,0.58,1.63,1.21c0.36,0.7,0.75,1.39,1.19,2.07c0.43,0.68,0.95,1.29,1.54,1.81
		c0.6,0.53,1.31,0.96,2.12,1.29s1.77,0.5,2.9,0.5c1.26,0,2.36-0.21,3.3-0.62c0.94-0.41,1.73-0.94,2.35-1.6
		c0.63-0.66,1.1-1.4,1.41-2.21s0.46-1.62,0.46-2.44c0-1.04-0.11-1.98-0.33-2.83c-0.22-0.85-0.68-1.58-1.38-2.18
		s-1.71-1.07-3.01-1.41c-1.31-0.34-3.07-0.51-5.27-0.51v-5.28c1.82-0.02,3.33-0.19,4.53-0.51c1.2-0.32,2.15-0.77,2.87-1.33
		c0.71-0.57,1.2-1.25,1.48-2.06c0.28-0.8,0.42-1.68,0.42-2.64c0-2.04-0.57-3.59-1.71-4.65s-2.66-1.59-4.56-1.59
		c-0.88,0-1.69,0.13-2.43,0.38c-0.74,0.25-1.41,0.6-2,1.05c-0.59,0.45-1.09,0.97-1.48,1.57c-0.4,0.6-0.7,1.26-0.9,1.98
		c-0.34,0.92-0.79,1.53-1.33,1.83c-0.55,0.3-1.33,0.37-2.32,0.21L445.24,24.48z"/>
	<path class="st0" d="M499.15,22.89c0,1.64-0.28,3.12-0.83,4.44c-0.55,1.32-1.29,2.44-2.21,3.38s-1.99,1.65-3.21,2.15
		c-1.22,0.5-2.49,0.75-3.81,0.75c-1.44,0-2.77-0.25-3.99-0.75c-1.22-0.5-2.28-1.21-3.17-2.15c-0.89-0.93-1.59-2.06-2.08-3.38
		c-0.5-1.32-0.75-2.8-0.75-4.44c0-1.68,0.25-3.2,0.75-4.56c0.5-1.36,1.19-2.51,2.08-3.45c0.89-0.94,1.94-1.67,3.17-2.17
		c1.22-0.51,2.55-0.77,3.99-0.77c1.44,0,2.78,0.25,4.01,0.77c1.23,0.51,2.29,1.23,3.19,2.17c0.9,0.94,1.6,2.09,2.1,3.45
		C498.9,19.69,499.15,21.21,499.15,22.89z M513.58,13.56c0.26-0.3,0.56-0.57,0.92-0.81c0.35-0.24,0.84-0.36,1.49-0.36h5.4
		l-32.22,42.27c-0.26,0.32-0.57,0.58-0.93,0.79c-0.36,0.21-0.8,0.31-1.32,0.31h-5.52L513.58,13.56z M493.45,22.89
		c0-1.16-0.12-2.13-0.34-2.91c-0.23-0.78-0.54-1.41-0.93-1.89s-0.85-0.82-1.38-1.03c-0.53-0.21-1.1-0.31-1.7-0.31
		c-0.6,0-1.16,0.1-1.68,0.31c-0.52,0.21-0.97,0.55-1.33,1.03c-0.37,0.48-0.67,1.11-0.89,1.89c-0.22,0.78-0.33,1.75-0.33,2.91
		c0,1.12,0.11,2.05,0.33,2.8c0.22,0.75,0.51,1.36,0.89,1.82c0.37,0.46,0.81,0.79,1.33,0.99c0.52,0.2,1.08,0.3,1.68,0.3
		c0.6,0,1.17-0.1,1.7-0.3c0.53-0.2,0.99-0.53,1.38-0.99s0.7-1.07,0.93-1.82C493.33,24.95,493.45,24.01,493.45,22.89z M523.66,45.57
		c0,1.64-0.27,3.12-0.82,4.44c-0.55,1.32-1.29,2.44-2.21,3.38c-0.92,0.93-1.99,1.65-3.21,2.16c-1.22,0.51-2.49,0.77-3.81,0.77
		c-1.44,0-2.77-0.25-3.99-0.77c-1.22-0.51-2.27-1.23-3.17-2.16c-0.89-0.93-1.58-2.06-2.08-3.38c-0.5-1.32-0.75-2.8-0.75-4.44
		c0-1.68,0.25-3.2,0.75-4.56s1.19-2.51,2.08-3.45c0.89-0.94,1.94-1.67,3.17-2.17c1.22-0.51,2.55-0.77,3.99-0.77s2.77,0.25,4,0.77
		c1.23,0.51,2.29,1.23,3.18,2.17c0.89,0.94,1.59,2.09,2.1,3.45C523.4,42.37,523.66,43.89,523.66,45.57z M517.93,45.57
		c0-1.16-0.11-2.13-0.33-2.91c-0.22-0.78-0.52-1.41-0.92-1.89c-0.39-0.48-0.85-0.83-1.38-1.04c-0.53-0.21-1.09-0.31-1.69-0.31
		s-1.16,0.1-1.68,0.31s-0.97,0.56-1.35,1.04s-0.67,1.11-0.88,1.89c-0.21,0.78-0.31,1.75-0.31,2.91c0,1.12,0.1,2.06,0.31,2.82
		c0.21,0.76,0.5,1.37,0.88,1.83s0.83,0.79,1.35,0.99c0.52,0.2,1.08,0.3,1.68,0.3s1.16-0.1,1.69-0.3c0.53-0.2,0.99-0.53,1.38-0.99
		c0.39-0.46,0.69-1.07,0.92-1.83C517.82,47.63,517.93,46.69,517.93,45.57z"/>
</g>
<g>
	<path class="st0" d="M26.18,105.31h-3.77c-0.71,0-1.23-0.28-1.55-0.84l-4.71-7.18c-0.18-0.27-0.37-0.46-0.58-0.57
		c-0.21-0.11-0.52-0.17-0.94-0.17h-1.78v8.76H8.68V82.89h6.84c1.52,0,2.82,0.16,3.91,0.47c1.09,0.32,1.98,0.76,2.68,1.33
		c0.7,0.57,1.21,1.25,1.54,2.04c0.33,0.79,0.5,1.66,0.5,2.61c0,0.75-0.11,1.47-0.33,2.14c-0.22,0.67-0.54,1.28-0.96,1.83
		c-0.42,0.55-0.94,1.03-1.55,1.44c-0.61,0.41-1.31,0.74-2.1,0.98c0.27,0.16,0.52,0.34,0.74,0.55c0.23,0.21,0.43,0.46,0.62,0.75
		L26.18,105.31z M15.45,93.56c0.79,0,1.47-0.1,2.05-0.29c0.58-0.2,1.06-0.47,1.44-0.81c0.38-0.35,0.66-0.76,0.84-1.23
		s0.28-1,0.28-1.57c0-1.14-0.38-2.01-1.12-2.62s-1.89-0.91-3.43-0.91h-2.67v7.44H15.45z"/>
	<path class="st0" d="M30.19,97.83c0.06,0.82,0.21,1.52,0.43,2.12c0.23,0.59,0.53,1.09,0.9,1.47c0.37,0.39,0.81,0.68,1.33,0.87
		c0.51,0.19,1.08,0.29,1.7,0.29s1.15-0.07,1.6-0.22c0.45-0.14,0.84-0.3,1.18-0.48s0.63-0.34,0.88-0.48c0.25-0.15,0.5-0.22,0.74-0.22
		c0.32,0,0.56,0.12,0.71,0.36l1.1,1.4c-0.42,0.5-0.9,0.91-1.43,1.25s-1.08,0.6-1.65,0.81c-0.57,0.2-1.16,0.34-1.75,0.43
		s-1.17,0.12-1.73,0.12c-1.11,0-2.13-0.18-3.08-0.55c-0.95-0.37-1.78-0.91-2.48-1.63c-0.7-0.72-1.26-1.61-1.66-2.67
		c-0.4-1.06-0.6-2.29-0.6-3.68c0-1.08,0.18-2.11,0.53-3.06c0.35-0.96,0.85-1.79,1.51-2.5s1.46-1.27,2.4-1.68
		c0.95-0.41,2.01-0.62,3.2-0.62c1,0,1.93,0.16,2.77,0.48s1.58,0.79,2.19,1.4c0.61,0.61,1.09,1.37,1.43,2.26
		c0.35,0.89,0.52,1.91,0.52,3.06c0,0.58-0.06,0.97-0.19,1.17c-0.12,0.2-0.36,0.3-0.71,0.3H30.19z M37.49,95.53
		c0-0.5-0.07-0.96-0.21-1.4c-0.14-0.44-0.35-0.82-0.63-1.15c-0.28-0.33-0.63-0.59-1.06-0.78c-0.43-0.19-0.93-0.29-1.5-0.29
		c-1.11,0-1.98,0.32-2.61,0.95c-0.64,0.63-1.04,1.52-1.22,2.68H37.49z"/>
	<path class="st0" d="M53.78,92.5c-0.1,0.17-0.21,0.28-0.33,0.35s-0.26,0.1-0.43,0.1c-0.19,0-0.39-0.05-0.6-0.15
		c-0.21-0.1-0.46-0.22-0.74-0.35c-0.28-0.13-0.6-0.25-0.95-0.35c-0.36-0.1-0.78-0.15-1.26-0.15c-0.75,0-1.35,0.16-1.77,0.48
		s-0.64,0.74-0.64,1.26c0,0.34,0.11,0.63,0.33,0.86s0.52,0.44,0.88,0.61c0.37,0.18,0.78,0.33,1.25,0.47s0.94,0.29,1.42,0.46
		c0.48,0.17,0.95,0.35,1.42,0.57s0.88,0.48,1.25,0.81c0.37,0.33,0.66,0.72,0.88,1.17c0.22,0.46,0.33,1,0.33,1.64
		c0,0.77-0.14,1.47-0.41,2.12c-0.27,0.65-0.68,1.2-1.22,1.67s-1.2,0.84-1.99,1.1c-0.79,0.26-1.7,0.4-2.74,0.4
		c-0.55,0-1.08-0.05-1.6-0.15c-0.52-0.1-1.02-0.23-1.5-0.41c-0.48-0.18-0.93-0.38-1.33-0.62c-0.41-0.24-0.77-0.5-1.08-0.77
		l0.88-1.46c0.11-0.18,0.25-0.31,0.4-0.4c0.16-0.09,0.35-0.14,0.59-0.14s0.46,0.07,0.67,0.2s0.46,0.28,0.74,0.43
		c0.28,0.15,0.61,0.3,0.98,0.43c0.38,0.13,0.85,0.2,1.43,0.2c0.45,0,0.84-0.05,1.17-0.16s0.59-0.25,0.81-0.43
		c0.21-0.18,0.37-0.38,0.46-0.61s0.15-0.47,0.15-0.72c0-0.37-0.11-0.68-0.33-0.91s-0.52-0.44-0.88-0.62
		c-0.37-0.18-0.79-0.33-1.26-0.47s-0.95-0.29-1.44-0.46c-0.49-0.17-0.97-0.36-1.44-0.58c-0.47-0.22-0.89-0.5-1.26-0.84
		c-0.37-0.34-0.66-0.76-0.88-1.26s-0.33-1.1-0.33-1.8c0-0.65,0.13-1.27,0.39-1.86c0.26-0.59,0.64-1.1,1.14-1.54
		c0.5-0.44,1.13-0.79,1.88-1.05c0.75-0.26,1.61-0.4,2.6-0.4c1.1,0,2.09,0.18,2.99,0.54s1.65,0.84,2.25,1.43L53.78,92.5z"/>
	<path class="st0" d="M62.48,84.77c0,0.33-0.07,0.64-0.2,0.93c-0.13,0.29-0.31,0.54-0.53,0.76c-0.22,0.22-0.48,0.39-0.78,0.52
		c-0.3,0.13-0.62,0.19-0.96,0.19c-0.33,0-0.64-0.06-0.94-0.19s-0.55-0.3-0.77-0.52c-0.22-0.22-0.39-0.47-0.52-0.76
		c-0.13-0.29-0.19-0.6-0.19-0.93c0-0.34,0.06-0.66,0.19-0.96c0.13-0.3,0.3-0.56,0.52-0.77c0.22-0.22,0.47-0.39,0.77-0.52
		c0.29-0.13,0.61-0.19,0.94-0.19c0.34,0,0.66,0.06,0.96,0.19c0.3,0.13,0.56,0.3,0.78,0.52c0.22,0.22,0.4,0.48,0.53,0.77
		C62.41,84.11,62.48,84.43,62.48,84.77z M61.95,89.4v15.9h-3.84V89.4H61.95z"/>
	<path class="st0" d="M79.95,82.27v23.03h-2.34c-0.51,0-0.83-0.23-0.96-0.7l-0.33-1.53c-0.64,0.73-1.38,1.33-2.21,1.78
		c-0.83,0.45-1.8,0.68-2.91,0.68c-0.87,0-1.66-0.18-2.39-0.54c-0.72-0.36-1.35-0.89-1.87-1.57c-0.52-0.69-0.92-1.54-1.21-2.55
		s-0.43-2.17-0.43-3.47c0-1.18,0.16-2.27,0.48-3.29s0.78-1.89,1.38-2.64c0.6-0.74,1.32-1.33,2.15-1.74s1.78-0.63,2.82-0.63
		c0.89,0,1.65,0.14,2.28,0.42c0.63,0.28,1.19,0.66,1.69,1.13v-8.39H79.95z M76.12,93.46c-0.43-0.53-0.91-0.9-1.42-1.12
		c-0.51-0.22-1.06-0.33-1.65-0.33c-0.58,0-1.1,0.11-1.57,0.33c-0.46,0.22-0.86,0.55-1.19,0.98c-0.33,0.44-0.58,1-0.76,1.67
		c-0.18,0.68-0.26,1.48-0.26,2.4c0,0.93,0.07,1.72,0.22,2.36c0.15,0.65,0.36,1.17,0.64,1.58c0.28,0.41,0.62,0.7,1.02,0.88
		c0.4,0.18,0.85,0.27,1.35,0.27c0.8,0,1.47-0.17,2.03-0.5c0.56-0.33,1.08-0.8,1.58-1.41V93.46z"/>
	<path class="st0" d="M86.95,97.83c0.06,0.82,0.21,1.52,0.43,2.12c0.23,0.59,0.53,1.09,0.9,1.47c0.37,0.39,0.81,0.68,1.33,0.87
		c0.51,0.19,1.08,0.29,1.7,0.29s1.15-0.07,1.6-0.22c0.45-0.14,0.84-0.3,1.18-0.48s0.63-0.34,0.88-0.48c0.25-0.15,0.5-0.22,0.74-0.22
		c0.32,0,0.56,0.12,0.71,0.36l1.1,1.4c-0.42,0.5-0.9,0.91-1.43,1.25s-1.08,0.6-1.65,0.81c-0.57,0.2-1.16,0.34-1.75,0.43
		s-1.17,0.12-1.73,0.12c-1.11,0-2.13-0.18-3.08-0.55c-0.95-0.37-1.78-0.91-2.48-1.63c-0.7-0.72-1.26-1.61-1.66-2.67
		c-0.4-1.06-0.6-2.29-0.6-3.68c0-1.08,0.18-2.11,0.53-3.06c0.35-0.96,0.85-1.79,1.51-2.5s1.46-1.27,2.4-1.68
		c0.95-0.41,2.01-0.62,3.2-0.62c1,0,1.93,0.16,2.77,0.48s1.58,0.79,2.19,1.4c0.61,0.61,1.09,1.37,1.43,2.26
		c0.35,0.89,0.52,1.91,0.52,3.06c0,0.58-0.06,0.97-0.19,1.17c-0.12,0.2-0.36,0.3-0.71,0.3H86.95z M94.25,95.53
		c0-0.5-0.07-0.96-0.21-1.4c-0.14-0.44-0.35-0.82-0.63-1.15c-0.28-0.33-0.63-0.59-1.06-0.78c-0.43-0.19-0.93-0.29-1.5-0.29
		c-1.11,0-1.98,0.32-2.61,0.95c-0.64,0.63-1.04,1.52-1.22,2.68H94.25z"/>
	<path class="st0" d="M104.42,91.36c0.32-0.32,0.66-0.62,1.02-0.89c0.36-0.27,0.73-0.51,1.13-0.7c0.4-0.19,0.82-0.34,1.28-0.45
		s0.95-0.16,1.49-0.16c0.87,0,1.64,0.15,2.31,0.44c0.67,0.29,1.23,0.71,1.68,1.24c0.45,0.53,0.79,1.17,1.02,1.91
		c0.23,0.74,0.35,1.55,0.35,2.44v10.12h-3.83V95.18c0-0.97-0.22-1.72-0.67-2.26c-0.44-0.53-1.12-0.8-2.03-0.8
		c-0.66,0-1.28,0.15-1.86,0.45c-0.58,0.3-1.13,0.71-1.64,1.22v11.5h-3.83V89.4h2.34c0.5,0,0.82,0.23,0.98,0.7L104.42,91.36z"/>
	<path class="st0" d="M123.69,105.55c-1.38,0-2.45-0.39-3.19-1.17c-0.74-0.78-1.11-1.86-1.11-3.23v-8.88h-1.63
		c-0.21,0-0.38-0.07-0.53-0.2c-0.15-0.13-0.22-0.34-0.22-0.6v-1.52l2.56-0.42l0.81-4.34c0.05-0.21,0.15-0.37,0.29-0.48
		c0.14-0.11,0.33-0.17,0.56-0.17h1.98v5.01h4.25v2.73h-4.25v8.62c0,0.5,0.12,0.88,0.36,1.16c0.24,0.28,0.58,0.42,1,0.42
		c0.24,0,0.44-0.03,0.6-0.09c0.16-0.06,0.3-0.12,0.42-0.18c0.12-0.06,0.22-0.12,0.32-0.18c0.09-0.06,0.19-0.08,0.28-0.08
		c0.11,0,0.21,0.03,0.28,0.08c0.07,0.06,0.15,0.14,0.23,0.26l1.15,1.86c-0.56,0.47-1.2,0.82-1.92,1.05
		C125.21,105.43,124.46,105.55,123.69,105.55z"/>
	<path class="st0" d="M139.9,92.5c-0.1,0.17-0.21,0.28-0.33,0.35s-0.26,0.1-0.43,0.1c-0.19,0-0.39-0.05-0.6-0.15
		c-0.21-0.1-0.46-0.22-0.74-0.35c-0.28-0.13-0.6-0.25-0.95-0.35c-0.36-0.1-0.78-0.15-1.26-0.15c-0.75,0-1.35,0.16-1.77,0.48
		s-0.64,0.74-0.64,1.26c0,0.34,0.11,0.63,0.33,0.86s0.52,0.44,0.88,0.61c0.37,0.18,0.78,0.33,1.25,0.47s0.94,0.29,1.42,0.46
		c0.48,0.17,0.95,0.35,1.42,0.57s0.88,0.48,1.25,0.81c0.37,0.33,0.66,0.72,0.88,1.17c0.22,0.46,0.33,1,0.33,1.64
		c0,0.77-0.14,1.47-0.41,2.12c-0.27,0.65-0.68,1.2-1.22,1.67s-1.2,0.84-1.99,1.1c-0.79,0.26-1.7,0.4-2.74,0.4
		c-0.55,0-1.08-0.05-1.6-0.15c-0.52-0.1-1.02-0.23-1.5-0.41c-0.48-0.18-0.93-0.38-1.33-0.62c-0.41-0.24-0.77-0.5-1.08-0.77
		l0.88-1.46c0.11-0.18,0.25-0.31,0.4-0.4c0.16-0.09,0.35-0.14,0.59-0.14s0.46,0.07,0.67,0.2s0.46,0.28,0.74,0.43
		c0.28,0.15,0.61,0.3,0.98,0.43c0.38,0.13,0.85,0.2,1.43,0.2c0.45,0,0.84-0.05,1.17-0.16s0.59-0.25,0.81-0.43
		c0.21-0.18,0.37-0.38,0.46-0.61s0.15-0.47,0.15-0.72c0-0.37-0.11-0.68-0.33-0.91s-0.52-0.44-0.88-0.62
		c-0.37-0.18-0.79-0.33-1.26-0.47s-0.95-0.29-1.44-0.46c-0.49-0.17-0.97-0.36-1.44-0.58c-0.47-0.22-0.89-0.5-1.26-0.84
		c-0.37-0.34-0.66-0.76-0.88-1.26s-0.33-1.1-0.33-1.8c0-0.65,0.13-1.27,0.39-1.86c0.26-0.59,0.64-1.1,1.14-1.54
		c0.5-0.44,1.13-0.79,1.88-1.05c0.75-0.26,1.61-0.4,2.6-0.4c1.1,0,2.09,0.18,2.99,0.54s1.65,0.84,2.25,1.43L139.9,92.5z"/>
</g>
<g>
	<path class="st0" d="M234.74,82.87v21.69h-3.56V90.55c0-0.56,0.03-1.17,0.09-1.82l-6.56,12.32c-0.31,0.59-0.79,0.88-1.42,0.88
		h-0.57c-0.64,0-1.12-0.29-1.42-0.88l-6.63-12.36c0.03,0.33,0.05,0.66,0.07,0.98c0.02,0.32,0.03,0.62,0.03,0.89v14.01h-3.56V82.87
		h3.04c0.18,0,0.33,0,0.46,0.02c0.13,0.01,0.25,0.04,0.35,0.07c0.1,0.04,0.2,0.1,0.29,0.2c0.08,0.09,0.17,0.21,0.25,0.36l6.5,12.04
		c0.17,0.32,0.33,0.65,0.47,0.99s0.29,0.69,0.43,1.05c0.14-0.37,0.29-0.73,0.44-1.07c0.15-0.34,0.31-0.68,0.48-1l6.4-12.02
		c0.08-0.15,0.17-0.27,0.25-0.36c0.09-0.09,0.19-0.16,0.29-0.2c0.11-0.04,0.22-0.06,0.35-0.07c0.13-0.01,0.29-0.02,0.47-0.02H234.74
		z"/>
	<path class="st0" d="M241.7,97.33c0.06,0.79,0.2,1.47,0.42,2.05c0.22,0.58,0.51,1.05,0.87,1.43c0.36,0.38,0.79,0.65,1.28,0.84
		s1.04,0.28,1.64,0.28s1.12-0.07,1.55-0.21c0.44-0.14,0.81-0.29,1.14-0.46c0.32-0.17,0.61-0.32,0.85-0.46s0.48-0.21,0.71-0.21
		c0.31,0,0.54,0.12,0.69,0.35l1.06,1.35c-0.41,0.48-0.87,0.88-1.38,1.21c-0.51,0.33-1.04,0.58-1.6,0.78
		c-0.56,0.2-1.12,0.33-1.7,0.41s-1.13,0.12-1.67,0.12c-1.07,0-2.06-0.18-2.98-0.53c-0.92-0.35-1.72-0.88-2.4-1.57
		c-0.68-0.7-1.22-1.56-1.6-2.58c-0.39-1.02-0.58-2.21-0.58-3.56c0-1.05,0.17-2.04,0.51-2.96s0.83-1.73,1.46-2.42
		s1.41-1.23,2.33-1.63s1.95-0.6,3.1-0.6c0.97,0,1.87,0.16,2.69,0.46c0.82,0.31,1.52,0.76,2.12,1.36c0.59,0.6,1.05,1.33,1.39,2.19
		c0.33,0.87,0.5,1.85,0.5,2.96c0,0.56-0.06,0.94-0.18,1.13s-0.35,0.29-0.69,0.29H241.7z M248.77,95.1c0-0.48-0.07-0.93-0.2-1.36
		c-0.13-0.43-0.34-0.8-0.61-1.12c-0.27-0.32-0.61-0.57-1.03-0.76c-0.42-0.19-0.9-0.28-1.45-0.28c-1.07,0-1.91,0.31-2.53,0.92
		c-0.62,0.61-1.01,1.48-1.18,2.6H248.77z"/>
	<path class="st0" d="M268.57,82.27v22.29h-2.26c-0.49,0-0.8-0.23-0.93-0.67l-0.31-1.49c-0.62,0.71-1.33,1.29-2.14,1.73
		s-1.74,0.66-2.81,0.66c-0.84,0-1.61-0.18-2.31-0.52c-0.7-0.35-1.3-0.86-1.81-1.52c-0.51-0.67-0.9-1.49-1.17-2.47
		c-0.27-0.98-0.41-2.1-0.41-3.36c0-1.14,0.15-2.2,0.46-3.18c0.31-0.98,0.75-1.83,1.33-2.55c0.58-0.72,1.27-1.28,2.08-1.69
		c0.81-0.41,1.72-0.61,2.73-0.61c0.86,0,1.6,0.13,2.21,0.4s1.15,0.64,1.64,1.1v-8.12H268.57z M264.86,93.1
		c-0.42-0.51-0.88-0.87-1.37-1.08c-0.5-0.21-1.03-0.31-1.6-0.31c-0.56,0-1.06,0.1-1.52,0.31c-0.45,0.21-0.83,0.53-1.15,0.95
		c-0.32,0.43-0.56,0.96-0.73,1.62c-0.17,0.65-0.26,1.43-0.26,2.32c0,0.9,0.07,1.66,0.22,2.29c0.14,0.62,0.35,1.13,0.62,1.53
		s0.6,0.68,0.99,0.85c0.39,0.18,0.83,0.26,1.31,0.26c0.77,0,1.42-0.16,1.96-0.48c0.54-0.32,1.05-0.77,1.53-1.37V93.1z"/>
	<path class="st0" d="M276.91,84.69c0,0.32-0.07,0.62-0.2,0.9c-0.13,0.28-0.3,0.52-0.52,0.73c-0.21,0.21-0.47,0.38-0.76,0.5
		s-0.6,0.19-0.93,0.19c-0.32,0-0.62-0.06-0.91-0.19s-0.53-0.29-0.74-0.5c-0.21-0.21-0.38-0.45-0.5-0.73
		c-0.12-0.28-0.19-0.58-0.19-0.9c0-0.33,0.06-0.64,0.19-0.93c0.12-0.29,0.29-0.54,0.5-0.75s0.46-0.38,0.74-0.5
		c0.29-0.12,0.59-0.19,0.91-0.19c0.33,0,0.64,0.06,0.93,0.19c0.29,0.13,0.54,0.29,0.76,0.5c0.22,0.21,0.39,0.46,0.52,0.75
		C276.84,84.05,276.91,84.36,276.91,84.69z M276.4,89.17v15.39h-3.72V89.17H276.4z"/>
	<path class="st0" d="M280.15,91.32c1.77-1.62,3.9-2.43,6.39-2.43c0.9,0,1.71,0.15,2.42,0.44s1.31,0.71,1.8,1.23
		c0.49,0.52,0.86,1.15,1.12,1.88c0.25,0.73,0.38,1.53,0.38,2.4v9.72h-1.68c-0.35,0-0.62-0.05-0.81-0.16s-0.34-0.32-0.45-0.64
		l-0.33-1.11c-0.39,0.35-0.77,0.66-1.14,0.92c-0.37,0.27-0.76,0.49-1.16,0.67s-0.83,0.32-1.28,0.41c-0.46,0.09-0.96,0.14-1.51,0.14
		c-0.65,0-1.25-0.09-1.8-0.26s-1.02-0.44-1.42-0.79c-0.4-0.35-0.71-0.78-0.93-1.31c-0.22-0.52-0.33-1.12-0.33-1.81
		c0-0.39,0.06-0.78,0.2-1.16c0.13-0.39,0.34-0.75,0.64-1.1s0.68-0.68,1.15-0.99c0.47-0.31,1.05-0.58,1.73-0.81
		c0.69-0.23,1.48-0.42,2.39-0.56c0.91-0.14,1.95-0.23,3.12-0.26v-0.9c0-1.03-0.22-1.79-0.66-2.29c-0.44-0.5-1.07-0.74-1.9-0.74
		c-0.6,0-1.1,0.07-1.49,0.21c-0.4,0.14-0.74,0.3-1.04,0.47c-0.3,0.17-0.57,0.33-0.82,0.47c-0.25,0.14-0.52,0.21-0.82,0.21
		c-0.26,0-0.48-0.07-0.66-0.2c-0.18-0.14-0.33-0.29-0.44-0.47L280.15,91.32z M288.64,97.99c-1.07,0.05-1.97,0.14-2.7,0.28
		c-0.73,0.13-1.31,0.31-1.75,0.52s-0.75,0.46-0.94,0.73c-0.19,0.28-0.29,0.58-0.29,0.92c0,0.65,0.19,1.12,0.58,1.4
		c0.38,0.28,0.89,0.42,1.51,0.42c0.76,0,1.42-0.14,1.97-0.41c0.56-0.27,1.1-0.69,1.63-1.25V97.99z"/>
	<path class="st0" d="M299.53,91.06c0.31-0.31,0.64-0.6,0.98-0.86c0.35-0.27,0.71-0.49,1.1-0.68c0.38-0.19,0.8-0.33,1.24-0.44
		s0.92-0.16,1.44-0.16c0.84,0,1.58,0.14,2.24,0.43c0.65,0.29,1.19,0.69,1.63,1.2s0.77,1.13,0.99,1.84c0.23,0.72,0.34,1.5,0.34,2.36
		v9.79h-3.71v-9.79c0-0.94-0.22-1.67-0.65-2.18c-0.43-0.51-1.09-0.77-1.97-0.77c-0.64,0-1.24,0.15-1.8,0.44s-1.09,0.69-1.59,1.19
		v11.13h-3.71V89.17h2.27c0.48,0,0.79,0.23,0.94,0.68L299.53,91.06z"/>
	<path class="st0" d="M229.51,118.87v21.69h-4.05v-9.48h-10.19v9.48h-4.05v-21.69h4.05v9.33h10.19v-9.33H229.51z"/>
	<path class="st0" d="M240.43,124.93c1.14,0,2.18,0.19,3.11,0.55c0.94,0.37,1.73,0.9,2.4,1.58c0.67,0.68,1.18,1.51,1.54,2.49
		s0.54,2.07,0.54,3.28c0,1.22-0.18,2.32-0.54,3.3s-0.87,1.81-1.54,2.5s-1.46,1.22-2.4,1.59c-0.94,0.37-1.97,0.56-3.11,0.56
		c-1.15,0-2.2-0.19-3.14-0.56c-0.94-0.37-1.74-0.9-2.41-1.59c-0.67-0.69-1.18-1.52-1.54-2.5c-0.37-0.98-0.55-2.08-0.55-3.3
		c0-1.21,0.18-2.3,0.55-3.28c0.36-0.98,0.88-1.81,1.54-2.49c0.66-0.68,1.47-1.21,2.41-1.58
		C238.23,125.12,239.28,124.93,240.43,124.93z M240.43,137.94c1.28,0,2.23-0.43,2.84-1.29c0.62-0.86,0.92-2.12,0.92-3.78
		c0-1.66-0.31-2.93-0.92-3.8c-0.61-0.87-1.56-1.3-2.84-1.3c-1.3,0-2.26,0.44-2.89,1.31s-0.94,2.14-0.94,3.79
		c0,1.65,0.31,2.91,0.94,3.77S239.13,137.94,240.43,137.94z"/>
	<path class="st0" d="M264.44,125.17v15.39h-2.26c-0.49,0-0.8-0.23-0.93-0.67l-0.25-1.23c-0.63,0.64-1.33,1.16-2.08,1.55
		c-0.76,0.4-1.66,0.59-2.69,0.59c-0.84,0-1.58-0.14-2.23-0.43s-1.19-0.69-1.63-1.21c-0.44-0.52-0.77-1.14-1-1.85
		c-0.23-0.71-0.34-1.5-0.34-2.36v-9.78h3.7v9.78c0,0.94,0.22,1.67,0.65,2.18c0.44,0.52,1.09,0.77,1.96,0.77
		c0.64,0,1.24-0.14,1.8-0.43s1.09-0.68,1.59-1.18v-11.13H264.44z"/>
	<path class="st0" d="M277.82,128.17c-0.1,0.16-0.21,0.27-0.32,0.34c-0.11,0.07-0.25,0.1-0.42,0.1c-0.18,0-0.37-0.05-0.58-0.15
		c-0.21-0.1-0.44-0.21-0.71-0.34s-0.58-0.24-0.92-0.34c-0.34-0.1-0.75-0.15-1.22-0.15c-0.73,0-1.3,0.16-1.72,0.47
		s-0.62,0.71-0.62,1.21c0,0.33,0.11,0.61,0.32,0.83c0.21,0.23,0.5,0.42,0.85,0.59c0.35,0.17,0.76,0.32,1.21,0.46
		c0.45,0.14,0.91,0.28,1.37,0.44c0.47,0.16,0.92,0.34,1.37,0.55c0.45,0.21,0.85,0.46,1.21,0.78s0.64,0.69,0.85,1.13
		s0.32,0.97,0.32,1.59c0,0.74-0.13,1.42-0.4,2.05c-0.27,0.62-0.66,1.17-1.18,1.62s-1.16,0.81-1.93,1.06
		c-0.77,0.25-1.65,0.38-2.65,0.38c-0.53,0-1.05-0.05-1.55-0.14c-0.5-0.1-0.99-0.23-1.46-0.4c-0.46-0.17-0.9-0.37-1.29-0.6
		s-0.74-0.48-1.04-0.75l0.85-1.41c0.11-0.17,0.24-0.3,0.39-0.39c0.15-0.09,0.34-0.13,0.57-0.13s0.45,0.06,0.65,0.19
		c0.2,0.13,0.44,0.27,0.71,0.42c0.27,0.15,0.59,0.29,0.95,0.42c0.36,0.13,0.83,0.19,1.39,0.19c0.44,0,0.82-0.05,1.13-0.16
		c0.31-0.1,0.57-0.24,0.78-0.41s0.35-0.37,0.45-0.59c0.09-0.23,0.14-0.46,0.14-0.7c0-0.36-0.11-0.65-0.32-0.89
		c-0.22-0.23-0.5-0.43-0.85-0.6c-0.35-0.17-0.76-0.32-1.21-0.46c-0.46-0.13-0.92-0.28-1.4-0.44c-0.48-0.16-0.94-0.35-1.4-0.56
		c-0.46-0.21-0.86-0.49-1.22-0.82s-0.64-0.73-0.85-1.21c-0.21-0.48-0.32-1.06-0.32-1.74c0-0.63,0.12-1.23,0.38-1.8
		c0.25-0.57,0.62-1.07,1.1-1.49c0.48-0.42,1.09-0.77,1.81-1.02s1.56-0.38,2.51-0.38c1.06,0,2.02,0.17,2.89,0.52
		c0.87,0.35,1.6,0.81,2.18,1.38L277.82,128.17z"/>
	<path class="st0" d="M284.8,133.33c0.06,0.79,0.2,1.47,0.42,2.05c0.22,0.58,0.51,1.05,0.87,1.43c0.36,0.38,0.79,0.65,1.28,0.84
		s1.04,0.28,1.64,0.28s1.12-0.07,1.55-0.21c0.44-0.14,0.81-0.29,1.14-0.46c0.32-0.17,0.61-0.32,0.85-0.46s0.48-0.21,0.71-0.21
		c0.31,0,0.54,0.12,0.69,0.35l1.06,1.35c-0.41,0.48-0.87,0.88-1.38,1.21c-0.51,0.33-1.04,0.58-1.6,0.78
		c-0.56,0.2-1.12,0.33-1.7,0.41s-1.13,0.12-1.67,0.12c-1.07,0-2.06-0.18-2.98-0.53c-0.92-0.35-1.72-0.88-2.4-1.57
		c-0.68-0.7-1.22-1.56-1.6-2.58c-0.39-1.02-0.58-2.21-0.58-3.56c0-1.05,0.17-2.04,0.51-2.96s0.83-1.73,1.46-2.42
		s1.41-1.23,2.33-1.63s1.95-0.6,3.1-0.6c0.97,0,1.87,0.16,2.69,0.46c0.82,0.31,1.52,0.76,2.12,1.36c0.59,0.6,1.05,1.33,1.39,2.19
		c0.33,0.87,0.5,1.85,0.5,2.96c0,0.56-0.06,0.94-0.18,1.13s-0.35,0.29-0.69,0.29H284.8z M291.86,131.1c0-0.48-0.07-0.93-0.2-1.36
		c-0.13-0.43-0.34-0.8-0.61-1.12c-0.27-0.32-0.61-0.57-1.03-0.76c-0.42-0.19-0.9-0.28-1.45-0.28c-1.07,0-1.91,0.31-2.53,0.92
		c-0.62,0.61-1.01,1.48-1.18,2.6H291.86z"/>
	<path class="st0" d="M302,126.82c0.6-0.56,1.26-1.01,1.98-1.36c0.72-0.35,1.56-0.52,2.53-0.52c0.84,0,1.58,0.14,2.24,0.43
		c0.65,0.29,1.19,0.69,1.63,1.2s0.77,1.13,0.99,1.84c0.23,0.72,0.34,1.5,0.34,2.36v9.79H308v-9.79c0-0.94-0.22-1.67-0.65-2.18
		c-0.43-0.51-1.09-0.77-1.97-0.77c-0.64,0-1.24,0.15-1.8,0.44s-1.09,0.69-1.59,1.19v11.13h-3.71v-22.29H302V126.82z"/>
	<path class="st0" d="M322.36,124.93c1.14,0,2.18,0.19,3.11,0.55c0.94,0.37,1.73,0.9,2.4,1.58c0.67,0.68,1.18,1.51,1.54,2.49
		s0.54,2.07,0.54,3.28c0,1.22-0.18,2.32-0.54,3.3s-0.87,1.81-1.54,2.5s-1.46,1.22-2.4,1.59c-0.94,0.37-1.97,0.56-3.11,0.56
		c-1.15,0-2.2-0.19-3.14-0.56c-0.94-0.37-1.74-0.9-2.41-1.59c-0.67-0.69-1.18-1.52-1.54-2.5c-0.37-0.98-0.55-2.08-0.55-3.3
		c0-1.21,0.18-2.3,0.55-3.28c0.36-0.98,0.88-1.81,1.54-2.49c0.66-0.68,1.47-1.21,2.41-1.58
		C320.16,125.12,321.21,124.93,322.36,124.93z M322.36,137.94c1.28,0,2.23-0.43,2.84-1.29c0.62-0.86,0.92-2.12,0.92-3.78
		c0-1.66-0.31-2.93-0.92-3.8c-0.61-0.87-1.56-1.3-2.84-1.3c-1.3,0-2.26,0.44-2.89,1.31s-0.94,2.14-0.94,3.79
		c0,1.65,0.31,2.91,0.94,3.77S321.06,137.94,322.36,137.94z"/>
	<path class="st0" d="M336.86,118.27v22.29h-3.71v-22.29H336.86z"/>
	<path class="st0" d="M354.26,118.27v22.29H352c-0.49,0-0.8-0.23-0.93-0.67l-0.31-1.49c-0.62,0.71-1.33,1.29-2.14,1.73
		s-1.74,0.66-2.81,0.66c-0.84,0-1.61-0.18-2.31-0.52c-0.7-0.35-1.3-0.86-1.81-1.52c-0.51-0.67-0.9-1.49-1.17-2.47
		c-0.27-0.98-0.41-2.1-0.41-3.36c0-1.14,0.15-2.2,0.46-3.18c0.31-0.98,0.75-1.83,1.33-2.55c0.58-0.72,1.27-1.28,2.08-1.69
		c0.81-0.41,1.72-0.61,2.73-0.61c0.86,0,1.6,0.13,2.21,0.4s1.15,0.64,1.64,1.1v-8.12H354.26z M350.56,129.1
		c-0.42-0.51-0.88-0.87-1.37-1.08c-0.5-0.21-1.03-0.31-1.6-0.31c-0.56,0-1.06,0.1-1.52,0.31c-0.45,0.21-0.83,0.53-1.15,0.95
		c-0.32,0.43-0.56,0.96-0.73,1.62c-0.17,0.65-0.26,1.43-0.26,2.32c0,0.9,0.07,1.66,0.22,2.29c0.14,0.62,0.35,1.13,0.62,1.53
		s0.6,0.68,0.99,0.85c0.39,0.18,0.83,0.26,1.31,0.26c0.77,0,1.42-0.16,1.96-0.48c0.54-0.32,1.05-0.77,1.53-1.37V129.1z"/>
	<path class="st0" d="M215.27,176.56h-4.05v-21.69h4.05V176.56z"/>
	<path class="st0" d="M223.1,163.06c0.31-0.31,0.64-0.6,0.98-0.86c0.35-0.27,0.71-0.49,1.1-0.68c0.38-0.19,0.8-0.33,1.24-0.44
		s0.92-0.16,1.44-0.16c0.84,0,1.58,0.14,2.24,0.43c0.65,0.29,1.19,0.69,1.63,1.2s0.77,1.13,0.99,1.84c0.23,0.72,0.34,1.5,0.34,2.36
		v9.79h-3.71v-9.79c0-0.94-0.22-1.67-0.65-2.18c-0.43-0.51-1.09-0.77-1.97-0.77c-0.64,0-1.24,0.15-1.8,0.44s-1.09,0.69-1.59,1.19
		v11.13h-3.71v-15.39h2.27c0.48,0,0.79,0.23,0.94,0.68L223.1,163.06z"/>
	<path class="st0" d="M247.91,164.43c-0.11,0.14-0.22,0.25-0.32,0.33c-0.1,0.08-0.26,0.12-0.46,0.12c-0.19,0-0.38-0.06-0.56-0.17
		c-0.18-0.11-0.4-0.25-0.65-0.39s-0.55-0.27-0.89-0.39c-0.34-0.11-0.77-0.17-1.28-0.17c-0.65,0-1.22,0.12-1.71,0.35
		c-0.49,0.23-0.9,0.57-1.22,1.01c-0.33,0.44-0.57,0.97-0.73,1.6c-0.16,0.62-0.24,1.33-0.24,2.12c0,0.82,0.09,1.55,0.26,2.19
		c0.17,0.64,0.43,1.18,0.76,1.61c0.33,0.44,0.73,0.76,1.2,0.99c0.47,0.23,1,0.34,1.59,0.34s1.07-0.07,1.43-0.22
		c0.36-0.15,0.67-0.3,0.92-0.48c0.25-0.17,0.47-0.33,0.65-0.48c0.18-0.15,0.39-0.22,0.62-0.22c0.3,0,0.52,0.12,0.67,0.35l1.06,1.35
		c-0.41,0.48-0.85,0.88-1.33,1.21c-0.48,0.33-0.98,0.58-1.49,0.78c-0.52,0.2-1.04,0.33-1.59,0.41s-1.09,0.12-1.63,0.12
		c-0.95,0-1.85-0.18-2.69-0.53c-0.84-0.35-1.58-0.87-2.21-1.55s-1.13-1.51-1.49-2.5c-0.37-0.98-0.55-2.11-0.55-3.37
		c0-1.13,0.16-2.18,0.49-3.14c0.32-0.96,0.8-1.8,1.43-2.5c0.63-0.71,1.41-1.26,2.34-1.66c0.93-0.4,2-0.6,3.21-0.6
		c1.15,0,2.16,0.19,3.02,0.55c0.86,0.37,1.64,0.9,2.33,1.59L247.91,164.43z"/>
	<path class="st0" d="M258.22,160.93c1.14,0,2.18,0.19,3.11,0.55c0.94,0.37,1.73,0.9,2.4,1.58c0.67,0.68,1.18,1.51,1.54,2.49
		s0.54,2.07,0.54,3.28c0,1.22-0.18,2.32-0.54,3.3s-0.87,1.81-1.54,2.5s-1.46,1.22-2.4,1.59c-0.94,0.37-1.97,0.56-3.11,0.56
		c-1.15,0-2.2-0.19-3.14-0.56c-0.94-0.37-1.74-0.9-2.41-1.59c-0.67-0.69-1.18-1.52-1.54-2.5c-0.37-0.98-0.55-2.08-0.55-3.3
		c0-1.21,0.18-2.3,0.55-3.28c0.36-0.98,0.88-1.81,1.54-2.49c0.66-0.68,1.47-1.21,2.41-1.58
		C256.02,161.12,257.07,160.93,258.22,160.93z M258.22,173.94c1.28,0,2.23-0.43,2.84-1.29c0.62-0.86,0.92-2.12,0.92-3.78
		c0-1.66-0.31-2.93-0.92-3.8c-0.61-0.87-1.56-1.3-2.84-1.3c-1.3,0-2.26,0.44-2.89,1.31s-0.94,2.14-0.94,3.79
		c0,1.65,0.31,2.91,0.94,3.77S256.92,173.94,258.22,173.94z"/>
	<path class="st0" d="M268.97,176.56v-15.39h2.27c0.48,0,0.79,0.23,0.94,0.68l0.24,1.14c0.27-0.3,0.55-0.57,0.85-0.82
		s0.61-0.47,0.94-0.65c0.33-0.18,0.7-0.32,1.08-0.43s0.81-0.16,1.27-0.16c0.97,0,1.77,0.26,2.39,0.79c0.62,0.52,1.09,1.22,1.4,2.09
		c0.24-0.51,0.54-0.95,0.9-1.31c0.36-0.36,0.75-0.66,1.18-0.89c0.43-0.23,0.89-0.4,1.37-0.51s0.97-0.17,1.46-0.17
		c0.85,0,1.61,0.13,2.27,0.39c0.66,0.26,1.22,0.64,1.67,1.14c0.45,0.5,0.79,1.11,1.03,1.83s0.35,1.54,0.35,2.48v9.79h-3.7v-9.79
		c0-0.98-0.22-1.72-0.65-2.21c-0.43-0.5-1.06-0.74-1.89-0.74c-0.38,0-0.73,0.06-1.06,0.19c-0.33,0.13-0.61,0.32-0.85,0.56
		c-0.25,0.25-0.44,0.55-0.58,0.92s-0.21,0.79-0.21,1.27v9.79h-3.72v-9.79c0-1.03-0.21-1.78-0.62-2.25
		c-0.42-0.47-1.02-0.71-1.82-0.71c-0.54,0-1.04,0.13-1.51,0.4c-0.46,0.27-0.9,0.63-1.3,1.09v11.27H268.97z"/>
	<path class="st0" d="M297.28,169.33c0.06,0.79,0.2,1.47,0.42,2.05c0.22,0.58,0.51,1.05,0.87,1.43c0.36,0.38,0.79,0.65,1.28,0.84
		s1.04,0.28,1.64,0.28s1.12-0.07,1.55-0.21c0.44-0.14,0.81-0.29,1.14-0.46c0.32-0.17,0.61-0.32,0.85-0.46s0.48-0.21,0.71-0.21
		c0.31,0,0.54,0.12,0.69,0.35l1.06,1.35c-0.41,0.48-0.87,0.88-1.38,1.21c-0.51,0.33-1.04,0.58-1.6,0.78
		c-0.56,0.2-1.12,0.33-1.7,0.41s-1.13,0.12-1.67,0.12c-1.07,0-2.06-0.18-2.98-0.53c-0.92-0.35-1.72-0.88-2.4-1.57
		c-0.68-0.7-1.22-1.56-1.6-2.58c-0.39-1.02-0.58-2.21-0.58-3.56c0-1.05,0.17-2.04,0.51-2.96s0.83-1.73,1.46-2.42
		s1.41-1.23,2.33-1.63s1.95-0.6,3.1-0.6c0.97,0,1.87,0.16,2.69,0.46c0.82,0.31,1.52,0.76,2.12,1.36c0.59,0.6,1.05,1.33,1.39,2.19
		c0.33,0.87,0.5,1.85,0.5,2.96c0,0.56-0.06,0.94-0.18,1.13s-0.35,0.29-0.69,0.29H297.28z M304.34,167.1c0-0.48-0.07-0.93-0.2-1.36
		c-0.13-0.43-0.34-0.8-0.61-1.12c-0.27-0.32-0.61-0.57-1.03-0.76c-0.42-0.19-0.9-0.28-1.45-0.28c-1.07,0-1.91,0.31-2.53,0.92
		c-0.62,0.61-1.01,1.48-1.18,2.6H304.34z"/>
</g>
<g>
	<path class="st0" d="M419.79,88.71c1.1,0,2.1,0.18,3.01,0.54c0.9,0.36,1.68,0.87,2.32,1.52s1.14,1.46,1.49,2.41
		c0.35,0.95,0.52,2.01,0.52,3.18c0,1.18-0.17,2.24-0.52,3.19s-0.84,1.75-1.49,2.42s-1.42,1.18-2.32,1.54
		c-0.9,0.36-1.91,0.54-3.01,0.54c-1.11,0-2.12-0.18-3.03-0.54c-0.91-0.36-1.68-0.87-2.33-1.54s-1.14-1.47-1.49-2.42
		c-0.35-0.95-0.53-2.01-0.53-3.19c0-1.17,0.18-2.23,0.53-3.18c0.35-0.95,0.85-1.75,1.49-2.41s1.42-1.17,2.33-1.52
		C417.66,88.89,418.67,88.71,419.79,88.71z M419.79,101.28c1.24,0,2.15-0.42,2.75-1.25c0.59-0.83,0.89-2.05,0.89-3.65
		s-0.3-2.83-0.89-3.67c-0.59-0.84-1.51-1.26-2.75-1.26c-1.26,0-2.19,0.42-2.79,1.27s-0.91,2.07-0.91,3.66s0.3,2.81,0.91,3.65
		C417.6,100.86,418.53,101.28,419.79,101.28z"/>
	<path class="st0" d="M430.55,103.82V91.64l-1.29-0.2c-0.28-0.06-0.51-0.16-0.67-0.3s-0.25-0.34-0.25-0.6v-1.46h2.22v-1.1
		c0-0.85,0.13-1.61,0.38-2.29c0.26-0.68,0.62-1.25,1.1-1.73c0.48-0.47,1.06-0.84,1.75-1.09c0.69-0.25,1.46-0.38,2.32-0.38
		c0.69,0,1.32,0.09,1.91,0.28l-0.07,1.8c-0.01,0.14-0.05,0.24-0.12,0.33c-0.07,0.08-0.16,0.15-0.27,0.19
		c-0.11,0.04-0.24,0.07-0.38,0.09s-0.3,0.02-0.46,0.02c-0.43,0-0.8,0.05-1.14,0.14s-0.62,0.25-0.85,0.48
		c-0.23,0.23-0.41,0.53-0.53,0.9c-0.12,0.37-0.18,0.83-0.18,1.38v0.99h3.87v2.55h-3.76v12.19H430.55z"/>
	<path class="st0" d="M463.33,103.82h-3.52c-0.67,0-1.15-0.26-1.45-0.78l-4.41-6.71c-0.16-0.25-0.35-0.43-0.54-0.54
		c-0.2-0.11-0.49-0.16-0.88-0.16h-1.67v8.19h-3.9V82.85h6.39c1.42,0,2.64,0.15,3.66,0.44c1.02,0.29,1.86,0.71,2.51,1.24
		c0.65,0.53,1.13,1.17,1.44,1.91c0.31,0.74,0.46,1.55,0.46,2.44c0,0.71-0.1,1.37-0.31,2s-0.51,1.2-0.9,1.71
		c-0.39,0.51-0.88,0.96-1.45,1.35s-1.23,0.69-1.96,0.91c0.25,0.15,0.48,0.32,0.7,0.51c0.21,0.2,0.41,0.43,0.58,0.7L463.33,103.82z
		 M453.29,92.83c0.73,0,1.38-0.09,1.92-0.28c0.55-0.18,1-0.44,1.35-0.76c0.35-0.32,0.62-0.71,0.79-1.15
		c0.17-0.44,0.26-0.93,0.26-1.46c0-1.06-0.35-1.88-1.05-2.45c-0.7-0.57-1.77-0.86-3.21-0.86h-2.49v6.96H453.29z"/>
	<path class="st0" d="M466.82,96.83c0.06,0.76,0.19,1.42,0.41,1.98c0.21,0.56,0.49,1.02,0.84,1.38c0.35,0.36,0.76,0.63,1.24,0.81
		c0.48,0.18,1.01,0.27,1.59,0.27s1.08-0.07,1.5-0.2s0.79-0.29,1.1-0.45c0.31-0.16,0.59-0.31,0.83-0.45c0.24-0.14,0.47-0.2,0.69-0.2
		c0.3,0,0.52,0.11,0.67,0.33l1.03,1.31c-0.4,0.46-0.84,0.85-1.33,1.17c-0.49,0.31-1.01,0.57-1.54,0.75s-1.08,0.32-1.64,0.4
		c-0.56,0.08-1.1,0.12-1.62,0.12c-1.03,0-2-0.17-2.89-0.51c-0.89-0.34-1.66-0.85-2.32-1.52c-0.66-0.67-1.17-1.5-1.55-2.49
		c-0.38-0.99-0.57-2.14-0.57-3.44c0-1.02,0.16-1.97,0.49-2.86c0.33-0.89,0.8-1.67,1.41-2.33s1.36-1.19,2.25-1.57
		c0.88-0.39,1.88-0.58,2.99-0.58c0.94,0,1.8,0.15,2.6,0.45c0.79,0.3,1.47,0.74,2.04,1.31c0.57,0.58,1.02,1.28,1.34,2.12
		c0.32,0.84,0.49,1.79,0.49,2.86c0,0.54-0.06,0.91-0.17,1.09c-0.12,0.19-0.34,0.28-0.67,0.28H466.82z M473.65,94.67
		c0-0.46-0.07-0.9-0.2-1.31c-0.13-0.41-0.33-0.77-0.59-1.08c-0.26-0.31-0.59-0.55-0.99-0.73c-0.4-0.18-0.87-0.27-1.4-0.27
		c-1.03,0-1.85,0.29-2.44,0.88c-0.59,0.59-0.97,1.43-1.14,2.51H473.65z"/>
	<path class="st0" d="M488.63,91.84c-0.1,0.15-0.2,0.26-0.3,0.33c-0.11,0.06-0.24,0.09-0.41,0.09c-0.17,0-0.36-0.05-0.56-0.15
		c-0.2-0.1-0.43-0.21-0.69-0.33c-0.26-0.12-0.56-0.23-0.89-0.33s-0.73-0.15-1.18-0.15c-0.71,0-1.26,0.15-1.66,0.45
		c-0.4,0.3-0.6,0.69-0.6,1.17c0,0.32,0.1,0.59,0.31,0.8c0.21,0.22,0.48,0.41,0.83,0.57c0.34,0.16,0.73,0.31,1.17,0.44
		s0.88,0.27,1.33,0.43c0.45,0.15,0.89,0.33,1.33,0.53c0.43,0.2,0.82,0.45,1.17,0.75s0.62,0.67,0.83,1.09
		c0.21,0.43,0.31,0.94,0.31,1.54c0,0.72-0.13,1.38-0.38,1.98c-0.26,0.6-0.64,1.13-1.14,1.57c-0.5,0.44-1.12,0.78-1.86,1.03
		c-0.74,0.25-1.59,0.37-2.56,0.37c-0.51,0-1.01-0.05-1.5-0.14s-0.96-0.22-1.41-0.38c-0.45-0.16-0.87-0.36-1.25-0.58
		c-0.38-0.22-0.72-0.46-1.01-0.73l0.83-1.36c0.11-0.16,0.23-0.29,0.38-0.38s0.33-0.13,0.55-0.13c0.22,0,0.43,0.06,0.63,0.19
		s0.43,0.26,0.69,0.41c0.26,0.15,0.57,0.28,0.92,0.41s0.8,0.19,1.34,0.19c0.43,0,0.79-0.05,1.09-0.15c0.3-0.1,0.56-0.23,0.75-0.4
		c0.2-0.16,0.34-0.35,0.44-0.57c0.09-0.22,0.14-0.44,0.14-0.67c0-0.35-0.1-0.63-0.31-0.86c-0.21-0.22-0.48-0.42-0.83-0.58
		c-0.34-0.16-0.73-0.31-1.17-0.44s-0.89-0.27-1.35-0.43s-0.91-0.34-1.35-0.54c-0.44-0.21-0.83-0.47-1.17-0.79
		c-0.34-0.32-0.62-0.71-0.83-1.17c-0.21-0.46-0.31-1.02-0.31-1.68c0-0.61,0.12-1.19,0.36-1.74c0.24-0.55,0.6-1.03,1.07-1.44
		c0.47-0.41,1.05-0.74,1.75-0.99s1.51-0.37,2.43-0.37c1.02,0,1.96,0.17,2.8,0.51c0.84,0.34,1.54,0.78,2.1,1.33L488.63,91.84z"/>
	<path class="st0" d="M496.5,84.61c0,0.31-0.06,0.6-0.19,0.87c-0.13,0.27-0.29,0.51-0.5,0.71c-0.21,0.2-0.45,0.36-0.73,0.49
		c-0.28,0.12-0.58,0.18-0.9,0.18c-0.31,0-0.6-0.06-0.88-0.18c-0.28-0.12-0.51-0.28-0.72-0.49c-0.2-0.2-0.37-0.44-0.49-0.71
		c-0.12-0.27-0.18-0.56-0.18-0.87c0-0.32,0.06-0.62,0.18-0.9c0.12-0.28,0.28-0.52,0.49-0.73s0.44-0.36,0.72-0.49
		c0.28-0.12,0.57-0.18,0.88-0.18c0.32,0,0.62,0.06,0.9,0.18c0.28,0.12,0.52,0.28,0.73,0.49s0.37,0.44,0.5,0.73
		C496.44,83.99,496.5,84.29,496.5,84.61z M496.01,88.94v14.88h-3.6V88.94H496.01z"/>
	<path class="st0" d="M512.58,82.27v21.55h-2.19c-0.47,0-0.77-0.22-0.9-0.65l-0.3-1.44c-0.6,0.69-1.29,1.24-2.07,1.67
		c-0.78,0.43-1.68,0.64-2.72,0.64c-0.81,0-1.56-0.17-2.23-0.51s-1.26-0.83-1.75-1.47c-0.49-0.64-0.87-1.44-1.13-2.39
		c-0.27-0.95-0.4-2.03-0.4-3.25c0-1.1,0.15-2.13,0.45-3.07c0.3-0.95,0.73-1.77,1.29-2.46c0.56-0.7,1.23-1.24,2.02-1.63
		c0.78-0.39,1.66-0.59,2.64-0.59c0.83,0,1.54,0.13,2.13,0.39c0.59,0.26,1.12,0.61,1.58,1.06v-7.84H512.58z M509,92.74
		c-0.41-0.49-0.85-0.84-1.33-1.04s-0.99-0.3-1.54-0.3c-0.54,0-1.03,0.1-1.46,0.3s-0.81,0.51-1.12,0.92
		c-0.31,0.41-0.55,0.93-0.71,1.57c-0.16,0.63-0.25,1.38-0.25,2.24c0,0.87,0.07,1.61,0.21,2.21s0.34,1.1,0.6,1.48
		c0.26,0.38,0.58,0.66,0.96,0.83c0.38,0.17,0.8,0.25,1.26,0.25c0.74,0,1.38-0.15,1.9-0.46s1.02-0.75,1.48-1.32V92.74z"/>
	<path class="st0" d="M518.88,96.83c0.06,0.76,0.19,1.42,0.41,1.98c0.21,0.56,0.49,1.02,0.84,1.38c0.35,0.36,0.76,0.63,1.24,0.81
		c0.48,0.18,1.01,0.27,1.59,0.27s1.08-0.07,1.5-0.2s0.79-0.29,1.1-0.45c0.31-0.16,0.59-0.31,0.83-0.45c0.24-0.14,0.47-0.2,0.69-0.2
		c0.3,0,0.52,0.11,0.67,0.33l1.03,1.31c-0.4,0.46-0.84,0.85-1.33,1.17c-0.49,0.31-1.01,0.57-1.54,0.75s-1.08,0.32-1.64,0.4
		c-0.56,0.08-1.1,0.12-1.62,0.12c-1.03,0-2-0.17-2.89-0.51c-0.89-0.34-1.66-0.85-2.32-1.52c-0.66-0.67-1.17-1.5-1.55-2.49
		c-0.38-0.99-0.57-2.14-0.57-3.44c0-1.02,0.16-1.97,0.49-2.86c0.33-0.89,0.8-1.67,1.41-2.33s1.36-1.19,2.25-1.57
		c0.88-0.39,1.88-0.58,2.99-0.58c0.94,0,1.8,0.15,2.6,0.45c0.79,0.3,1.47,0.74,2.04,1.31c0.57,0.58,1.02,1.28,1.34,2.12
		c0.32,0.84,0.49,1.79,0.49,2.86c0,0.54-0.06,0.91-0.17,1.09c-0.12,0.19-0.34,0.28-0.67,0.28H518.88z M525.71,94.67
		c0-0.46-0.07-0.9-0.2-1.31c-0.13-0.41-0.33-0.77-0.59-1.08c-0.26-0.31-0.59-0.55-0.99-0.73c-0.4-0.18-0.87-0.27-1.4-0.27
		c-1.03,0-1.85,0.29-2.44,0.88c-0.59,0.59-0.97,1.43-1.14,2.51H525.71z"/>
	<path class="st0" d="M534.96,90.77c0.3-0.3,0.62-0.58,0.95-0.83c0.33-0.26,0.69-0.47,1.06-0.65c0.37-0.18,0.77-0.32,1.2-0.42
		c0.42-0.1,0.89-0.15,1.39-0.15c0.81,0,1.53,0.14,2.16,0.41s1.15,0.66,1.57,1.16s0.74,1.09,0.96,1.78c0.22,0.69,0.33,1.45,0.33,2.28
		v9.47h-3.58v-9.47c0-0.91-0.21-1.61-0.62-2.11s-1.05-0.75-1.9-0.75c-0.62,0-1.2,0.14-1.74,0.42c-0.54,0.28-1.05,0.66-1.54,1.15
		v10.76h-3.58V88.94h2.19c0.46,0,0.77,0.22,0.91,0.65L534.96,90.77z"/>
	<path class="st0" d="M552.72,104.05c-1.3,0-2.29-0.36-2.98-1.09c-0.69-0.73-1.04-1.74-1.04-3.02v-8.31h-1.52
		c-0.19,0-0.36-0.06-0.49-0.19s-0.2-0.31-0.2-0.57v-1.42l2.39-0.39l0.75-4.06c0.05-0.19,0.14-0.34,0.28-0.45
		c0.14-0.11,0.31-0.16,0.52-0.16h1.86v4.68h3.97v2.55h-3.97v8.06c0,0.46,0.11,0.83,0.34,1.09c0.23,0.26,0.54,0.39,0.94,0.39
		c0.22,0,0.41-0.03,0.56-0.08c0.15-0.05,0.28-0.11,0.39-0.17c0.11-0.06,0.21-0.11,0.3-0.17c0.09-0.05,0.17-0.08,0.26-0.08
		c0.11,0,0.19,0.03,0.26,0.08c0.07,0.05,0.14,0.13,0.22,0.24l1.07,1.74c-0.52,0.44-1.12,0.76-1.8,0.99
		C554.15,103.94,553.45,104.05,552.72,104.05z"/>
	<path class="st0" d="M567.63,91.84c-0.1,0.15-0.2,0.26-0.3,0.33c-0.11,0.06-0.24,0.09-0.41,0.09c-0.17,0-0.36-0.05-0.56-0.15
		c-0.2-0.1-0.43-0.21-0.69-0.33c-0.26-0.12-0.56-0.23-0.89-0.33s-0.73-0.15-1.18-0.15c-0.71,0-1.26,0.15-1.66,0.45
		c-0.4,0.3-0.6,0.69-0.6,1.17c0,0.32,0.1,0.59,0.31,0.8c0.21,0.22,0.48,0.41,0.83,0.57c0.34,0.16,0.73,0.31,1.17,0.44
		s0.88,0.27,1.33,0.43c0.45,0.15,0.89,0.33,1.33,0.53c0.43,0.2,0.82,0.45,1.17,0.75s0.62,0.67,0.83,1.09
		c0.21,0.43,0.31,0.94,0.31,1.54c0,0.72-0.13,1.38-0.38,1.98c-0.26,0.6-0.64,1.13-1.14,1.57c-0.5,0.44-1.12,0.78-1.86,1.03
		c-0.74,0.25-1.59,0.37-2.56,0.37c-0.51,0-1.01-0.05-1.5-0.14s-0.96-0.22-1.41-0.38c-0.45-0.16-0.87-0.36-1.25-0.58
		c-0.38-0.22-0.72-0.46-1.01-0.73l0.83-1.36c0.11-0.16,0.23-0.29,0.38-0.38s0.33-0.13,0.55-0.13c0.22,0,0.43,0.06,0.63,0.19
		s0.43,0.26,0.69,0.41c0.26,0.15,0.57,0.28,0.92,0.41s0.8,0.19,1.34,0.19c0.43,0,0.79-0.05,1.09-0.15c0.3-0.1,0.56-0.23,0.75-0.4
		c0.2-0.16,0.34-0.35,0.44-0.57c0.09-0.22,0.14-0.44,0.14-0.67c0-0.35-0.1-0.63-0.31-0.86c-0.21-0.22-0.48-0.42-0.83-0.58
		c-0.34-0.16-0.73-0.31-1.17-0.44s-0.89-0.27-1.35-0.43s-0.91-0.34-1.35-0.54c-0.44-0.21-0.83-0.47-1.17-0.79
		c-0.34-0.32-0.62-0.71-0.83-1.17c-0.21-0.46-0.31-1.02-0.31-1.68c0-0.61,0.12-1.19,0.36-1.74c0.24-0.55,0.6-1.03,1.07-1.44
		c0.47-0.41,1.05-0.74,1.75-0.99s1.51-0.37,2.43-0.37c1.02,0,1.96,0.17,2.8,0.51c0.84,0.34,1.54,0.78,2.1,1.33L567.63,91.84z"/>
	<path class="st0" d="M417.41,119.41c0,0.31-0.06,0.6-0.19,0.87c-0.13,0.27-0.29,0.51-0.5,0.71c-0.21,0.2-0.45,0.36-0.73,0.49
		c-0.28,0.12-0.58,0.18-0.9,0.18c-0.31,0-0.6-0.06-0.88-0.18c-0.28-0.12-0.51-0.28-0.72-0.49c-0.2-0.2-0.37-0.44-0.49-0.71
		c-0.12-0.27-0.18-0.56-0.18-0.87c0-0.32,0.06-0.62,0.18-0.9c0.12-0.28,0.28-0.52,0.49-0.73s0.44-0.36,0.72-0.49
		c0.28-0.12,0.57-0.18,0.88-0.18c0.32,0,0.62,0.06,0.9,0.18c0.28,0.12,0.52,0.28,0.73,0.49s0.37,0.44,0.5,0.73
		C417.35,118.79,417.41,119.09,417.41,119.41z M416.92,123.74v14.88h-3.6v-14.88H416.92z"/>
	<path class="st0" d="M423.92,125.57c0.3-0.3,0.62-0.58,0.95-0.83c0.33-0.26,0.69-0.47,1.06-0.65c0.37-0.18,0.77-0.32,1.2-0.42
		c0.42-0.1,0.89-0.15,1.39-0.15c0.81,0,1.53,0.14,2.16,0.41s1.15,0.66,1.57,1.16s0.74,1.09,0.96,1.78c0.22,0.69,0.33,1.45,0.33,2.28
		v9.47h-3.58v-9.47c0-0.91-0.21-1.61-0.62-2.11s-1.05-0.75-1.9-0.75c-0.62,0-1.2,0.14-1.74,0.42c-0.54,0.28-1.05,0.66-1.54,1.15
		v10.76h-3.58v-14.88h2.19c0.46,0,0.77,0.22,0.91,0.65L423.92,125.57z"/>
	<path class="st0" d="M451.35,117.65c1.4,0,2.61,0.16,3.64,0.49c1.02,0.33,1.87,0.79,2.54,1.38c0.67,0.59,1.16,1.3,1.49,2.12
		c0.32,0.82,0.49,1.72,0.49,2.7c0,1.02-0.17,1.95-0.51,2.79s-0.85,1.57-1.52,2.18c-0.68,0.61-1.52,1.08-2.54,1.42
		c-1.02,0.34-2.21,0.51-3.57,0.51h-2.91v7.38h-3.9v-20.97H451.35z M451.35,128.19c0.72,0,1.34-0.09,1.87-0.27
		c0.53-0.18,0.97-0.44,1.33-0.77s0.62-0.74,0.79-1.22c0.17-0.48,0.26-1.01,0.26-1.6c0-0.56-0.09-1.07-0.26-1.52
		c-0.17-0.45-0.44-0.84-0.78-1.16c-0.35-0.32-0.79-0.56-1.32-0.73c-0.53-0.17-1.16-0.25-1.89-0.25h-2.91v7.53H451.35z"/>
	<path class="st0" d="M467.82,123.51c1.1,0,2.1,0.18,3.01,0.54c0.9,0.36,1.68,0.87,2.32,1.52s1.14,1.46,1.49,2.41
		c0.35,0.95,0.52,2.01,0.52,3.18c0,1.18-0.17,2.24-0.52,3.19s-0.84,1.75-1.49,2.42s-1.42,1.18-2.32,1.54
		c-0.9,0.36-1.91,0.54-3.01,0.54c-1.11,0-2.12-0.18-3.03-0.54c-0.91-0.36-1.68-0.87-2.33-1.54s-1.14-1.47-1.49-2.42
		c-0.35-0.95-0.53-2.01-0.53-3.19c0-1.17,0.18-2.23,0.53-3.18c0.35-0.95,0.85-1.75,1.49-2.41s1.42-1.17,2.33-1.52
		C465.7,123.69,466.71,123.51,467.82,123.51z M467.82,136.08c1.24,0,2.15-0.42,2.75-1.25c0.59-0.83,0.89-2.05,0.89-3.65
		s-0.3-2.83-0.89-3.67c-0.59-0.84-1.51-1.26-2.75-1.26c-1.26,0-2.19,0.42-2.79,1.27s-0.91,2.07-0.91,3.66s0.3,2.81,0.91,3.65
		C465.64,135.66,466.57,136.08,467.82,136.08z"/>
	<path class="st0" d="M490.85,123.74l-5.9,14.88h-3.25l-5.9-14.88h2.96c0.27,0,0.5,0.06,0.67,0.19s0.3,0.29,0.36,0.48l2.87,7.95
		c0.15,0.46,0.29,0.92,0.41,1.36s0.22,0.89,0.3,1.33c0.1-0.44,0.2-0.89,0.32-1.33c0.12-0.44,0.26-0.9,0.42-1.36l2.93-7.95
		c0.07-0.19,0.19-0.35,0.36-0.48s0.38-0.19,0.62-0.19H490.85z"/>
	<path class="st0" d="M495.04,131.63c0.06,0.76,0.19,1.42,0.41,1.98c0.21,0.56,0.49,1.02,0.84,1.38c0.35,0.36,0.76,0.63,1.24,0.81
		c0.48,0.18,1.01,0.27,1.59,0.27s1.08-0.07,1.5-0.2s0.79-0.29,1.1-0.45c0.31-0.16,0.59-0.31,0.83-0.45c0.24-0.14,0.47-0.2,0.69-0.2
		c0.3,0,0.52,0.11,0.67,0.33l1.03,1.31c-0.4,0.46-0.84,0.85-1.33,1.17c-0.49,0.31-1.01,0.57-1.54,0.75s-1.08,0.32-1.64,0.4
		c-0.56,0.08-1.1,0.12-1.62,0.12c-1.03,0-2-0.17-2.89-0.51c-0.89-0.34-1.66-0.85-2.32-1.52c-0.66-0.67-1.17-1.5-1.55-2.49
		c-0.38-0.99-0.57-2.14-0.57-3.44c0-1.02,0.16-1.97,0.49-2.86c0.33-0.89,0.8-1.67,1.41-2.33s1.36-1.19,2.25-1.57
		c0.88-0.39,1.88-0.58,2.99-0.58c0.94,0,1.8,0.15,2.6,0.45c0.79,0.3,1.47,0.74,2.04,1.31c0.57,0.58,1.02,1.28,1.34,2.12
		c0.32,0.84,0.49,1.79,0.49,2.86c0,0.54-0.06,0.91-0.17,1.09c-0.12,0.19-0.34,0.28-0.67,0.28H495.04z M501.87,129.47
		c0-0.46-0.07-0.9-0.2-1.31c-0.13-0.41-0.33-0.77-0.59-1.08c-0.26-0.31-0.59-0.55-0.99-0.73c-0.4-0.18-0.87-0.27-1.4-0.27
		c-1.03,0-1.85,0.29-2.44,0.88c-0.59,0.59-0.97,1.43-1.14,2.51H501.87z"/>
	<path class="st0" d="M511.15,126.32c0.46-0.89,1.02-1.59,1.65-2.1c0.64-0.51,1.39-0.76,2.26-0.76c0.69,0,1.24,0.15,1.65,0.45
		l-0.23,2.68c-0.05,0.17-0.12,0.3-0.21,0.37c-0.09,0.07-0.22,0.11-0.37,0.11c-0.15,0-0.36-0.02-0.65-0.07s-0.56-0.07-0.83-0.07
		c-0.4,0-0.75,0.06-1.06,0.17c-0.31,0.12-0.59,0.28-0.83,0.5c-0.25,0.22-0.46,0.48-0.65,0.79c-0.19,0.31-0.37,0.66-0.53,1.06v9.16
		h-3.58v-14.88h2.1c0.37,0,0.62,0.07,0.77,0.2s0.24,0.36,0.29,0.7L511.15,126.32z"/>
	<path class="st0" d="M523.55,138.85c-1.3,0-2.29-0.36-2.98-1.09c-0.69-0.73-1.04-1.74-1.04-3.02v-8.31h-1.52
		c-0.19,0-0.36-0.06-0.49-0.19s-0.2-0.31-0.2-0.57v-1.42l2.39-0.39l0.75-4.06c0.05-0.19,0.14-0.34,0.28-0.45
		c0.14-0.11,0.31-0.16,0.52-0.16h1.86v4.68h3.97v2.55h-3.97v8.06c0,0.46,0.11,0.83,0.34,1.09c0.23,0.26,0.54,0.39,0.94,0.39
		c0.22,0,0.41-0.03,0.56-0.08c0.15-0.05,0.28-0.11,0.39-0.17c0.11-0.06,0.21-0.11,0.3-0.17c0.09-0.05,0.17-0.08,0.26-0.08
		c0.11,0,0.19,0.03,0.26,0.08c0.07,0.05,0.14,0.13,0.22,0.24l1.07,1.74c-0.52,0.44-1.12,0.76-1.8,0.99
		C524.97,138.74,524.27,138.85,523.55,138.85z"/>
	<path class="st0" d="M542.89,123.74l-8.11,18.97c-0.11,0.25-0.24,0.44-0.41,0.57c-0.17,0.13-0.43,0.2-0.78,0.2h-2.67l2.78-5.97
		l-6.02-13.76h3.15c0.28,0,0.5,0.07,0.66,0.2c0.16,0.14,0.28,0.29,0.36,0.46l3.16,7.71c0.11,0.26,0.2,0.52,0.27,0.78
		c0.07,0.26,0.14,0.53,0.21,0.8c0.09-0.27,0.17-0.54,0.26-0.8c0.09-0.27,0.18-0.53,0.29-0.79l2.99-7.7
		c0.08-0.19,0.21-0.35,0.38-0.48s0.38-0.19,0.6-0.19H542.89z"/>
</g>
</svg>
