<?xml version="1.0" encoding="UTF-8"?>
<svg id="_5" data-name="5" xmlns="http://www.w3.org/2000/svg" viewBox="0 0 50 50">
  <defs>
    <style>
      .cls-1, .cls-2 {
        fill: #fff;
      }

      .cls-2 {
        fill-rule: evenodd;
      }
    </style>
  </defs>
  <path class="cls-2" d="m26.26,42.6V7.4c0-.71-.35-1.24-.89-1.78-.54-.34-1.24-.7-2.13-.7H3.93c-.87,0-1.58.37-2.12.7-.54.54-.89,1.07-.89,1.78v35.19c0,.7.35,1.41.89,1.78.54.54,1.24.71,2.12.71h19.84c1.47,0,2.48-1.61,2.48-2.48Zm-14.35-2.82c0,.37-.17.54-.35.7-.17.17-.54.34-.7.34h-3.73c-.35,0-.52-.17-.7-.34-.17-.17-.35-.34-.35-.7v-2.65c0-.17.18-.37.35-.54.18-.17.35-.34.7-.34h3.73c.17,0,.54.17.7.34.18.17.35.37.35.54v2.65Zm0-6.72c0,.34-.17.51-.35.7-.17.17-.54.17-.7.17h-3.73c-.35,0-.52,0-.7-.17-.17-.2-.35-.37-.35-.7v-2.65c0-.17.18-.54.35-.54.18-.17.35-.37.7-.37h3.73c.17,0,.54.2.7.37.18,0,.35.37.35.54v2.65Zm0-6.72c0,.34-.17.51-.35.7-.17.17-.54.17-.7.17h-3.73c-.35,0-.52,0-.7-.17-.17-.2-.35-.37-.35-.7v-2.68c0-.17.18-.51.35-.71.18,0,.35-.17.7-.17h3.73c.17,0,.54.17.7.17.18.2.35.54.35.71v2.68Zm0-6.75c0,.37-.17.54-.35.7-.17.2-.54.2-.7.2h-3.73c-.35,0-.52,0-.7-.2-.17-.17-.35-.34-.35-.7v-2.65c0-.17.18-.51.35-.71.18-.17.35-.17.7-.17h3.73c.17,0,.54,0,.7.17.18.2.35.54.35.71v2.65Zm0-6.72c0,.37-.17.54-.35.7-.17.17-.54.17-.7.17h-3.73c-.35,0-.52,0-.7-.17-.17-.17-.35-.34-.35-.7v-2.65c0-.17.18-.54.35-.71.18-.17.35-.17.7-.17h3.73c.17,0,.54,0,.7.17.18.17.35.54.35.71v2.65Zm9.21,26.89c0,.37-.18.54-.35.7-.18.17-.35.34-.7.34h-3.73c-.17,0-.54-.17-.7-.34-.18-.17-.35-.34-.35-.7v-2.65c0-.17.17-.37.35-.54.17-.17.54-.34.7-.34h3.73c.35,0,.52.17.7.34.17.17.35.37.35.54v2.65Zm0-6.72c0,.34-.18.51-.35.7-.18.17-.35.17-.7.17h-3.73c-.17,0-.54,0-.7-.17-.18-.2-.35-.37-.35-.7v-2.65c0-.17.17-.54.35-.54.17-.17.54-.37.7-.37h3.73c.35,0,.52.2.7.37.17,0,.35.37.35.54v2.65Zm0-6.72c0,.34-.18.51-.35.7-.18.17-.35.17-.7.17h-3.73c-.17,0-.54,0-.7-.17-.18-.2-.35-.37-.35-.7v-2.68c0-.17.17-.51.35-.71.17,0,.54-.17.7-.17h3.73c.35,0,.52.17.7.17.17.2.35.54.35.71v2.68Zm0-6.75c0,.37-.18.54-.35.7-.18.2-.35.2-.7.2h-3.73c-.17,0-.54,0-.7-.2-.18-.17-.35-.34-.35-.7v-2.65c0-.17.17-.51.35-.71.17-.17.54-.17.7-.17h3.73c.35,0,.52,0,.7.17.17.2.35.54.35.71v2.65Zm0-6.72c0,.37-.18.54-.35.7-.18.17-.35.17-.7.17h-3.73c-.17,0-.54,0-.7-.17-.18-.17-.35-.34-.35-.7v-2.65c0-.17.17-.54.35-.71.17-.17.54-.17.7-.17h3.73c.35,0,.52,0,.7.17.17.17.35.54.35.71v2.65Z"/>
  <path class="cls-1" d="m30.91,35.27v8.71c0,.38.19.56.38.66.19.09.38.09.57.09h3.99c.09,0,.28,0,.37-.09.11-.11.11-.29.11-.38v-4.17h3.97v4.17c0,.09,0,.27.2.38.09.09.19.09.28.09h3.98c.2,0,.39,0,.57-.09.19-.11.47-.29.47-.66v-8.71l-7.49-6.72-7.38,6.72Zm.19-12.02l6.06.29-6.25,5.59-.19.29.38-6.16Zm17.53,9.65l-9.39-8.52c-.57-.47-1.32-.47-1.89,0l-9.39,8.52c-.57.57-.57,1.42-.1,1.99h0c.29.29.66.47,1.04.47s.66-.18.95-.38l8.43-7.66,8.44,7.66c.57.48,1.52.48,1.99-.09.48-.57.48-1.42-.09-1.99h0Zm-11.18,4.36h0c0,.27-.2.38-.48.38h-3.79c-.19,0-.48-.11-.48-.38v-2.37c0-.18.29-.29.48-.29h3.79c.28,0,.48.11.48.29v2.37Zm1.71-2.37h0c0-.18.29-.29.48-.29h3.79c.28,0,.47.11.47.29v2.37c0,.27-.19.38-.47.38h-3.79c-.19,0-.48-.11-.48-.38v-2.37Z"/>
</svg>