<?xml version="1.0" encoding="UTF-8"?>
<svg id="_5" data-name="5" xmlns="http://www.w3.org/2000/svg" viewBox="0 0 50 50">
  <defs>
    <style>
      .cls-1 {
        fill: #fff;
      }
    </style>
  </defs>
  <path class="cls-1" d="m45.21,17.14l-13.71-12.45c-.83-.7-1.94-.7-2.77,0l-13.72,12.45c-.82.7-.96,2.08-.13,2.9h0c.41.42.97.56,1.52.56.41,0,.97-.14,1.39-.42l12.32-11.35,12.34,11.35c.83.7,2.08.7,2.9-.14.7-.83.7-2.21-.14-2.9h0Zm-26.04,3.47v12.72c0,.55.41.83.7.97.14.13.55.13.83.13h18.84c.28,0,.55,0,.84-.13.26-.14.54-.42.54-.97v-12.72l-10.8-9.83-10.94,9.83Zm6.51-2.68h8.86v6.22h-8.86v-6.22Zm-8.44-12.14l8.3.28-7.89,7.47-.41-7.75Z"/>
  <path class="cls-1" d="m.39,32.05c2.39,4.76,4.76,9.27,7.15,13.78,5.23-4.04,16.89-1.18,25.44-1.9,5.48-2.86,10.71-5.95,16.19-8.8,1.19-3.09,0-4.76-4.04-4.99-3.81,2.14-7.62,4.27-11.43,6.41-3.81-.47-7.6-1.18-11.43-1.65-5.71-7.37,6.92-1.44,10.48-2.14,2.14-1.42,2.62-3.11,0-4.76-5.71-1.19-11.66-2.39-17.61-3.56-4.76,2.37-9.74,4.99-14.75,7.6H.39Z"/>
</svg>