<?xml version="1.0" encoding="UTF-8"?>
<svg id="_5" data-name="5" xmlns="http://www.w3.org/2000/svg" viewBox="0 0 50 50">
  <defs>
    <style>
      .cls-1 {
        fill: #fff;
      }
    </style>
  </defs>
  <path class="cls-1" d="m.1,21.87c2.42,4.82,4.81,9.38,7.23,13.95,5.3-4.09,17.09-1.19,25.75-1.92,5.55-2.9,10.84-6.02,16.38-8.9,1.21-3.13,0-4.81-4.09-5.05-3.86,2.17-7.71,4.32-11.57,6.49-3.86-.48-7.69-1.19-11.57-1.67-5.77-7.46,7-1.46,10.61-2.17,2.17-1.44,2.65-3.15,0-4.82-5.77-1.21-11.8-2.42-17.82-3.61-4.82,2.4-9.86,5.05-14.93,7.69H.1Z"/>
</svg>