<?xml version="1.0" encoding="UTF-8"?>
<svg id="_5" data-name="5" xmlns="http://www.w3.org/2000/svg" viewBox="0 0 50 50">
  <defs>
    <style>
      .cls-1 {
        fill: #fff;
        fill-rule: evenodd;
      }
    </style>
  </defs>
  <path class="cls-1" d="m14.57,20.86v10.42h13.3v-10.42l-6.65-5.7-6.65,5.7Zm31.38,21.46l-7.42-7.39c-.76-.79-1.89-.97-2.85-.58l-1.33-1.33c6.29-7.03,6.09-17.85-.76-24.52-6.85-6.82-18.08-6.82-25.11,0-6.85,7.03-6.85,18.24,0,25.09,6.65,6.82,17.5,7,24.53.76l1.33,1.33c-.38.94-.2,2.09.57,2.82l7.41,7.42c.96.94,2.49.94,3.62,0,.96-1.15.96-2.64,0-3.61h0Zm-14.46-10.82h0c-5.71,5.88-15.03,5.88-20.93,0-5.7-5.7-5.7-15.03,0-20.91,5.9-5.7,15.21-5.7,20.93,0,5.7,5.88,5.7,15.21,0,20.91h0Zm-.39-13.3l-8.92-8.18c-.58-.36-1.33-.36-1.91,0l-8.94,8.18c-.56.57-.56,1.33-.18,1.91h0c.38.36.76.58,1.14.58.2,0,.57-.21.76-.4l8.18-7.42,8,7.42c.56.4,1.52.4,1.88-.18.59-.57.59-1.33,0-1.91h0Zm-9.3,3.79h0c0-.18.2-.36.38-.36h2.86c.18,0,.36.18.36.36v1.73c0,.18-.18.36-.36.36h-2.86c-.18,0-.38-.18-.38-.36v-1.73Zm-1.33,1.73h0c0,.18,0,.36-.2.36h-2.85c-.2,0-.38-.18-.38-.36v-1.73c0-.18.18-.36.38-.36h2.85c.2,0,.2.18.2.36v1.73Zm1.33,2.67h0s.2-.21.38-.21h2.86c.18,0,.36.21.36.21v1.88c0,.21-.18.21-.36.21h-2.86c-.18,0-.38,0-.38-.21v-1.88Zm-1.33,1.88h0q0,.21-.2.21h-2.85c-.2,0-.38,0-.38-.21v-1.88s.18-.21.38-.21h2.85c.2,0,.2.21.2.21v1.88Z"/>
</svg>