<?xml version="1.0" encoding="UTF-8"?>
<svg id="_5" data-name="5" xmlns="http://www.w3.org/2000/svg" viewBox="0 0 50 50">
  <defs>
    <style>
      .cls-1 {
        fill: #fff;
      }
    </style>
  </defs>
  <path class="cls-1" d="m49.36,20.51c-1.24-1.42-3.45-.35-4.88-1.44.28-1.16-.65-.88-1.45-.9,0,0-1.81-1.44-1.81-1.44-.92.41-2.7,1.44-3.18,0-1.42,1.71-2.15,0-3.32,1.26,1.68,1.49-2.94,1.04.77,3.63-.43-1.41.78-2.29.85-.38,1.33,1.19-.44,1.31-1.26.54-.46.15-1.55,1.26-1.45.01-1.45-.07-.65,1.5-2.14,1.12-.96-.7-.84.09-1.43.03-.51-1.13.33-1.47.67-2.06-.66-2.33,1.65-3.6,1.83-5.44-2.76-1.24-6.17-2.4-8.06-4.04-.54-2.04,2.53-.8,2.08-2.44-4.12.43-6.46-2.3-9.66-3.16-1,4.29,4.33,6.97-.27,10.93-1.46,2.65-4.81-.71-4.42,2.44,1.61.58,5.67-1.51,5.24,1.08,1.59-.03-.44-2.44,1.72-1.53-.01,10.21-2.33,3.59-2.65,7.62-1.49.14-1.2-.16-.51-1.2-3.06.8-1.13-2.35-1.45-4.15-1.49-.57-10.53-2.34-4.33,2.53-.12,1.01-.45.11-.78-.17-.93.32-.42.57.06,1.07-.26,2.59-4.53-.15-3.97-1.86-.74-.84-1.63-.33-2.53-.3-1.47-1.63-3.67-1.2-1.44.9-.14,1.79,2.27,1.2,1.81,3.07-2.86,2.2,4.28.62,1.44,5.24,3.32,2.3,8.02,2.72,6.5,7.59-1.79,1.37,1.57,1.8,1.99.36,1.27.31,2.22,1.71,3.43,2.17,2.99,1.17-1.3-5.96,1.44-4.34.36,1.09-.26,3.51,1.99,2.71-.7-2.42,2.84-2.08,2.35.03-.42.05-1.93-.07-1.81.69,1.14.24,3.33-.41,4.15-.36-.46,1.17.69.1.54-.54.39.16,1.69.17,1.08.9,0,0,1.99-.36,2.17.54-.31,1.48-1.04,1.2-.72,2.71.38.96,3.88-.61,4.88-.18-.1-.78-.03-1.92.72-2.35-.73-.73-2.8-5.61-4.33-4.7-.03-.9.26-3.26-.72-3.79,1.44.25.65-1.62.72-2.35,2.19.27-1.06-3.68-.24-4.61,5-.47,2.42-1.37,2.68,2.53,3.36,1.24,6.52,9.72,10.48,10.12-2.53-2.27-3.26-1.78.18-3.61-.06,1.91,2.23.7,4.15,1.45-1.1-2.24-6.94-6.24-2.17-7.95-4.81-2.77-.41-.45-2.53-3.43-.65.45-1.1,1.3-1.68.27,1.99-1.32-5.26-1.67-1.76-4.97,2.25,1.96,1.31-.77,3.79.72-1.25.02-1.98.72-1.99,1.99,1.51-.2,1.45.74,2.35,1.45.89-1.34,2.12-2.07,3.79-2.53,2.74,5.04,2.29,1.62,3.07-1.44Zm-19.87,4.7h-1.44c.52.38.72.81.27,1.35-.94.06-2.55.89-2.53-.72-.27-.43-2.47-.69-2.53-1.45-2.35,0,.27,3.2-3.79,1.81-.16-2.44.39-7.26.97-9.64,1.81-.9,4.19-1.09,3,2.42,4.7,4.26,6.8-1.16,6.05,6.23Z"/>
</svg>