<?xml version="1.0" encoding="UTF-8"?>
<svg id="_5" data-name="5" xmlns="http://www.w3.org/2000/svg" viewBox="0 0 50 50">
  <defs>
    <style>
      .cls-1 {
        fill: #fff;
      }
    </style>
  </defs>
  <path class="cls-1" d="m34.48,19.59h-9.88c-2.07-4.29-6.54-7.33-11.63-7.33C5.96,12.27.38,18.01.38,25s5.57,12.73,12.59,12.73c5.73,0,10.51-3.82,12.1-8.75h1.43c.17,1.43,1.28,2.54,2.87,2.54,1.43,0,2.55-1.1,2.7-2.54h1.6c.15,1.43,1.27,2.54,2.7,2.54,1.6,0,2.72-1.1,2.87-2.54h1.6c.15,1.43,1.28,2.54,2.7,2.54,1.6,0,2.72-1.1,2.88-2.7,1.75,0,3.17-1.43,3.17-3.19v-2.86c0-1.75-1.59-3.19-3.34-3.19h-11.79Zm-29.96,5.41h0c0-2.07,1.6-3.66,3.5-3.66,2.08,0,3.67,1.59,3.67,3.66,0,1.9-1.59,3.67-3.67,3.67-1.9,0-3.5-1.76-3.5-3.67h0Z"/>
</svg>